<svg xmlns="http://www.w3.org/2000/svg" xmlns:xlink="http://www.w3.org/1999/xlink" width="282" height="265" viewBox="0 0 282 265">
  <defs>
    <clipPath id="clip-path">
      <rect id="Rectángulo_303643" data-name="Rectángulo 303643" width="282" height="265" transform="translate(1115 2416)" fill="#fff" stroke="#707070" stroke-width="1"/>
    </clipPath>
  </defs>
  <g id="Enmascarar_grupo_130559" data-name="Enmascarar grupo 130559" transform="translate(-1115 -2416)" clip-path="url(#clip-path)">
    <g id="Grupo_904842" data-name="Grupo 904842" transform="translate(1060.121 2342.653)">
      <g id="Background_Complete" data-name="Background Complete" transform="translate(54.271 73.347)">
        <g id="Grupo_904774" data-name="Grupo 904774">
          <rect id="Rectángulo_304312" data-name="Rectángulo 304312" width="68.158" height="70.356" transform="translate(193.999 20.573)" fill="#f5f5f5"/>
          <rect id="Rectángulo_304313" data-name="Rectángulo 304313" width="0.78" height="70.356" transform="translate(261.377 20.573)" fill="#e6e6e6"/>
          <g id="Grupo_904748" data-name="Grupo 904748" transform="translate(27.129)">
            <circle id="Elipse_7447" data-name="Elipse 7447" cx="19.59" cy="19.59" r="19.59" fill="#e0e0e0"/>
            <circle id="Elipse_7448" data-name="Elipse 7448" cx="16.656" cy="16.656" r="16.656" transform="translate(2.933 2.933)" fill="#f0f0f0"/>
            <g id="Grupo_904747" data-name="Grupo 904747" transform="translate(10.283 7.359)">
              <path id="Trazado_693123" data-name="Trazado 693123" d="M69.356,77.062V88.706L61.64,84.34" transform="translate(-60.836 -76.258)" fill="#f0f0f0"/>
              <path id="Trazado_693124" data-name="Trazado 693124" d="M69.794,89.949a.8.8,0,0,1-.4-.105l-7.715-4.364a.8.8,0,0,1,.791-1.4l6.516,3.687V77.5a.805.805,0,0,1,1.611,0V89.145a.806.806,0,0,1-.806.8Z" transform="translate(-61.274 -76.696)" fill="#e0e0e0"/>
            </g>
          </g>
          <g id="Grupo_904749" data-name="Grupo 904749" transform="translate(0 63.477)">
            <rect id="Rectángulo_304314" data-name="Rectángulo 304314" width="103.682" height="114.67" transform="translate(0.544)" fill="#e0e0e0"/>
            <rect id="Rectángulo_304315" data-name="Rectángulo 304315" width="107.536" height="114.67" fill="#f0f0f0"/>
            <rect id="Rectángulo_304316" data-name="Rectángulo 304316" width="98.61" height="105.744" transform="translate(4.377 3.657)" fill="#fff"/>
            <rect id="Rectángulo_304317" data-name="Rectángulo 304317" width="2.852" height="105.744" transform="translate(100.136 3.657)" fill="#e0e0e0"/>
            <rect id="Rectángulo_304318" data-name="Rectángulo 304318" width="2.852" height="96.316" transform="translate(4.125 82.55) rotate(-90)" fill="#e0e0e0"/>
            <rect id="Rectángulo_304319" data-name="Rectángulo 304319" width="100.14" height="4.787" transform="translate(2.848 74.911)" fill="#f0f0f0"/>
          </g>
          <rect id="Rectángulo_304320" data-name="Rectángulo 304320" width="60.345" height="40.322" transform="translate(197.1 47.706)" fill="#fafafa"/>
          <rect id="Rectángulo_304321" data-name="Rectángulo 304321" width="4.406" height="40.322" transform="translate(253.04 47.706)" fill="#f0f0f0"/>
          <rect id="Rectángulo_304322" data-name="Rectángulo 304322" width="60.345" height="6.358" transform="translate(197.1 47.706)" fill="#e0e0e0"/>
          <rect id="Rectángulo_304323" data-name="Rectángulo 304323" width="55.939" height="6.358" transform="translate(197.1 47.706)" fill="#e6e6e6"/>
          <g id="Grupo_904755" data-name="Grupo 904755" transform="translate(199.207 57.933)">
            <g id="Grupo_904750" data-name="Grupo 904750" transform="translate(7.56)">
              <rect id="Rectángulo_304324" data-name="Rectángulo 304324" width="6.368" height="4.622" fill="#fff"/>
              <rect id="Rectángulo_304325" data-name="Rectángulo 304325" width="6.368" height="4.622" transform="translate(7.56)" fill="#fff"/>
              <rect id="Rectángulo_304326" data-name="Rectángulo 304326" width="6.368" height="4.622" transform="translate(15.12)" fill="#fff"/>
              <rect id="Rectángulo_304327" data-name="Rectángulo 304327" width="6.368" height="4.622" transform="translate(22.68)" fill="#fff"/>
              <rect id="Rectángulo_304328" data-name="Rectángulo 304328" width="6.368" height="4.622" transform="translate(30.239)" fill="#fff"/>
              <rect id="Rectángulo_304329" data-name="Rectángulo 304329" width="6.368" height="4.622" transform="translate(37.799)" fill="#fff"/>
            </g>
            <g id="Grupo_904751" data-name="Grupo 904751" transform="translate(0 5.855)">
              <rect id="Rectángulo_304330" data-name="Rectángulo 304330" width="6.368" height="4.622" fill="#fff"/>
              <rect id="Rectángulo_304331" data-name="Rectángulo 304331" width="6.368" height="4.622" transform="translate(7.56)" fill="#fff"/>
              <rect id="Rectángulo_304332" data-name="Rectángulo 304332" width="6.368" height="4.622" transform="translate(15.12)" fill="#fff"/>
              <rect id="Rectángulo_304333" data-name="Rectángulo 304333" width="6.368" height="4.622" transform="translate(22.68)" fill="#fff"/>
              <rect id="Rectángulo_304334" data-name="Rectángulo 304334" width="6.368" height="4.622" transform="translate(30.239)" fill="#fff"/>
              <rect id="Rectángulo_304335" data-name="Rectángulo 304335" width="6.368" height="4.622" transform="translate(37.799)" fill="#fff"/>
              <rect id="Rectángulo_304336" data-name="Rectángulo 304336" width="6.368" height="4.622" transform="translate(45.359)" fill="#fff"/>
            </g>
            <g id="Grupo_904752" data-name="Grupo 904752" transform="translate(0 11.709)">
              <rect id="Rectángulo_304337" data-name="Rectángulo 304337" width="6.368" height="4.622" fill="#fff"/>
              <rect id="Rectángulo_304338" data-name="Rectángulo 304338" width="6.368" height="4.622" transform="translate(7.56)" fill="#fff"/>
              <rect id="Rectángulo_304339" data-name="Rectángulo 304339" width="6.368" height="4.622" transform="translate(15.12)" fill="#fff"/>
              <rect id="Rectángulo_304340" data-name="Rectángulo 304340" width="6.368" height="4.622" transform="translate(22.68)" fill="#fff"/>
              <rect id="Rectángulo_304341" data-name="Rectángulo 304341" width="6.368" height="4.622" transform="translate(30.239)" fill="#fff"/>
              <rect id="Rectángulo_304342" data-name="Rectángulo 304342" width="6.368" height="4.622" transform="translate(37.799)" fill="#e6e6e6"/>
              <rect id="Rectángulo_304343" data-name="Rectángulo 304343" width="6.368" height="4.622" transform="translate(45.359)" fill="#fff"/>
            </g>
            <g id="Grupo_904753" data-name="Grupo 904753" transform="translate(0 17.564)">
              <rect id="Rectángulo_304344" data-name="Rectángulo 304344" width="6.368" height="4.622" fill="#fff"/>
              <rect id="Rectángulo_304345" data-name="Rectángulo 304345" width="6.368" height="4.622" transform="translate(7.56)" fill="#fff"/>
              <rect id="Rectángulo_304346" data-name="Rectángulo 304346" width="6.368" height="4.622" transform="translate(15.12)" fill="#fff"/>
              <rect id="Rectángulo_304347" data-name="Rectángulo 304347" width="6.368" height="4.622" transform="translate(22.68)" fill="#fff"/>
              <rect id="Rectángulo_304348" data-name="Rectángulo 304348" width="6.368" height="4.622" transform="translate(30.239)" fill="#fff"/>
              <rect id="Rectángulo_304349" data-name="Rectángulo 304349" width="6.368" height="4.622" transform="translate(37.799)" fill="#fff"/>
              <rect id="Rectángulo_304350" data-name="Rectángulo 304350" width="6.368" height="4.622" transform="translate(45.359)" fill="#fff"/>
            </g>
            <g id="Grupo_904754" data-name="Grupo 904754" transform="translate(0 23.419)">
              <rect id="Rectángulo_304351" data-name="Rectángulo 304351" width="6.368" height="4.622" fill="#fff"/>
              <rect id="Rectángulo_304352" data-name="Rectángulo 304352" width="6.368" height="4.622" transform="translate(7.56)" fill="#fff"/>
              <rect id="Rectángulo_304353" data-name="Rectángulo 304353" width="6.368" height="4.622" transform="translate(15.12)" fill="#fff"/>
              <rect id="Rectángulo_304354" data-name="Rectángulo 304354" width="6.368" height="4.622" transform="translate(22.68)" fill="#fff"/>
              <rect id="Rectángulo_304355" data-name="Rectángulo 304355" width="6.368" height="4.622" transform="translate(30.239)" fill="#fff"/>
            </g>
          </g>
          <g id="Grupo_904756" data-name="Grupo 904756" transform="translate(206.529 57.608)">
            <rect id="Rectángulo_304356" data-name="Rectángulo 304356" width="0.805" height="7.869" transform="translate(0.001 0.651) rotate(-54.028)" fill="#e6e6e6"/>
            <rect id="Rectángulo_304357" data-name="Rectángulo 304357" width="7.869" height="0.805" transform="translate(0 4.62) rotate(-35.943)" fill="#e6e6e6"/>
          </g>
          <g id="Grupo_904757" data-name="Grupo 904757" transform="translate(214.089 57.608)">
            <rect id="Rectángulo_304358" data-name="Rectángulo 304358" width="0.805" height="7.869" transform="translate(0.001 0.651) rotate(-54.028)" fill="#e6e6e6"/>
            <rect id="Rectángulo_304359" data-name="Rectángulo 304359" width="7.869" height="0.805" transform="translate(0 4.62) rotate(-35.943)" fill="#e6e6e6"/>
          </g>
          <g id="Grupo_904758" data-name="Grupo 904758" transform="translate(221.649 57.608)">
            <rect id="Rectángulo_304360" data-name="Rectángulo 304360" width="0.805" height="7.869" transform="translate(0.001 0.651) rotate(-54.028)" fill="#e6e6e6"/>
            <rect id="Rectángulo_304361" data-name="Rectángulo 304361" width="7.869" height="0.805" transform="translate(0 4.62) rotate(-35.943)" fill="#e6e6e6"/>
          </g>
          <g id="Grupo_904759" data-name="Grupo 904759" transform="translate(229.209 57.608)">
            <rect id="Rectángulo_304362" data-name="Rectángulo 304362" width="0.805" height="7.869" transform="translate(0.001 0.651) rotate(-54.028)" fill="#e6e6e6"/>
            <rect id="Rectángulo_304363" data-name="Rectángulo 304363" width="7.869" height="0.805" transform="translate(0 4.62) rotate(-35.943)" fill="#e6e6e6"/>
          </g>
          <g id="Grupo_904760" data-name="Grupo 904760" transform="translate(236.768 57.608)">
            <rect id="Rectángulo_304364" data-name="Rectángulo 304364" width="0.805" height="7.869" transform="translate(0.001 0.651) rotate(-54.028)" fill="#e6e6e6"/>
            <rect id="Rectángulo_304365" data-name="Rectángulo 304365" width="7.869" height="0.805" transform="translate(0 4.62) rotate(-35.943)" fill="#e6e6e6"/>
          </g>
          <g id="Grupo_904761" data-name="Grupo 904761" transform="translate(244.328 57.608)">
            <rect id="Rectángulo_304366" data-name="Rectángulo 304366" width="0.805" height="7.869" transform="translate(0.001 0.651) rotate(-54.028)" fill="#e6e6e6"/>
            <rect id="Rectángulo_304367" data-name="Rectángulo 304367" width="7.869" height="0.805" transform="translate(0 4.62) rotate(-35.943)" fill="#e6e6e6"/>
          </g>
          <g id="Grupo_904762" data-name="Grupo 904762" transform="translate(244.328 63.462)">
            <rect id="Rectángulo_304368" data-name="Rectángulo 304368" width="0.805" height="7.869" transform="translate(0.001 0.651) rotate(-54.028)" fill="#e6e6e6"/>
            <rect id="Rectángulo_304369" data-name="Rectángulo 304369" width="7.869" height="0.805" transform="translate(0 4.62) rotate(-35.939)" fill="#e6e6e6"/>
          </g>
          <g id="Grupo_904763" data-name="Grupo 904763" transform="translate(236.768 63.462)">
            <rect id="Rectángulo_304370" data-name="Rectángulo 304370" width="0.805" height="7.869" transform="translate(0.001 0.651) rotate(-54.028)" fill="#e6e6e6"/>
            <rect id="Rectángulo_304371" data-name="Rectángulo 304371" width="7.869" height="0.805" transform="translate(0 4.62) rotate(-35.939)" fill="#e6e6e6"/>
          </g>
          <g id="Grupo_904764" data-name="Grupo 904764" transform="translate(229.208 63.462)">
            <rect id="Rectángulo_304372" data-name="Rectángulo 304372" width="0.805" height="7.869" transform="translate(0.001 0.651) rotate(-54.028)" fill="#e6e6e6"/>
            <rect id="Rectángulo_304373" data-name="Rectángulo 304373" width="7.869" height="0.805" transform="translate(0 4.62) rotate(-35.939)" fill="#e6e6e6"/>
          </g>
          <g id="Grupo_904765" data-name="Grupo 904765" transform="translate(221.649 63.462)">
            <rect id="Rectángulo_304374" data-name="Rectángulo 304374" width="0.805" height="7.869" transform="translate(0.001 0.651) rotate(-54.028)" fill="#e6e6e6"/>
            <rect id="Rectángulo_304375" data-name="Rectángulo 304375" width="7.869" height="0.805" transform="translate(0 4.62) rotate(-35.939)" fill="#e6e6e6"/>
          </g>
          <g id="Grupo_904766" data-name="Grupo 904766" transform="translate(214.089 63.462)">
            <rect id="Rectángulo_304376" data-name="Rectángulo 304376" width="0.805" height="7.869" transform="translate(0.001 0.651) rotate(-54.028)" fill="#e6e6e6"/>
            <rect id="Rectángulo_304377" data-name="Rectángulo 304377" width="7.869" height="0.805" transform="translate(0 4.62) rotate(-35.939)" fill="#e6e6e6"/>
          </g>
          <g id="Grupo_904767" data-name="Grupo 904767" transform="translate(206.529 63.462)">
            <rect id="Rectángulo_304378" data-name="Rectángulo 304378" width="0.805" height="7.869" transform="translate(0.001 0.651) rotate(-54.028)" fill="#e6e6e6"/>
            <rect id="Rectángulo_304379" data-name="Rectángulo 304379" width="7.869" height="0.805" transform="translate(0 4.62) rotate(-35.939)" fill="#e6e6e6"/>
          </g>
          <g id="Grupo_904768" data-name="Grupo 904768" transform="translate(198.969 63.462)">
            <rect id="Rectángulo_304380" data-name="Rectángulo 304380" width="0.805" height="7.869" transform="translate(0.001 0.651) rotate(-54.029)" fill="#e6e6e6"/>
            <rect id="Rectángulo_304381" data-name="Rectángulo 304381" width="7.869" height="0.805" transform="translate(0 4.62) rotate(-35.939)" fill="#e6e6e6"/>
          </g>
          <g id="Grupo_904769" data-name="Grupo 904769" transform="translate(198.97 69.316)">
            <rect id="Rectángulo_304382" data-name="Rectángulo 304382" width="0.805" height="7.869" transform="translate(0 0.652) rotate(-54.026)" fill="#e6e6e6"/>
            <rect id="Rectángulo_304383" data-name="Rectángulo 304383" width="7.869" height="0.805" transform="translate(0 4.624) rotate(-35.986)" fill="#e6e6e6"/>
          </g>
          <g id="Grupo_904770" data-name="Grupo 904770" transform="translate(206.53 69.316)">
            <rect id="Rectángulo_304384" data-name="Rectángulo 304384" width="0.805" height="7.869" transform="translate(0 0.652) rotate(-54.026)" fill="#e6e6e6"/>
            <rect id="Rectángulo_304385" data-name="Rectángulo 304385" width="7.869" height="0.805" transform="translate(0 4.624) rotate(-35.986)" fill="#e6e6e6"/>
          </g>
          <g id="Grupo_904771" data-name="Grupo 904771" transform="translate(214.09 69.316)">
            <rect id="Rectángulo_304386" data-name="Rectángulo 304386" width="0.805" height="7.869" transform="translate(0 0.652) rotate(-54.026)" fill="#e6e6e6"/>
            <rect id="Rectángulo_304387" data-name="Rectángulo 304387" width="7.869" height="0.805" transform="translate(0 4.624) rotate(-35.986)" fill="#e6e6e6"/>
          </g>
          <g id="Grupo_904772" data-name="Grupo 904772" transform="translate(221.65 69.316)">
            <rect id="Rectángulo_304388" data-name="Rectángulo 304388" width="0.805" height="7.869" transform="translate(0 0.652) rotate(-54.026)" fill="#e6e6e6"/>
            <rect id="Rectángulo_304389" data-name="Rectángulo 304389" width="7.869" height="0.805" transform="translate(0 4.624) rotate(-35.986)" fill="#e6e6e6"/>
          </g>
          <g id="Grupo_904773" data-name="Grupo 904773" transform="translate(229.209 69.316)">
            <rect id="Rectángulo_304390" data-name="Rectángulo 304390" width="0.805" height="7.869" transform="matrix(0.587, -0.809, 0.809, 0.587, 0, 0.652)" fill="#e6e6e6"/>
            <rect id="Rectángulo_304391" data-name="Rectángulo 304391" width="7.869" height="0.805" transform="translate(0 4.624) rotate(-35.986)" fill="#e6e6e6"/>
          </g>
          <rect id="Rectángulo_304392" data-name="Rectángulo 304392" width="32.693" height="8.08" transform="translate(211.094 29.139)" fill="#e6e6e6"/>
          <rect id="Rectángulo_304393" data-name="Rectángulo 304393" width="12.773" height="2.164" transform="translate(221.054 24.894)" fill="#e6e6e6"/>
        </g>
      </g>
      <g id="Shadow" transform="translate(35.879 331.775)">
        <ellipse id="_Path_" data-name="&lt;Path&gt;" cx="156" cy="9.111" rx="156" ry="9.111" fill="#f5f5f5"/>
      </g>
      <g id="Speech_bubble" data-name="Speech bubble" transform="translate(154.793 86.923)">
        <g id="Grupo_904776" data-name="Grupo 904776" transform="translate(0 1)">
          <g id="Grupo_904775" data-name="Grupo 904775">
            <path id="Trazado_693125" data-name="Trazado 693125" d="M137,79.07H100.329A12.611,12.611,0,0,0,87.718,91.679v35.643a12.611,12.611,0,0,0,12.611,12.609h24.238l8.7,13.314V139.931h3.74a12.609,12.609,0,0,0,12.609-12.609V91.679A12.61,12.61,0,0,0,137,79.07Z" transform="translate(-87.718 -79.07)" fill="#feca2e"/>
            <path id="Trazado_693126" data-name="Trazado 693126" d="M137,79.07H100.329A12.611,12.611,0,0,0,87.718,91.679v35.643a12.611,12.611,0,0,0,12.611,12.609h24.238l8.7,13.314V139.931h3.74a12.609,12.609,0,0,0,12.609-12.609V91.679A12.61,12.61,0,0,0,137,79.07Z" transform="translate(-87.718 -79.07)" fill="#fff" opacity="0.7"/>
          </g>
          <path id="Trazado_693127" data-name="Trazado 693127" d="M111.606,129.3a19.59,19.59,0,0,1-8.337-1.98c-3.518-1.674-5.869-4.094-6.619-6.759-.272-.13-.541-.272-.8-.431A11.531,11.531,0,0,1,90.7,112.1a23.5,23.5,0,0,1,2.1-13.833,13.288,13.288,0,0,1-.193-3.2A10.986,10.986,0,0,1,97.549,86.2a8.051,8.051,0,0,1,6.058-.8,20.865,20.865,0,0,1,10.049-3.553,15.449,15.449,0,0,1,9.981,2.778A10.689,10.689,0,0,1,133.2,86.5a11.874,11.874,0,0,1,4,7.392,14.628,14.628,0,0,1-.042,4.353,14.167,14.167,0,0,1,3.114,11.6,14.447,14.447,0,0,1-5.7,8.353A5.661,5.661,0,0,1,135,120.74c-.207,2.876-2.615,4.966-4.909,5.762a14.736,14.736,0,0,1-7.454.2,10.361,10.361,0,0,1-5.738,1.637h-.015A14.208,14.208,0,0,1,111.606,129.3Zm-13.783-8.276c1.2,2.92,4.377,4.722,5.858,5.426,4.476,2.129,9.205,2.468,12.893.971a.356.356,0,0,1,.062-.024c.323-.134.639-.281.945-.444a12.013,12.013,0,0,0,1.727-1.114,9.977,9.977,0,0,1-3.235-1.866,8.407,8.407,0,0,1-1.055-1.136,22.274,22.274,0,0,1-7.146-1.261c-.527-.2-1.028-.411-1.505-.646A15.49,15.49,0,0,1,97.823,121.023Zm22.579,5.168a14.069,14.069,0,0,1-1.279.96,8.452,8.452,0,0,0,2.145-.736C120.982,126.348,120.695,126.275,120.4,126.192Zm3.2-.305a12.884,12.884,0,0,0,6.168-.294c2-.692,4.087-2.481,4.265-4.92a4.68,4.68,0,0,0-.277-1.9,18.444,18.444,0,0,1-1.841,1.066,25.066,25.066,0,0,1-6.256,2.116A7.691,7.691,0,0,1,123.606,125.886Zm-2.36-.466c.4.1.791.182,1.167.255a6.528,6.528,0,0,0,2.213-3.525c-.275.048-.549.094-.822.134A19.824,19.824,0,0,1,121.246,125.421Zm-4.949-2.569q.2.211.415.4a9.5,9.5,0,0,0,3.457,1.861,17.375,17.375,0,0,0,2.34-2.655c-1.2.143-2.34.229-3.4.292C118.209,122.806,117.267,122.845,116.3,122.852Zm-.782-.967c1.222.02,2.413-.026,3.542-.092,1.283-.077,2.7-.189,4.18-.4q.643-1,1.253-2.154c.119-.222.233-.446.345-.67a14.445,14.445,0,0,0-1.1-3.731,19.221,19.221,0,0,1-5.072,1.231c-1.538.578-3.048,1.246-4.531,1.9l-.259.114A11.866,11.866,0,0,0,115.515,121.885Zm-7.724-1.376c.136.057.277.11.418.163a20.645,20.645,0,0,0,6.142,1.176,13.312,13.312,0,0,1-1.369-3.369A54.521,54.521,0,0,1,107.791,120.509Zm17.116-.022c-.136.242-.275.479-.413.71.112-.02.226-.04.341-.062l.02-.132C124.876,120.834,124.894,120.661,124.907,120.487Zm.919-1.747a9.763,9.763,0,0,1,.007,2.193,23.918,23.918,0,0,0,5.656-1.951,17.515,17.515,0,0,0,1.866-1.094,6.483,6.483,0,0,0-2.731-2.562,8.789,8.789,0,0,0-3.008-.85A38.591,38.591,0,0,1,125.826,118.74Zm-28.354,1.13a13.176,13.176,0,0,0,7.645.367,10.941,10.941,0,0,1-5.23-7.843c-1.538,2.184-2.771,4.461-2.5,6.951C97.41,119.523,97.439,119.7,97.472,119.87Zm3.248-8.623a10.242,10.242,0,0,0,5.755,8.656,48.769,48.769,0,0,0,6.278-2.375c-.127-.609-.229-1.224-.3-1.841a16.809,16.809,0,0,1-3.347-1.165c-1.474-.7-4.916-2.69-5.037-6.122,0-.116,0-.231,0-.345-.332.009-.67,0-1-.02-.472.69-.973,1.391-1.51,2.105l-.3.4Zm-7.546-11.44a22.05,22.05,0,0,0-1.529,12.123,10.726,10.726,0,0,0,4.694,7.373l.086.051c-.308-3.173,1.54-6,3.415-8.533l0-.007q.323-.435.644-.859l.3-.393q.63-.841,1.2-1.655a10.7,10.7,0,0,1-4.85-2.154A12.127,12.127,0,0,1,93.173,99.807Zm34.755,13.734a9.743,9.743,0,0,1,3.125.923,7.467,7.467,0,0,1,3.083,2.863,13.438,13.438,0,0,0,5.193-7.676,13,13,0,0,0-2.419-10.137,20.578,20.578,0,0,1-1.765,4.733,22.962,22.962,0,0,1-6.845,8.073C128.184,112.732,128.058,113.137,127.929,113.541Zm-14.481,2.349c.057.415.125.831.207,1.239l.088-.037c.71-.314,1.422-.628,2.143-.936A18.4,18.4,0,0,1,113.447,115.89Zm11.194-1.38a17.329,17.329,0,0,1,.888,2.6q.6-1.325,1.086-2.7A14.994,14.994,0,0,0,124.641,114.51Zm-11.3.382a17.823,17.823,0,0,0,5.1.235,28.875,28.875,0,0,1,4.788-1.376,24,24,0,0,0-2.378-3.769,14.912,14.912,0,0,1-7.427.633A20.763,20.763,0,0,0,113.337,114.893Zm-8.3-6.911a3.7,3.7,0,0,0-.007.382c.105,2.986,3.461,4.8,4.487,5.287a15.949,15.949,0,0,0,2.839,1.022,21.808,21.808,0,0,1,.121-4.25,13.962,13.962,0,0,1-2.923-1.046,12.386,12.386,0,0,1-2.712-1.793A9.889,9.889,0,0,1,105.035,107.981Zm16.74,1.635a24.98,24.98,0,0,1,2.446,3.975,19.636,19.636,0,0,0,3.243-1.857,39.045,39.045,0,0,0,1.182-14.905,27.041,27.041,0,0,0-.679-3.736A33.012,33.012,0,0,0,117.513,91.3a43.543,43.543,0,0,0-2.184,5.324l-.112.31a31.119,31.119,0,0,1-2.529,5.639,10.515,10.515,0,0,1,1.984.694c.092-.18.187-.358.286-.536a10.76,10.76,0,0,1,4.588-4.79,5.775,5.775,0,0,1,6.546.809,5.655,5.655,0,0,1,.894,6.131,9.432,9.432,0,0,1-4.428,4.36C122.3,109.377,122.042,109.5,121.776,109.616Zm4.812,3.83c.119,0,.237.007.354.011.033-.092.064-.187.092-.281C126.887,113.269,126.738,113.359,126.588,113.447Zm2.477-19.927a29.288,29.288,0,0,1,.541,3.2,40.079,40.079,0,0,1-.9,14.068,22.167,22.167,0,0,0,5.579-6.979,19.072,19.072,0,0,0,1.846-5.292,15.692,15.692,0,0,0-1.789-1.8A19.827,19.827,0,0,0,129.065,93.52Zm-15.505,16.145a13.941,13.941,0,0,0,6.654-.479,26.513,26.513,0,0,0-3.134-3.206,13.068,13.068,0,0,0-1.971-1.4A20.622,20.622,0,0,0,113.559,109.665Zm-5.7-2.481a11.542,11.542,0,0,0,2.116,1.329,13.114,13.114,0,0,0,2.639.956,21.648,21.648,0,0,1,1.635-5.331,9.247,9.247,0,0,0-2.125-.7,11.167,11.167,0,0,1-3.58,3.388Q108.214,107.022,107.861,107.184Zm7.667-3.472a13.563,13.563,0,0,1,2.178,1.538,27.475,27.475,0,0,1,3.459,3.58c.323-.134.642-.281.952-.442A8.464,8.464,0,0,0,126.1,104.5a4.682,4.682,0,0,0-.694-5.07,4.9,4.9,0,0,0-5.448-.617A9.849,9.849,0,0,0,115.8,103.2C115.706,103.371,115.616,103.54,115.528,103.712ZM103.684,107.1c.171,0,.341,0,.508-.011a5.375,5.375,0,0,1,.73-1.705l-.09-.143Q104.3,106.158,103.684,107.1ZM93.8,98.379A11.385,11.385,0,0,0,97.729,105a9.753,9.753,0,0,0,4.852,2.026c.631-.947,1.2-1.872,1.712-2.784a8.112,8.112,0,0,1-.628-2,9.684,9.684,0,0,1,4.1-9.128,7.6,7.6,0,0,0-1.266-4.753,5.551,5.551,0,0,0-2.725-1.914c-.76.519-1.446,1.044-2.046,1.545A31.041,31.041,0,0,0,93.8,98.379Zm11.748,7.863a4.454,4.454,0,0,0-.321.745c.277-.044.549-.1.82-.171C105.87,106.628,105.7,106.437,105.545,106.241Zm.567-.833a9.638,9.638,0,0,0,.952,1.072,7.836,7.836,0,0,0,1-.488,9.949,9.949,0,0,0,2.967-2.69,6.569,6.569,0,0,0-1.318.059A5.969,5.969,0,0,0,106.112,105.408Zm-.734-1.14c.055.1.112.2.171.3a6.978,6.978,0,0,1,4.028-2.162,7.8,7.8,0,0,1,2.088-.015,28.962,28.962,0,0,0,2.646-5.779l.112-.31a48.994,48.994,0,0,1,2-4.973,15.455,15.455,0,0,0-6.748,1.7,10.087,10.087,0,0,0-.958.593c-.022.439-.068.894-.132,1.365A26.991,26.991,0,0,1,105.378,104.268Zm2.3-9.816a8.593,8.593,0,0,0-3.065,7.623,7.228,7.228,0,0,0,.275,1.066,25.493,25.493,0,0,0,2.74-8.28C107.646,94.724,107.661,94.588,107.677,94.452Zm21.089-2.088a21.036,21.036,0,0,1,6.206,3.626,17.158,17.158,0,0,1,1.338,1.279,13.323,13.323,0,0,0-.066-3.235,10.9,10.9,0,0,0-3.657-6.792,9.655,9.655,0,0,0-8-1.863,12.182,12.182,0,0,1,1.549,1.628A15.327,15.327,0,0,1,128.766,92.364Zm-27.2-6.276a6.946,6.946,0,0,0-3.527.945,10.013,10.013,0,0,0-4.474,8.089,12.526,12.526,0,0,0,0,1.573,31.912,31.912,0,0,1,7.546-9.447c.429-.356.9-.725,1.406-1.1A7.3,7.3,0,0,0,101.566,86.088Zm3.2-.281a6.29,6.29,0,0,1,2.516,1.98,8.16,8.16,0,0,1,1.45,4.678c.158-.1.321-.189.486-.277a16.777,16.777,0,0,1,7.718-1.839,13.011,13.011,0,0,1,3.378-4.072,9.591,9.591,0,0,1,2.2-1.264,14.585,14.585,0,0,0-8.79-2.206A19.616,19.616,0,0,0,104.761,85.807Zm13.286,4.542q1.348.026,2.819.187a32.591,32.591,0,0,1,6.768,1.424,13.881,13.881,0,0,0-2.257-4.358,11.538,11.538,0,0,0-1.929-1.916,8.776,8.776,0,0,0-2.553,1.354A11.639,11.639,0,0,0,118.047,90.349Z" transform="translate(-84.515 -75.784)" fill="#263238"/>
        </g>
      </g>
      <g id="Character" transform="translate(164.466 156.577)">
        <g id="Grupo_904782" data-name="Grupo 904782">
          <path id="Trazado_693128" data-name="Trazado 693128" d="M151.8,199.7c-20.149-4.786-43.231-15.65-54.653-33.795a17.39,17.39,0,0,1-2.215-4.777c-4.478-17.852,20.177-28.383,33.263-33.461a136.3,136.3,0,0,1,14.27-4.494l3.347,9.065c-8.054,4.4-31.725,16.817-34.256,24.684.092-.031.132-.477.086-.8a1.215,1.215,0,0,0-.053-.264c.007-.022.02-.033.007-.053,9.783,12.978,27.868,19.942,43.073,24.475l1.4.38L151.8,199.7Z" transform="translate(-94.395 -96.914)" fill="#ebc0bb"/>
          <path id="Trazado_693129" data-name="Trazado 693129" d="M138.456,188.64l-5.045-3.024-3.114-1.868-25.045-15,5.076-26.679s14.644,8.979,22.15,11.521c0,0,4.593,4.311,6.1,13a31.531,31.531,0,0,1,.442,4.118c.033.822.066,1.617.081,2.391A93.142,93.142,0,0,1,138.456,188.64Z" transform="translate(-81.394 -74.29)" fill="#4dd0e1"/>
          <path id="Trazado_693130" data-name="Trazado 693130" d="M123.111,171.73l-5.045-3.024a36,36,0,0,1,5.689-12.519A93.144,93.144,0,0,1,123.111,171.73Z" transform="translate(-66.049 -57.379)" opacity="0.2"/>
          <path id="Trazado_693131" data-name="Trazado 693131" d="M121.055,119.768a.2.2,0,0,1-.2-.176c-.007-.042-.569-4.235-3.327-5.808a.2.2,0,0,1,.2-.349c2.931,1.674,3.5,5.927,3.525,6.107a.2.2,0,0,1-.174.224Z" transform="translate(-66.812 -108.606)" fill="#263238"/>
          <path id="Trazado_693132" data-name="Trazado 693132" d="M200.944,243.994a327.74,327.74,0,0,0-4.406-64.79c-.844-5.03-1.745-9.623-2.637-13.752a208.548,208.548,0,0,0-6.381-23.823s-22.23,16.123-40.044,16.123a126.225,126.225,0,0,1-29.833-3.643c6.764,32.305,7.832,71,7.907,89.885Z" transform="translate(-66.557 -74.812)" fill="#4dd0e1"/>
          <g id="Grupo_904777" data-name="Grupo 904777" transform="translate(44.013 7.648)">
            <path id="Trazado_693133" data-name="Trazado 693133" d="M114.85,133.654l-.426-14.824,13.609,4.217s-1.822,13.969-6.219,14.275Z" transform="translate(-114.424 -109.761)" fill="#eec1bb"/>
            <path id="Trazado_693134" data-name="Trazado 693134" d="M124.107,114.7l8.7,5.389-4.773,7.9-13.61-4.218Z" transform="translate(-114.424 -114.703)" fill="#eec1bb"/>
          </g>
          <g id="Grupo_904778" data-name="Grupo 904778" transform="translate(66.739 47.558)">
            <path id="Trazado_693135" data-name="Trazado 693135" d="M128.59,149.174c1.859-1.532,21.159-6.748,23.68-5.911s-7.41,18.966-17.066,15.622S126.425,150.957,128.59,149.174Z" transform="translate(-121.869 -120.522)" fill="#4dd0e1"/>
            <path id="Trazado_693136" data-name="Trazado 693136" d="M155.979,159.955s-.305,7.885-16.147,12.036a18.718,18.718,0,0,0-3.6,5.648,19.861,19.861,0,0,1-1.85-4.489c-14.837,2.367-6.614-6.516-6.614-6.516,5.037-2.567,6.9-5.753,7.074-9.172a15.246,15.246,0,0,0-1-5.738,34.833,34.833,0,0,0-1.674-4.024l2.342-3.153,12.148-11.682a86.583,86.583,0,0,0,1.264,10.926C149.246,150.774,151.668,157.365,155.979,159.955Z" transform="translate(-123.889 -132.865)" fill="#eec1bb"/>
            <path id="Trazado_693137" data-name="Trazado 693137" d="M144.289,143.791c-2.31,5.439-7.691,10.708-13.082,13.67a15.246,15.246,0,0,0-1-5.738,34.835,34.835,0,0,0-1.674-4.024l2.342-3.153,12.148-11.682A86.578,86.578,0,0,0,144.289,143.791Z" transform="translate(-120.252 -132.865)" opacity="0.2"/>
            <path id="Trazado_693138" data-name="Trazado 693138" d="M132.021,159.6l6.568,6.428s13.438-6.992,15.954-17.589l-8.065-5.223S143.848,153.287,132.021,159.6Z" transform="translate(-116.077 -120.472)" fill="#4dd0e1"/>
            <path id="Trazado_693139" data-name="Trazado 693139" d="M135.26,157.535l-8.309,7.79s-2.879-7.939-2.028-13.928l6.564-5.494S130.906,152.83,135.26,157.535Z" transform="translate(-124.766 -117.251)" fill="#4dd0e1"/>
            <path id="Trazado_693140" data-name="Trazado 693140" d="M132.021,159.6l6.568,6.428s13.438-6.992,15.954-17.589l-8.065-5.223S143.848,153.287,132.021,159.6Z" transform="translate(-116.077 -120.472)" fill="#fff" opacity="0.2"/>
            <path id="Trazado_693141" data-name="Trazado 693141" d="M135.26,157.535l-8.309,7.79s-2.879-7.939-2.028-13.928l6.564-5.494S130.906,152.83,135.26,157.535Z" transform="translate(-124.765 -117.251)" fill="#fff" opacity="0.2"/>
          </g>
          <g id="Grupo_904780" data-name="Grupo 904780" transform="translate(49.743 4.038)">
            <path id="Trazado_693142" data-name="Trazado 693142" d="M122.876,122.663c-5.461,4.318-4.56,22.511,4.206,24.282S133.218,114.481,122.876,122.663Z" transform="translate(-114.11 -103.077)" fill="#263238"/>
            <path id="Trazado_693143" data-name="Trazado 693143" d="M155.43,136.371c.389,12.8,1.266,20.25-4.522,27.58-8.706,11.027-24.851,7.19-29.035-5.1-3.764-11.066-3.769-30.14,8.144-36.768A16.846,16.846,0,0,1,155.43,136.371Z" transform="translate(-113.897 -105.042)" fill="#eec1bb"/>
            <path id="Trazado_693144" data-name="Trazado 693144" d="M132.53,128.805c-1.318,7.313,3.615,17.083,7.616,17.98,4.843,2.288,10.642-6.133,11.444-10.458.716-3.876-.363-12.29-2.852-15.505Z" transform="translate(-98.734 -103.766)" fill="#263238"/>
            <path id="Trazado_693145" data-name="Trazado 693145" d="M144.75,136.948a13.742,13.742,0,0,1-6.562,6.507c-3.665,1.609-5.412-1.723-4.322-5.634.982-3.523,4.072-8.6,7.718-8.55C145.174,129.321,146.488,133.347,144.75,136.948Z" transform="translate(-97.257 -93.65)" fill="#eec1bb"/>
            <path id="Trazado_693146" data-name="Trazado 693146" d="M126,130.733S124.2,137,121.891,140.2c1.98,1.477,5.006.3,5.006.3Z" transform="translate(-111.212 -91.898)" fill="#d4827d"/>
            <path id="Trazado_693147" data-name="Trazado 693147" d="M126.971,127.247a.608.608,0,0,0-.275,1.013,5.849,5.849,0,0,0,5.21,1.776.6.6,0,0,0,.464-.725.608.608,0,0,0-.725-.464,4.639,4.639,0,0,1-4.076-1.437A.609.609,0,0,0,126.971,127.247Z" transform="translate(-105.666 -96.099)" fill="#263238"/>
            <path id="Trazado_693148" data-name="Trazado 693148" d="M124.879,127.283a.6.6,0,0,0-.51.255,5.1,5.1,0,0,1-3.9,2.241.61.61,0,0,0-.024,1.22h0a6.294,6.294,0,0,0,4.916-2.751.611.611,0,0,0-.141-.85A.6.6,0,0,0,124.879,127.283Z" transform="translate(-113.662 -96.029)" fill="#263238"/>
            <path id="Trazado_693149" data-name="Trazado 693149" d="M129.684,131.764a.3.3,0,0,1-.224-.1c-.378-.415-1.633-.42-2.336-.323a.29.29,0,0,1-.308-.156.3.3,0,0,1,.042-.343,3.531,3.531,0,0,1,2.672-1.316.3.3,0,0,1,.283.319.308.308,0,0,1-.316.283,2.7,2.7,0,0,0-1.571.558,2.781,2.781,0,0,1,1.98.574.3.3,0,0,1-.02.424A.305.305,0,0,1,129.684,131.764Z" transform="translate(-105.357 -93.346)" fill="#263238"/>
            <path id="Trazado_693150" data-name="Trazado 693150" d="M121.226,132.533a.287.287,0,0,1-.152-.042.3.3,0,0,1-.11-.411,2.791,2.791,0,0,1,1.82-.969,2.709,2.709,0,0,0-1.65-.222.3.3,0,0,1-.158-.582,3.568,3.568,0,0,1,2.887.736.3.3,0,0,1-.156.545c-.708.051-1.936.31-2.222.8A.3.3,0,0,1,121.226,132.533Z" transform="translate(-112.573 -92.484)" fill="#263238"/>
            <g id="Grupo_904779" data-name="Grupo 904779" transform="translate(17.152 48.126)">
              <path id="Trazado_693151" data-name="Trazado 693151" d="M136.585,137.532v.007a2.427,2.427,0,0,1-2,2.092,40.317,40.317,0,0,0-7.241,3.131l-.066-.114-.007-.024a9.478,9.478,0,0,0-2-2.606,1.279,1.279,0,0,0-.435-.233s.009-.015.033-.048c.378-.514,3.782-5.028,9.221-4.764a2.741,2.741,0,0,1,1.576.556A2.318,2.318,0,0,1,136.585,137.532Z" transform="translate(-124.837 -134.961)" fill="#fff"/>
              <path id="Trazado_693152" data-name="Trazado 693152" d="M124.87,137.134l.4.281a1.279,1.279,0,0,0-.435-.233S124.846,137.167,124.87,137.134Z" transform="translate(-124.837 -132.359)" opacity="0.2"/>
              <path id="Trazado_693153" data-name="Trazado 693153" d="M136,136.821a20.554,20.554,0,0,0-3.846.82l.1.653-.387-.556a18.265,18.265,0,0,0-3.024,1.312l.224.538-.433-.418a15.386,15.386,0,0,0-2.285,1.584l.692,1.56a9.478,9.478,0,0,0-2-2.606l1.079.741a9.611,9.611,0,0,1,2.074-1.69v-.009l-.378-.892.716.692a15.489,15.489,0,0,1,3.008-1.36l-.3-.8.828.617a19.6,19.6,0,0,1,3.556-.7l-.193-1.094a2.318,2.318,0,0,1,.919,2Z" transform="translate(-124.6 -134.652)" opacity="0.1"/>
            </g>
            <path id="Trazado_693154" data-name="Trazado 693154" d="M169,142.64s9.234-11.915-.622-15.817c0,0-2.562-8.526-7.287-10.581s-8.526,2.773-8.526,2.773a10.21,10.21,0,0,0-9.757-5.944c-7.19.3-8.19,6.254-8.19,6.254s-5.522-2.362-10.273.822a5.571,5.571,0,0,0-1.954,7.7s-7.111,3.9-4.953,8.834,8.073,2.569,8.073,2.569-.158,2.773,3.331,2.874,9.122-3.8,9.122-3.8a6.011,6.011,0,0,0,4.74,2.263,11.647,11.647,0,0,0,6.331-2.16,8.67,8.67,0,0,0,5.483,4.85C158.565,144.389,169,142.64,169,142.64Z" transform="translate(-117.031 -113.06)" fill="#263238"/>
          </g>
          <g id="Grupo_904781" data-name="Grupo 904781" transform="translate(84.943)">
            <path id="Trazado_693155" data-name="Trazado 693155" d="M152.747,127.088l-5.428-13.8-10.86,9.223s7.159,12.13,11.324,10.684Z" transform="translate(-128.967 -108.749)" fill="#eec1bb"/>
            <path id="Trazado_693156" data-name="Trazado 693156" d="M138.934,111.223,133.05,119.6l7.491,5.389,10.861-9.223Z" transform="translate(-133.05 -111.223)" fill="#eec1bb"/>
          </g>
          <path id="Trazado_693157" data-name="Trazado 693157" d="M128.36,123.034l-.04,0a.2.2,0,0,1-.158-.235,6.953,6.953,0,0,0-2.764-6.674,2.727,2.727,0,0,1-1.338,1.927,1.025,1.025,0,0,1-1.466-.1,1.978,1.978,0,0,1,.143-2.386c.262-.286.967-.8,2.281-.136a4.746,4.746,0,0,0-1.721-3.015.2.2,0,1,1,.257-.308,5.02,5.02,0,0,1,1.877,3.56c.062.04.125.081.189.125a7.364,7.364,0,0,1,2.938,7.087A.2.2,0,0,1,128.36,123.034Zm-4.533-7.54a1.034,1.034,0,0,0-.793.334,1.593,1.593,0,0,0-.13,1.861c.27.33.664.189.945.015a2.288,2.288,0,0,0,1.171-1.824A2.471,2.471,0,0,0,123.827,115.495Z" transform="translate(-61.029 -110.229)" fill="#263238"/>
          <path id="Trazado_693158" data-name="Trazado 693158" d="M125.177,124a9.689,9.689,0,0,1-9.328-6.869.2.2,0,1,1,.382-.125,9.328,9.328,0,0,0,9.141,6.59.19.19,0,0,1,.215.187.2.2,0,0,1-.189.213C125.392,124,125.315,124,125.177,124Z" transform="translate(-68.717 -104.465)" fill="#263238"/>
          <path id="Trazado_693159" data-name="Trazado 693159" d="M117.14,130.136a.2.2,0,0,1-.035-.4c4.325-.813,6.759-5.379,6.784-5.426a.2.2,0,0,1,.358.187c-.1.2-2.549,4.784-7.069,5.632Z" transform="translate(-67.397 -95.677)" fill="#263238"/>
          <path id="Trazado_693160" data-name="Trazado 693160" d="M141.339,116.935a1.816,1.816,0,0,1-.719-.149,2.208,2.208,0,0,1-1.209-1.521,8.223,8.223,0,0,0-1.927,1.523.2.2,0,0,1-.283.015.2.2,0,0,1-.015-.286,8.414,8.414,0,0,1,2.136-1.661,6.992,6.992,0,0,1,.174-2.633.2.2,0,0,1,.393.088,6.808,6.808,0,0,0-.176,2.371,2.915,2.915,0,0,1,.989-.213,1.952,1.952,0,0,1,1.488.6,1.027,1.027,0,0,1,.268,1.345A1.329,1.329,0,0,1,141.339,116.935Zm-1.551-1.848a1.837,1.837,0,0,0,1,1.329,1.142,1.142,0,0,0,1.343-.224c.16-.233.081-.53-.222-.835a1.552,1.552,0,0,0-1.191-.486A2.576,2.576,0,0,0,139.787,115.087Z" transform="translate(-43.217 -110.212)" fill="#263238"/>
          <path id="Trazado_693161" data-name="Trazado 693161" d="M133.623,122.041a.2.2,0,0,1-.187-.125c-.018-.044-1.745-4.4,2.4-9.37a.2.2,0,0,1,.281-.026.2.2,0,0,1,.026.283c-3.975,4.771-2.347,8.92-2.332,8.961a.2.2,0,0,1-.11.262A.182.182,0,0,1,133.623,122.041Z" transform="translate(-48.09 -109.725)" fill="#263238"/>
          <path id="Trazado_693162" data-name="Trazado 693162" d="M145.976,130.459a.2.2,0,0,1-.2-.163c-.686-3.437-5.507-4.744-5.557-4.758a.2.2,0,0,1-.143-.246.2.2,0,0,1,.246-.143c.209.055,5.113,1.382,5.847,5.07a.2.2,0,0,1-.158.235Z" transform="translate(-39.697 -94.554)" fill="#263238"/>
          <path id="Trazado_693163" data-name="Trazado 693163" d="M158.946,166.668c-8.858-3.846-9.911-14.338-9.911-14.338a14.226,14.226,0,0,1,7.274.587C157.2,157.045,158.1,161.638,158.946,166.668Z" transform="translate(-28.965 -62.276)" opacity="0.2"/>
          <path id="Trazado_693164" data-name="Trazado 693164" d="M151.47,177.126c12.488-10.086,27.251-24.35,31.143-40.321.062.277.286.982.475,1,.095.011-.075-.275-.464-.617-8.724-6.118-29.49-7.441-40.734-8.634l-.481-9.649c14.154-2.015,32.777-3.083,46.342,2.18,8.638,3.476,14.1,10.568,11.93,20.414-3.766,19.968-18.254,36.57-33.5,48.968L164.6,191.68l-.813.606-.921.668-11.4-15.828Z" transform="translate(-38.098 -104.002)" fill="#ebc0bb"/>
          <path id="Trazado_693165" data-name="Trazado 693165" d="M144.926,158.42s19.056-15.686,25.836-25.607l15.611,19.375L162.8,184.572s-8.673-1.967-13.6-9.741A29.619,29.619,0,0,1,144.926,158.42Z" transform="translate(-33.921 -85.369)" fill="#4dd0e1"/>
        </g>
      </g>
      <g id="Lamp" transform="translate(55.309 188.512)">
        <g id="Grupo_904790" data-name="Grupo 904790">
          <g id="Grupo_904783" data-name="Grupo 904783" transform="translate(17.917 13.89)">
            <path id="Trazado_693166" data-name="Trazado 693166" d="M53.141,244.7c-2.255-42.879,10.216-71.145,21.074-87.305,11.86-17.654,24.205-25.012,24.724-25.317l2.848,4.859-1.424-2.428,1.428,2.426c-.119.07-11.941,7.17-23.087,23.876-10.291,15.422-22.1,42.444-19.938,83.6Z" transform="translate(-52.875 -132.076)" fill="#4dd0e1"/>
          </g>
          <g id="Grupo_904784" data-name="Grupo 904784" transform="translate(17.917 13.883)" opacity="0.2">
            <path id="Trazado_693167" data-name="Trazado 693167" d="M53.141,244.7c-2.255-42.879,10.216-71.145,21.074-87.305,11.86-17.654,24.205-25.012,24.724-25.317l2.848,4.859-1.424-2.428,1.428,2.426c-.119.07-11.941,7.17-23.087,23.876-10.291,15.422-22.1,42.444-19.938,83.6Z" transform="translate(-52.875 -132.076)"/>
          </g>
          <g id="Grupo_904788" data-name="Grupo 904788" transform="translate(17.916 13.883)" opacity="0.2">
            <g id="Grupo_904785" data-name="Grupo 904785" transform="translate(45.646)">
              <path id="Trazado_693168" data-name="Trazado 693168" d="M76.657,137.1l-3.011-4.762c.283-.178.433-.264.433-.264l2.824,4.872L75.49,134.51l1.42,2.433C76.887,136.954,76.8,137.006,76.657,137.1Z" transform="translate(-73.646 -132.073)"/>
            </g>
            <g id="Grupo_904786" data-name="Grupo 904786" transform="translate(0 3.228)">
              <path id="Trazado_693169" data-name="Trazado 693169" d="M52.933,237.616l-.018-.82,5.63-.116.02.789Zm-.059-5.72.007-.815,5.632.048-.007.793Zm5.746-5.52-5.63-.2.033-.822,5.626.231Zm.292-5.524-5.619-.393.059-.815,5.617.42Zm.481-5.516-5.6-.582.086-.817,5.6.62Zm.675-5.485-5.577-.789.119-.813,5.571.824Zm.879-5.454-5.542-1,.149-.806,5.535,1.031Zm1.092-5.41-5.5-1.217.18-.8,5.491,1.253Zm1.305-5.36L57.9,192.188l.213-.8,5.434,1.483Zm1.529-5.291L59.5,186.659l.248-.785,5.364,1.712Zm1.758-5.212L61.339,181.2l.281-.769,5.283,1.954Zm1.993-5.131-5.2-2.158.319-.762,5.186,2.2Zm2.228-5.026-5.094-2.4.356-.747,5.076,2.441Zm2.468-4.909-4.971-2.65.393-.73,4.947,2.692Zm2.705-4.775-4.828-2.9.429-.705,4.806,2.936Zm2.942-4.623L74.306,155.5l.459-.675L79.415,158Zm3.184-4.463-4.487-3.4.5-.655,4.467,3.43Zm3.424-4.283-4.3-3.637.538-.631,4.265,3.676Zm3.654-4.07-4.081-3.883c.193-.2.387-.4.578-.6l4.041,3.922Zm3.881-3.832-3.821-4.136.611-.56,3.786,4.169Zm4.116-3.551-3.518-4.4c.224-.18.444-.354.657-.521l3.468,4.439C97.636,138.135,97.434,138.3,97.228,138.46Z" transform="translate(-52.874 -133.542)"/>
            </g>
            <g id="Grupo_904787" data-name="Grupo 904787" transform="translate(0.248 111.947)">
              <path id="Trazado_693170" data-name="Trazado 693170" d="M53.008,183.7l-.021-.417,5.626-.265.018.357Z" transform="translate(-52.987 -183.017)"/>
            </g>
          </g>
          <g id="Grupo_904789" data-name="Grupo 904789" transform="translate(58.355)">
            <path id="Trazado_693171" data-name="Trazado 693171" d="M86.7,126.719a11.008,11.008,0,0,0-15.424,9.7L77.325,149.7l9.363-5.887,9.363-5.887Z" transform="translate(-71.276 -125.755)" fill="#4dd0e1"/>
            <path id="Trazado_693172" data-name="Trazado 693172" d="M86.7,126.719a11.008,11.008,0,0,0-15.424,9.7L77.325,149.7l9.363-5.887,9.363-5.887Z" transform="translate(-72.276 -127.039)" fill="#fff" opacity="0.2"/>
            <path id="Trazado_693173" data-name="Trazado 693173" d="M103,136.137c-2.459-3.912-7.164-5.116-8.476-5.384l-.062-.013c-.187-.037-.3-.053-.3-.053l-.022.007c-2.813-.418-7.379.94-11.888,3.775s-7.713,6.359-8.555,9.076l-.018.018s-.033.105-.079.29l-.015.062c-.327,1.3-1.281,6.058,1.178,9.972h0c2.013,3.2,9.966,1.826,17.762-3.074S105.012,139.34,103,136.139Z" transform="translate(-69.056 -119.931)" fill="#4dd0e1"/>
            <path id="Trazado_693174" data-name="Trazado 693174" d="M74.129,151.82c2.013,3.2,9.966,1.826,17.762-3.074s12.484-11.471,10.471-14.673S92.4,132.247,84.6,137.147,72.116,148.618,74.129,151.82Z" transform="translate(-68.419 -117.865)" fill="#fff" opacity="0.2"/>
            <path id="Trazado_693175" data-name="Trazado 693175" d="M101.323,134.052c1.738,2.767-2.892,8.794-10.337,13.475S76.1,153.766,74.362,151c-1.044-1.663.224-4.514,3.033-7.544a39.285,39.285,0,0,1,15.817-9.941C97.16,132.3,100.279,132.391,101.323,134.052Z" transform="translate(-68.016 -117.449)" opacity="0.2"/>
            <path id="Trazado_693176" data-name="Trazado 693176" d="M91.526,133.315a9.349,9.349,0,1,1-15.831,9.95c-.051-.081-.105-.169-.152-.257a39.286,39.286,0,0,1,15.817-9.941A2.707,2.707,0,0,1,91.526,133.315Z" transform="translate(-66.166 -117)" fill="#fff"/>
          </g>
          <path id="Trazado_693177" data-name="Trazado 693177" d="M86.842,193.366V188a5.158,5.158,0,0,0-5.157-5.157H49.878A5.158,5.158,0,0,0,44.721,188v5.366Z" transform="translate(-44.721 -57.396)" fill="#4dd0e1"/>
          <rect id="Rectángulo_304394" data-name="Rectángulo 304394" width="42.12" height="2.773" transform="translate(0.001 133.197)"/>
          <path id="Trazado_693178" data-name="Trazado 693178" d="M44.721,186.169v4.856H86.842v-4.856a1.374,1.374,0,0,0-1.376-1.373H46.1A1.374,1.374,0,0,0,44.721,186.169Z" transform="translate(-44.721 -55.056)" opacity="0.2" style="isolation: isolate"/>
        </g>
      </g>
      <g id="Mugs" transform="translate(55.721 284.405)">
        <g id="Grupo_904800" data-name="Grupo 904800">
          <g id="Grupo_904793" data-name="Grupo 904793">
            <g id="Grupo_904791" data-name="Grupo 904791" transform="translate(0 0.831)">
              <path id="Trazado_693179" data-name="Trazado 693179" d="M44.925,174.75a7.473,7.473,0,0,0,6.92,7.933l1.079.064.226.018.53.031.033-.418.112-1.657-1.705-.114-.13-.015a5.369,5.369,0,0,1-4.973-5.7l.13-1.947A1.182,1.182,0,0,1,48.4,171.87l2.125.145,2.591.178.145-2.092-2.848-.193-1.868-.13a3.265,3.265,0,0,0-3.476,3.041Z" transform="translate(-44.908 -169.771)" fill="#feca2e"/>
            </g>
            <g id="Grupo_904792" data-name="Grupo 904792" transform="translate(0 0.831)" opacity="0.5" style="isolation: isolate">
              <path id="Trazado_693180" data-name="Trazado 693180" d="M44.925,174.75a7.473,7.473,0,0,0,6.92,7.933l1.079.064.226.018.53.031.033-.418.112-1.657-1.705-.114-.13-.015a5.369,5.369,0,0,1-4.973-5.7l.13-1.947A1.182,1.182,0,0,1,48.4,171.87l2.125.145,2.591.178.145-2.092-2.848-.193-1.868-.13a3.265,3.265,0,0,0-3.476,3.041Z" transform="translate(-44.908 -169.771)" fill="#fff"/>
            </g>
            <path id="Trazado_693181" data-name="Trazado 693181" d="M47.4,169.393v.193c0,.257.015.516.033.773.015.723.046,1.431.112,2.107a32.9,32.9,0,0,0,1.593,8.592,13.012,13.012,0,0,0,.98,2.061l.051.1a4.088,4.088,0,0,0,1.945,1.8h.018a1.9,1.9,0,0,0,.6.127l9.623.659c1.3.1,2.606-1,3.764-2.991a22.253,22.253,0,0,0,1.723-3.8,47.2,47.2,0,0,0,1.914-7.9l.033-.178Z" transform="translate(-41.926 -169.393)" fill="#feca2e"/>
            <path id="Trazado_693182" data-name="Trazado 693182" d="M47.4,169.393v.193c0,.257.015.516.033.773.015.723.046,1.431.112,2.107a32.9,32.9,0,0,0,1.593,8.592,13.012,13.012,0,0,0,.98,2.061l.051.1a4.088,4.088,0,0,0,1.945,1.8h.018a1.9,1.9,0,0,0,.6.127l9.623.659c1.3.1,2.606-1,3.764-2.991a22.253,22.253,0,0,0,1.723-3.8,47.2,47.2,0,0,0,1.914-7.9l.033-.178Z" transform="translate(-41.926 -169.393)" fill="#fff" opacity="0.6" style="isolation: isolate"/>
          </g>
          <path id="Trazado_693183" data-name="Trazado 693183" d="M48.556,177.956l.226.018a4.088,4.088,0,0,0,1.945,1.8h.018c3.894-.387,9.671-1.384,13.983-2.2a22.253,22.253,0,0,0,1.723-3.8c-3.25.354-11.827,1.481-17.105,3.815-.209.1-.42.176-.613.29A.887.887,0,0,0,48.556,177.956Z" transform="translate(-40.541 -164.149)" opacity="0.1"/>
          <g id="Grupo_904796" data-name="Grupo 904796" transform="translate(5.181 10.706)">
            <g id="Grupo_904794" data-name="Grupo 904794" transform="translate(19.401 0.633)">
              <path id="Trazado_693184" data-name="Trazado 693184" d="M58.585,187.722l-1.82.283-.323-2.068,1.82-.283a5.348,5.348,0,0,0,4.456-6.1l-.3-1.918a1.169,1.169,0,0,0-1.334-.974l-4.667.727L56.1,175.32l4.667-.727a3.265,3.265,0,0,1,3.725,2.72l.3,1.916A7.446,7.446,0,0,1,58.585,187.722Z" transform="translate(-56.095 -174.553)" fill="#4dd0e1"/>
            </g>
            <g id="Grupo_904795" data-name="Grupo 904795" transform="translate(19.408 0.634)" opacity="0.5" style="isolation: isolate">
              <path id="Trazado_693185" data-name="Trazado 693185" d="M62.71,179.552a5.346,5.346,0,0,1-4.456,6.1l-.145.015-1.674.272.211,1.384.112.677.514-.081,1.3-.193a.489.489,0,0,0,.145-.031,7.457,7.457,0,0,0,6.067-8.465l-.305-1.916a3.244,3.244,0,0,0-3.718-2.718l-1.85.29-2.815.435.321,2.059,2.558-.4,2.11-.323a1.175,1.175,0,0,1,1.334.982Z" transform="translate(-56.098 -174.555)" fill="#fff"/>
            </g>
            <path id="Trazado_693186" data-name="Trazado 693186" d="M65.483,190.414,55.946,191.9c-2.94.459-6.474-5.274-8.636-14.007l-.044-.174,22.166-3.457.013.18C70.043,183.422,68.421,189.957,65.483,190.414Z" transform="translate(-47.266 -174.265)" fill="#4dd0e1"/>
            <path id="Trazado_693187" data-name="Trazado 693187" d="M47.267,177.727l.048.16a42.82,42.82,0,0,0,3.072,8.755c1.787,3.54,3.782,5.535,5.551,5.261l9.544-1.5a3.448,3.448,0,0,0,2.364-2.14,3.666,3.666,0,0,0,.209-.45,11.246,11.246,0,0,0,.628-1.8,32.45,32.45,0,0,0,.868-8.689c0-.677-.031-1.369-.064-2.092-.015-.257-.031-.516-.048-.789l-.015-.178Z" transform="translate(-47.267 -174.266)" fill="#fff" opacity="0.6" style="isolation: isolate"/>
          </g>
          <path id="Trazado_693188" data-name="Trazado 693188" d="M48.687,179.991c1.787,3.54,3.782,5.535,5.551,5.261l9.544-1.5a3.448,3.448,0,0,0,2.364-2.14l1.3-.193a.489.489,0,0,0,.145-.031c-.387-.081-.789-.145-1.239-.226-.272-.048-.547-.1-.835-.145C60.964,180.279,54.207,179.459,48.687,179.991Z" transform="translate(-40.384 -156.906)" opacity="0.1"/>
          <g id="Grupo_904799" data-name="Grupo 904799" transform="translate(2.082 24.497)">
            <g id="Grupo_904797" data-name="Grupo 904797" transform="translate(0 0.958)">
              <path id="Trazado_693189" data-name="Trazado 693189" d="M53.292,193.615h1.841V191.52H53.292a5.348,5.348,0,0,1-5.344-5.342v-1.94a1.169,1.169,0,0,1,1.169-1.167h4.722v-2.094H49.117a3.266,3.266,0,0,0-3.261,3.261v1.94A7.444,7.444,0,0,0,53.292,193.615Z" transform="translate(-45.856 -180.977)" fill="#feca2e"/>
            </g>
            <g id="Grupo_904798" data-name="Grupo 904798" transform="translate(0 0.958)" opacity="0.5" style="isolation: isolate">
              <path id="Trazado_693190" data-name="Trazado 693190" d="M53.292,193.615h1.841V191.52H53.292a5.348,5.348,0,0,1-5.344-5.342v-1.94a1.169,1.169,0,0,1,1.169-1.167h4.722v-2.094H49.117a3.266,3.266,0,0,0-3.261,3.261v1.94A7.444,7.444,0,0,0,53.292,193.615Z" transform="translate(-45.856 -180.977)" fill="#fff"/>
            </g>
            <path id="Trazado_693191" data-name="Trazado 693191" d="M54.54,195.89h9.651c2.975,0,5.584-6.208,6.375-15.169l.018-.18H48.148l.015.18C48.957,189.682,51.565,195.89,54.54,195.89Z" transform="translate(-43.111 -180.541)" fill="#feca2e"/>
            <path id="Trazado_693192" data-name="Trazado 693192" d="M54.54,195.89h9.651c2.975,0,5.584-6.208,6.375-15.169l.018-.18H48.148l.015.18C48.957,189.682,51.565,195.89,54.54,195.89Z" transform="translate(-43.111 -180.541)" fill="#fff" opacity="0.6" style="isolation: isolate"/>
          </g>
          <path id="Trazado_693193" data-name="Trazado 693193" d="M51.876,169.7c.956.066.712,3.345,1.354,3.9s.872-2.945,1.672-2.705,1.7.919,2.483-.815Z" transform="translate(-36.565 -169.023)" opacity="0.4"/>
          <path id="Trazado_693194" data-name="Trazado 693194" d="M47.678,176.027s.475,3.34,1.033,3.382.121-2.824.9-2.586,1.7-1.3,1.7-1.3Z" transform="translate(-41.592 -162.057)" opacity="0.4"/>
        </g>
      </g>
      <g id="Device" transform="translate(87.415 269.407)">
        <g id="Grupo_904801" data-name="Grupo 904801">
          <path id="Trazado_693195" data-name="Trazado 693195" d="M66.186,184.8v4.483c0,1.151,1.354,1.622,2.49,1.622h89.608c1.151,0,2.536-.47,2.536-1.622V184.8Z" transform="translate(-51.123 -135.951)" fill="#263238"/>
          <path id="Trazado_693196" data-name="Trazado 693196" d="M66.186,184.8v4.483c0,1.151,1.354,1.622,2.49,1.622h89.608c1.151,0,2.536-.47,2.536-1.622V184.8Z" transform="translate(-51.123 -135.951)" fill="#fff" opacity="0.4" style="isolation: isolate"/>
          <path id="Trazado_693197" data-name="Trazado 693197" d="M66.186,184.8v4.483c0,1.151,1.354,1.622,2.49,1.622h59.1c1.149,0,2.514-.47,2.514-1.622V184.8Z" transform="translate(-51.123 -135.951)" opacity="0.2" style="isolation: isolate"/>
          <path id="Trazado_693198" data-name="Trazado 693198" d="M59.4,164.858l10.667,48.384a3.627,3.627,0,0,0,3.465,2.749H131.8a2.349,2.349,0,0,0,2.191-3.039l-10.656-48.017a3.325,3.325,0,0,0-3.461-2.367H61.6C60.038,162.568,59.054,163.276,59.4,164.858Z" transform="translate(-59.331 -162.568)" fill="#263238"/>
          <path id="Trazado_693199" data-name="Trazado 693199" d="M59.4,164.858l10.667,48.384a3.627,3.627,0,0,0,3.465,2.749h56.288a2.357,2.357,0,0,0,2.2-3.039l-10.669-48.017a3.318,3.318,0,0,0-3.463-2.367H61.6C60.038,162.568,59.054,163.276,59.4,164.858Z" transform="translate(-59.331 -162.568)" fill="#fff" opacity="0.4" style="isolation: isolate"/>
          <path id="Trazado_693200" data-name="Trazado 693200" d="M72.437,178.876v.015c0,4.142,4.441,7.509,7.7,7.509s5.186-3.367,4.256-7.509c-.927-4.061-4.169-7.37-7.353-7.5.927,4.142-1.061,7.5-4.3,7.5A1.526,1.526,0,0,1,72.437,178.876Z" transform="translate(-43.638 -151.997)" opacity="0.2" style="isolation: isolate"/>
        </g>
      </g>
      <g id="Table" transform="translate(43.296 324.517)">
        <g id="Grupo_904802" data-name="Grupo 904802">
          <rect id="Rectángulo_304395" data-name="Rectángulo 304395" width="291.346" height="14.436" transform="translate(4.775 1.387)" fill="#263238"/>
          <rect id="Rectángulo_304396" data-name="Rectángulo 304396" width="291.346" height="14.436" transform="translate(4.775 1.387)" fill="#fff" opacity="0.5"/>
          <rect id="Rectángulo_304397" data-name="Rectángulo 304397" width="300.896" height="5.584" rx="1.271" fill="#263238"/>
          <rect id="Rectángulo_304398" data-name="Rectángulo 304398" width="300.896" height="5.584" rx="1.271" fill="#fff" opacity="0.6"/>
        </g>
      </g>
      <g id="Books_2" data-name="Books 2" transform="translate(266.226 271.205)">
        <g id="Grupo_904831" data-name="Grupo 904831">
          <g id="Grupo_904807" data-name="Grupo 904807" transform="translate(7.867 21.377)">
            <rect id="Rectángulo_304399" data-name="Rectángulo 304399" width="38.302" height="9.027" transform="translate(40.254 9.858) rotate(180)" fill="#feca2e"/>
            <rect id="Rectángulo_304400" data-name="Rectángulo 304400" width="38.302" height="9.027" transform="translate(40.254 10.858) rotate(180)" fill="#fff" opacity="0.7" style="isolation: isolate"/>
            <g id="Grupo_904803" data-name="Grupo 904803" transform="translate(25.442)">
              <path id="Trazado_693201" data-name="Trazado 693201" d="M155.861,173.114h30a5.344,5.344,0,1,1,0,10.688h-30v-1.956h4.555a3.388,3.388,0,0,0,0-6.777h-4.555Z" transform="translate(-155.861 -173.114)" fill="#feca2e"/>
            </g>
            <g id="Grupo_904804" data-name="Grupo 904804" transform="translate(25.442 -5)" opacity="0.4" style="isolation: isolate">
              <path id="Trazado_693202" data-name="Trazado 693202" d="M155.861,173.114h30a5.344,5.344,0,1,1,0,10.688h-30v-1.956h4.555a3.388,3.388,0,0,0,0-6.777h-4.555Z" transform="translate(-154.861 -168.114)" fill="#fff"/>
            </g>
            <g id="Grupo_904805" data-name="Grupo 904805">
              <path id="Trazado_693203" data-name="Trazado 693203" d="M144.283,173.114h30a5.344,5.344,0,1,1,0,10.688h-30v-1.956h30a3.388,3.388,0,0,0,0-6.777h-30Z" transform="translate(-144.283 -173.114)" fill="#feca2e"/>
            </g>
            <g id="Grupo_904806" data-name="Grupo 904806" opacity="0.2" style="isolation: isolate">
              <path id="Trazado_693204" data-name="Trazado 693204" d="M144.283,173.114h30a5.344,5.344,0,1,1,0,10.688h-30v-1.956h30a3.388,3.388,0,0,0,0-6.777h-30Z" transform="translate(-144.283 -173.114)" fill="#fff"/>
            </g>
          </g>
          <g id="Grupo_904812" data-name="Grupo 904812" transform="translate(5.913 10.688)">
            <rect id="Rectángulo_304401" data-name="Rectángulo 304401" width="38.302" height="9.027" transform="translate(20.531 0.83)" fill="#407bff"/>
            <rect id="Rectángulo_304402" data-name="Rectángulo 304402" width="38.302" height="9.027" transform="translate(20.531 0.83)" fill="#fff" opacity="0.7" style="isolation: isolate"/>
            <g id="Grupo_904808" data-name="Grupo 904808">
              <path id="Trazado_693205" data-name="Trazado 693205" d="M178.736,168.25h-30a5.344,5.344,0,1,0,0,10.688h30v-1.956h-4.553a3.388,3.388,0,0,1,0-6.777h4.553Z" transform="translate(-143.394 -168.25)" fill="#feca2e"/>
            </g>
            <g id="Grupo_904809" data-name="Grupo 904809" transform="translate(0 0)" opacity="0.4" style="isolation: isolate">
              <path id="Trazado_693206" data-name="Trazado 693206" d="M178.736,168.25h-30a5.344,5.344,0,1,0,0,10.688h30v-1.956h-4.553a3.388,3.388,0,0,1,0-6.777h4.553Z" transform="translate(-143.394 -168.25)"/>
            </g>
            <g id="Grupo_904810" data-name="Grupo 904810" transform="translate(25.445)">
              <path id="Trazado_693207" data-name="Trazado 693207" d="M190.315,168.25h-30a5.344,5.344,0,0,0,0,10.688h30v-1.956h-30a3.388,3.388,0,0,1,0-6.777h30Z" transform="translate(-154.973 -168.25)" fill="#feca2e"/>
            </g>
            <g id="Grupo_904811" data-name="Grupo 904811" transform="translate(25.445)" opacity="0.2" style="isolation: isolate">
              <path id="Trazado_693208" data-name="Trazado 693208" d="M190.315,168.25h-30a5.344,5.344,0,0,0,0,10.688h30v-1.956h-30a3.388,3.388,0,0,1,0-6.777h30Z" transform="translate(-154.973 -168.25)"/>
            </g>
          </g>
          <g id="Grupo_904817" data-name="Grupo 904817" transform="translate(0 32.065)">
            <rect id="Rectángulo_304403" data-name="Rectángulo 304403" width="38.302" height="9.027" transform="translate(40.254 9.859) rotate(180)" fill="#407bff"/>
            <rect id="Rectángulo_304404" data-name="Rectángulo 304404" width="38.302" height="9.027" transform="translate(40.254 9.859) rotate(180)" fill="#fff" opacity="0.7" style="isolation: isolate"/>
            <g id="Grupo_904813" data-name="Grupo 904813" transform="translate(25.442)">
              <path id="Trazado_693209" data-name="Trazado 693209" d="M152.281,177.978h30a5.344,5.344,0,1,1,0,10.688h-30v-1.956h4.555a3.388,3.388,0,0,0,0-6.777h-4.555Z" transform="translate(-152.281 -177.978)" fill="#263238"/>
            </g>
            <g id="Grupo_904814" data-name="Grupo 904814" transform="translate(25.442)" opacity="0.2">
              <path id="Trazado_693210" data-name="Trazado 693210" d="M152.281,177.978h30a5.344,5.344,0,1,1,0,10.688h-30v-1.956h4.555a3.388,3.388,0,0,0,0-6.777h-4.555Z" transform="translate(-152.281 -177.978)" fill="#fff"/>
            </g>
            <g id="Grupo_904815" data-name="Grupo 904815">
              <path id="Trazado_693211" data-name="Trazado 693211" d="M140.7,177.978h30a5.344,5.344,0,0,1,0,10.688h-30v-1.956h30a3.388,3.388,0,0,0,0-6.777h-30Z" transform="translate(-140.703 -177.978)" fill="#263238"/>
            </g>
            <g id="Grupo_904816" data-name="Grupo 904816" opacity="0.4" style="isolation: isolate">
              <path id="Trazado_693212" data-name="Trazado 693212" d="M140.7,177.978h30a5.344,5.344,0,0,1,0,10.688h-30v-1.956h30a3.388,3.388,0,0,0,0-6.777h-30Z" transform="translate(-140.703 -177.978)" fill="#fff"/>
            </g>
          </g>
          <g id="Grupo_904821" data-name="Grupo 904821" transform="translate(4.949 42.754)">
            <rect id="Rectángulo_304405" data-name="Rectángulo 304405" width="38.302" height="9.027" transform="translate(20.532 0.831)" fill="#407bff"/>
            <rect id="Rectángulo_304406" data-name="Rectángulo 304406" width="38.302" height="9.027" transform="translate(20.532 0.831)" fill="#fff" opacity="0.7" style="isolation: isolate"/>
            <g id="Grupo_904818" data-name="Grupo 904818" transform="translate(25.444)">
              <path id="Trazado_693213" data-name="Trazado 693213" d="M189.876,182.842h-30a5.345,5.345,0,0,0,0,10.691h30v-1.958h-30a3.389,3.389,0,1,1,0-6.777h30Z" transform="translate(-154.534 -182.842)" fill="#263238"/>
            </g>
            <g id="Grupo_904819" data-name="Grupo 904819">
              <path id="Trazado_693214" data-name="Trazado 693214" d="M178.3,182.842h-30a5.345,5.345,0,0,0,0,10.691h30v-1.958h-4.553a3.389,3.389,0,1,1,0-6.777H178.3Z" transform="translate(-142.955 -182.842)" fill="#263238"/>
            </g>
            <g id="Grupo_904820" data-name="Grupo 904820" transform="translate(25.444)" opacity="0.4" style="isolation: isolate">
              <path id="Trazado_693215" data-name="Trazado 693215" d="M189.876,182.842h-30a5.345,5.345,0,0,0,0,10.691h30v-1.958h-30a3.389,3.389,0,1,1,0-6.777h30Z" transform="translate(-154.534 -182.842)" fill="#fff"/>
            </g>
          </g>
          <g id="Grupo_904825" data-name="Grupo 904825" transform="translate(3.375)">
            <rect id="Rectángulo_304407" data-name="Rectángulo 304407" width="38.302" height="9.028" transform="translate(40.255 9.857) rotate(180)" fill="#407bff"/>
            <rect id="Rectángulo_304408" data-name="Rectángulo 304408" width="38.302" height="9.028" transform="translate(40.255 9.857) rotate(180)" fill="#fff" opacity="0.7" style="isolation: isolate"/>
            <g id="Grupo_904822" data-name="Grupo 904822">
              <path id="Trazado_693216" data-name="Trazado 693216" d="M142.239,174.074h30a5.344,5.344,0,1,0,0-10.688h-30v1.956h30a3.388,3.388,0,1,1,0,6.777h-30Z" transform="translate(-142.239 -163.386)" fill="#263238"/>
            </g>
            <g id="Grupo_904823" data-name="Grupo 904823" transform="translate(25.444)">
              <path id="Trazado_693217" data-name="Trazado 693217" d="M153.818,174.074h30a5.344,5.344,0,1,0,0-10.688h-30v1.956h4.555a3.388,3.388,0,1,1,0,6.777h-4.555Z" transform="translate(-153.818 -163.386)" fill="#263238"/>
            </g>
            <g id="Grupo_904824" data-name="Grupo 904824" opacity="0.4" style="isolation: isolate">
              <path id="Trazado_693218" data-name="Trazado 693218" d="M142.239,174.074h30a5.344,5.344,0,1,0,0-10.688h-30v1.956h30a3.388,3.388,0,1,1,0,6.777h-30Z" transform="translate(-142.239 -163.386)" fill="#fff"/>
            </g>
          </g>
          <g id="Grupo_904826" data-name="Grupo 904826" transform="translate(1.952 34.883)" opacity="0.2">
            <path id="Trazado_693219" data-name="Trazado 693219" d="M141.591,179.26l27.8.3-27.8.3Z" transform="translate(-141.591 -179.26)"/>
            <path id="Trazado_693220" data-name="Trazado 693220" d="M141.591,179.935l18.488.3-18.488.3Z" transform="translate(-141.591 -178.452)"/>
            <path id="Trazado_693221" data-name="Trazado 693221" d="M141.591,180.611l30.393.3-30.393.3Z" transform="translate(-141.591 -177.643)"/>
            <path id="Trazado_693222" data-name="Trazado 693222" d="M141.591,181.286l26.226.3-26.226.3Z" transform="translate(-141.591 -176.835)"/>
          </g>
          <g id="Grupo_904827" data-name="Grupo 904827" transform="translate(9.819 24.194)" opacity="0.2">
            <path id="Trazado_693223" data-name="Trazado 693223" d="M145.171,174.4l27.8.3-27.8.3Z" transform="translate(-145.171 -174.396)"/>
            <path id="Trazado_693224" data-name="Trazado 693224" d="M145.171,175.071l18.488.3-18.488.3Z" transform="translate(-145.171 -173.588)"/>
            <path id="Trazado_693225" data-name="Trazado 693225" d="M145.171,175.746l30.393.3-30.393.3Z" transform="translate(-145.171 -172.779)"/>
            <path id="Trazado_693226" data-name="Trazado 693226" d="M145.171,176.421l26.226.3-26.226.3Z" transform="translate(-145.171 -171.971)"/>
          </g>
          <g id="Grupo_904828" data-name="Grupo 904828" transform="translate(5.244 2.817)" opacity="0.2">
            <path id="Trazado_693227" data-name="Trazado 693227" d="M143.089,164.668l27.8.3-27.8.3Z" transform="translate(-143.089 -164.668)"/>
            <path id="Trazado_693228" data-name="Trazado 693228" d="M143.089,165.343l18.488.3-18.488.3Z" transform="translate(-143.089 -163.859)"/>
            <path id="Trazado_693229" data-name="Trazado 693229" d="M143.089,166.018l30.393.3-30.393.3Z" transform="translate(-143.089 -163.051)"/>
            <path id="Trazado_693230" data-name="Trazado 693230" d="M143.089,166.693l26.226.3-26.226.3Z" transform="translate(-143.089 -162.242)"/>
          </g>
          <g id="Grupo_904829" data-name="Grupo 904829" transform="translate(33.31 45.607)" opacity="0.2">
            <path id="Trazado_693231" data-name="Trazado 693231" d="M184.842,186.769l-27.8-.3,27.8-.3Z" transform="translate(-154.449 -181.715)"/>
            <path id="Trazado_693232" data-name="Trazado 693232" d="M179.767,186.094l-18.488-.3,18.488-.3Z" transform="translate(-149.374 -182.524)"/>
            <path id="Trazado_693233" data-name="Trazado 693233" d="M186.254,185.419l-30.393-.3,30.393-.3Z" transform="translate(-155.861 -183.332)"/>
            <path id="Trazado_693234" data-name="Trazado 693234" d="M183.983,184.744l-26.226-.3,26.226-.3Z" transform="translate(-153.591 -184.141)"/>
          </g>
          <g id="Grupo_904830" data-name="Grupo 904830" transform="translate(34.354 13.505)" opacity="0.2">
            <path id="Trazado_693235" data-name="Trazado 693235" d="M185.317,172.161l-27.8-.3,27.8-.3Z" transform="translate(-154.924 -167.106)"/>
            <path id="Trazado_693236" data-name="Trazado 693236" d="M180.242,171.486l-18.488-.3,18.488-.3Z" transform="translate(-149.849 -167.915)"/>
            <path id="Trazado_693237" data-name="Trazado 693237" d="M186.729,170.81l-30.393-.3,30.393-.3Z" transform="translate(-156.336 -168.723)"/>
            <path id="Trazado_693238" data-name="Trazado 693238" d="M184.459,170.135l-26.226-.3,26.226-.3Z" transform="translate(-154.066 -169.532)"/>
          </g>
        </g>
      </g>
      <g id="Book_1" data-name="Book 1" transform="translate(180.245 313.293)">
        <g id="Grupo_904838" data-name="Grupo 904838">
          <g id="Grupo_904837" data-name="Grupo 904837" transform="translate(2.381)">
            <path id="Trazado_693239" data-name="Trazado 693239" d="M184.731,188.278s-11.1-5.573-17.219-5.733v0h-.04c-.125,0-.248,0-.371,0H109.747l3.545,11.066,24.765-.855,45.666-.672Z" transform="translate(-94.171 -182.537)" fill="#407bff"/>
            <path id="Trazado_693240" data-name="Trazado 693240" d="M184.731,188.278s-11.1-5.573-17.219-5.733v0h-.04c-.125,0-.248,0-.371,0H109.747l3.545,11.066,24.765-.855,45.666-.672Z" transform="translate(-94.171 -182.537)" fill="#fff" opacity="0.7" style="isolation: isolate"/>
            <path id="Trazado_693241" data-name="Trazado 693241" d="M102.659,188.832s6.507-5.421,14.393-6.21S127.7,188.03,127.7,188.03s3.747-5.153,9.66-5.478,17.967,5.729,17.967,5.729l-1.011,3.8-51.06.752Z" transform="translate(-102.659 -182.539)" fill="#407bff"/>
            <path id="Trazado_693242" data-name="Trazado 693242" d="M102.659,188.832s6.507-5.421,14.393-6.21S127.7,188.03,127.7,188.03s3.747-5.153,9.66-5.478,17.967,5.729,17.967,5.729l-1.011,3.8-51.06.752Z" transform="translate(-102.659 -182.539)" fill="#fff" opacity="0.6" style="isolation: isolate"/>
            <path id="Trazado_693243" data-name="Trazado 693243" d="M165.075,185.152l-.2.748-.129.478-.688,2.581H126.164l.438-1.654.139-.5.438-1.655Z" transform="translate(-74.512 -179.41)" opacity="0.2"/>
            <g id="Grupo_904832" data-name="Grupo 904832" transform="translate(0.987 1.682)" opacity="0.2">
              <path id="Trazado_693244" data-name="Trazado 693244" d="M153.775,187.817a64.318,64.318,0,0,0-6.731-2.532,32.083,32.083,0,0,0-6.981-1.529,13.979,13.979,0,0,0-6.871,1.422,27.232,27.232,0,0,0-6.01,3.8l-.189.158-.163-.187a17.567,17.567,0,0,0-5.12-4.043,11.432,11.432,0,0,0-3.076-1.064,9.874,9.874,0,0,0-3.246.033,29.265,29.265,0,0,0-6.3,2,58.671,58.671,0,0,0-5.979,2.916A59.358,59.358,0,0,1,109,185.656a29.019,29.019,0,0,1,6.329-2.153,9.815,9.815,0,0,1,3.382-.088,11.886,11.886,0,0,1,3.2,1.083,18.005,18.005,0,0,1,5.3,4.133l-.352-.029A26.9,26.9,0,0,1,133,184.76a14.054,14.054,0,0,1,7.089-1.4,32.5,32.5,0,0,1,7.03,1.681A64.69,64.69,0,0,1,153.775,187.817Z" transform="translate(-103.108 -183.305)"/>
            </g>
            <g id="Grupo_904833" data-name="Grupo 904833" transform="translate(1.38 4.176)" opacity="0.2">
              <path id="Trazado_693245" data-name="Trazado 693245" d="M103.287,187.906a45.189,45.189,0,0,1,5.764-2.2,28.882,28.882,0,0,1,6.072-1.2,17.59,17.59,0,0,1,6.173.613,18.523,18.523,0,0,1,5.658,2.6l-.255-.026a39.819,39.819,0,0,1,6.3-2.277,19.592,19.592,0,0,1,6.65-.78,47.759,47.759,0,0,1,6.592,1.072q3.25.755,6.436,1.727-3.22-.85-6.487-1.481a47.54,47.54,0,0,0-6.566-.925,19.875,19.875,0,0,0-6.5.828,42.455,42.455,0,0,0-6.206,2.277l-.132.059-.123-.086a18.745,18.745,0,0,0-11.508-3.232,29.4,29.4,0,0,0-6.03,1.059A44.948,44.948,0,0,0,103.287,187.906Z" transform="translate(-103.287 -184.44)"/>
            </g>
            <g id="Grupo_904834" data-name="Grupo 904834" transform="translate(3.944 6.563)" opacity="0.2">
              <path id="Trazado_693246" data-name="Trazado 693246" d="M104.454,186.605a43.09,43.09,0,0,1,10.515-1.072,40.252,40.252,0,0,1,5.292.4,43.936,43.936,0,0,1,5.21,1.031l-.105,0c1.973-.349,3.955-.578,5.942-.782s3.98-.347,5.977-.413c2-.051,4-.04,5.99.066a45.528,45.528,0,0,1,5.931.78,58.632,58.632,0,0,0-11.906-.446,106.982,106.982,0,0,0-11.849,1.275l-.055.009-.053-.013a44.133,44.133,0,0,0-5.144-1.061,49.148,49.148,0,0,0-5.239-.47,48.43,48.43,0,0,0-5.267.077A40.016,40.016,0,0,0,104.454,186.605Z" transform="translate(-104.454 -185.526)"/>
            </g>
            <g id="Grupo_904835" data-name="Grupo 904835" transform="translate(53.924 6.49)" opacity="0.2">
              <path id="Trazado_693247" data-name="Trazado 693247" d="M163.637,185.493l-.129.478-36.31-.239Z" transform="translate(-127.198 -185.493)"/>
            </g>
            <g id="Grupo_904836" data-name="Grupo 904836" transform="translate(52.09 7.397)" opacity="0.2">
              <path id="Trazado_693248" data-name="Trazado 693248" d="M161.118,186.154l-34.754.249.139-.5Z" transform="translate(-126.364 -185.905)"/>
            </g>
            <path id="Trazado_693249" data-name="Trazado 693249" d="M113.336,188.411s.2-3.081,1.576-3.364,1.294,3.364,1.294,3.364Z" transform="translate(-89.874 -179.556)" fill="#263238"/>
          </g>
          <rect id="Rectángulo_304409" data-name="Rectángulo 304409" width="94.647" height="2.992" transform="translate(0 8.231)" fill="#263238"/>
          <rect id="Rectángulo_304410" data-name="Rectángulo 304410" width="94.647" height="2.992" transform="translate(0 8.231)" fill="#fff" opacity="0.2"/>
          <rect id="Rectángulo_304411" data-name="Rectángulo 304411" width="37.852" height="2.992" transform="translate(56.795 8.231)" opacity="0.2"/>
        </g>
      </g>
      <g id="Paper_balls" data-name="Paper balls" transform="translate(127.669 307.037)">
        <g id="Grupo_904839" data-name="Grupo 904839" transform="translate(134.252 3.197)">
          <path id="Trazado_693250" data-name="Trazado 693250" d="M141.15,198.393l-2.406-6.529,2.406-5.267h4.674l4.536-5.45h6.3c1.189,0,6.436,3.841,6.436,3.841s-.415,3.817,0,4.27,2.681,2.606,2.681,2.606l-1.885,1.6v3.652l-.8,1.459-6.436-.4a4.323,4.323,0,0,0-2.69,0c-1.642.457-2.861,2.672-4.021,2.132S141.15,198.393,141.15,198.393Z" transform="translate(-138.744 -181.147)" fill="#407bff"/>
          <path id="Trazado_693251" data-name="Trazado 693251" d="M165.779,191.871l-1.885,1.6v3.648l-.8,1.466-6.432-.411a4.337,4.337,0,0,0-2.694,0c-1.642.466-2.861,2.683-4.015,2.14s-8.8-1.918-8.8-1.918l-2.406-6.52,2.406-5.267h4.667l4.536-5.456h6.309c1.187,0,6.432,3.837,6.432,3.837a20.246,20.246,0,0,0-.09,4.059.583.583,0,0,0,.09.211C163.518,189.708,165.779,191.871,165.779,191.871Z" transform="translate(-138.742 -181.147)" fill="#fff" opacity="0.7" style="isolation: isolate"/>
          <path id="Trazado_693252" data-name="Trazado 693252" d="M163.006,189.043l-1.828-4.059-3.393,5.256-2.406-1.1V184.2l-4.957,1.907.71,4.136-1.485,3.226-5.876-5.278-1.42,3.793-3.6-.11,2.406-5.267h4.667l4.536-5.456h6.309c1.187,0,6.432,3.837,6.432,3.837A20.246,20.246,0,0,0,163.006,189.043Z" transform="translate(-138.742 -181.147)" fill="#fff" opacity="0.4" style="isolation: isolate"/>
          <path id="Trazado_693253" data-name="Trazado 693253" d="M139.841,194.325l2.923-.705v-6.476l5.709,4.834,3.208-7.436,1.745,2.9,3.824.365,2.406-2.49,1.272,1.27-1.367,2.468,1.367.982,1.655-.635-1.89,1.275-1.6-.934-1.839-1.277-4.342-.659-1.5,2.039,1.356,1.323-.143-2.114,3.257,3.907,1.369-2.285-2.171-.415,2.641-.055.332.727-1.936,2.433s-3.349-1.378-3.16-1.387-3.347,3.153-3.347,3.153l-4.344-1.512-.048-3.538-1.745,4.039-3.63.389" transform="translate(-137.43 -177.082)" opacity="0.1"/>
        </g>
        <g id="Grupo_904840" data-name="Grupo 904840" transform="translate(17.969)">
          <path id="Trazado_693254" data-name="Trazado 693254" d="M109.07,194.219l0,.026s-.053.033-.158.088-.237.136-.422.253a1.333,1.333,0,0,0-.237.138l-.545.343a1.464,1.464,0,0,0-.24.149l-.53.334c-.45.27-.943.58-1.411.9-.092.059-.2.112-.292.185-.185.116-.374.246-.547.367l-.279.174a12.051,12.051,0,0,0-1.828,1.378.556.556,0,0,1-.218.171.387.387,0,0,1-.136.029l0,.013-.011,0a.038.038,0,0,1-.037,0,1.322,1.322,0,0,1-.231.009,4.871,4.871,0,0,1-1.4-.534,5.469,5.469,0,0,0-2.1-.692,3.075,3.075,0,0,0-2.211.738l-5.124,2.169-1.22-1.231L88.464,195.6,86.3,194.545s.253-.683.53-1.453c.073-.182.138-.382.211-.567.026-.094.064-.187.1-.29.1-.268.182-.514.244-.7.044-.143.083-.246.105-.319a.248.248,0,0,0,0-.09.841.841,0,0,0-.015-.152,7.9,7.9,0,0,0-.453-1.347c-.226-.554-.494-1.149-.716-1.637-.064-.156-.141-.3-.207-.431a.166.166,0,0,0-.037-.079c-.1-.222-.178-.38-.215-.446l-.02-.033.011,0,0-.013c.165-.321,2.83-5.259,3.782-5.56.967-.334,5.184-1.74,5.184-1.74l1.323.938,4.518,3.21,3.837-1.281,4.017,4.553Z" transform="translate(-85.827 -179.692)" fill="#407bff"/>
          <path id="Trazado_693255" data-name="Trazado 693255" d="M109.056,194.228s-.053.033-.149.105c-.1.053-.237.136-.422.253a1.333,1.333,0,0,0-.237.138l-.545.343a1.464,1.464,0,0,0-.24.149c-.169.1-.343.2-.53.334-.45.27-.943.58-1.411.9-.092.059-.2.112-.292.185-.185.116-.374.246-.547.367l-.279.174a12.051,12.051,0,0,0-1.828,1.378.556.556,0,0,1-.218.171.387.387,0,0,1-.136.029l0,.013-.011,0a.038.038,0,0,1-.037,0,1.322,1.322,0,0,1-.231.009,4.871,4.871,0,0,1-1.4-.534,5.469,5.469,0,0,0-2.1-.692,3.075,3.075,0,0,0-2.211.738l-5.124,2.169-1.22-1.231L88.464,195.6,86.3,194.545s.253-.683.53-1.453c.073-.182.138-.382.211-.567.026-.094.064-.187.1-.29.088-.272.182-.514.244-.7.044-.143.083-.246.105-.319a.248.248,0,0,0,0-.09.841.841,0,0,0-.015-.152,7.9,7.9,0,0,0-.453-1.347c-.226-.554-.494-1.149-.716-1.637-.064-.156-.141-.3-.207-.431a.166.166,0,0,0-.037-.079c-.1-.222-.178-.38-.215-.446a.039.039,0,0,0-.009-.029l-.011,0,0-.013.011,0c.165-.321,2.83-5.259,3.782-5.56.967-.334,5.184-1.74,5.184-1.74l1.323.938,4.516,3.224,3.839-1.281,4.017,4.54Z" transform="translate(-85.827 -179.692)" fill="#fff" opacity="0.7" style="isolation: isolate"/>
          <path id="Trazado_693256" data-name="Trazado 693256" d="M109.062,194.219l-.013.009-3.758-.5,1.7-6.614-3.755.967-2.011-3.4L97.4,183.3l3.485,4.362-2.257,2.89-7.533-6.43,1.47,5-6.729-2.129c.165-.321,2.83-5.259,3.782-5.56.967-.334,5.184-1.74,5.184-1.74l1.323.938,4.518,3.21,3.837-1.281,4.017,4.553Z" transform="translate(-85.82 -179.692)" fill="#fff" opacity="0.4" style="isolation: isolate"/>
          <path id="Trazado_693257" data-name="Trazado 693257" d="M98.183,191.94a3.075,3.075,0,0,0-2.211.738l-5.124,2.169-1.22-1.231L88.207,190l-2.165-1.059s.253-.683.53-1.453c.073-.182.138-.382.211-.567.026-.094.064-.187.1-.29.088-.272.182-.514.244-.7.044-.143.084-.246.105-.319l7.643.872-.213-2.116,4.041,3.158-4.118,1.035.165,1.859,2.7-.022Z" transform="translate(-85.57 -174.09)" opacity="0.1"/>
          <path id="Trazado_693258" data-name="Trazado 693258" d="M95.3,192.442a1.322,1.322,0,0,1-.231.009,4.871,4.871,0,0,1-1.4-.534,5.468,5.468,0,0,0-2.1-.692l3.676-2.378-.6-3.571,2.962-.308s-1.286,3.74-1.07,3.832C96.742,188.875,95.092,192.367,95.3,192.442Z" transform="translate(-78.954 -173.374)" opacity="0.1"/>
        </g>
        <g id="Grupo_904841" data-name="Grupo 904841" transform="translate(0 7.621)">
          <path id="Trazado_693259" data-name="Trazado 693259" d="M77.659,187.649l-.009.013s.018.037.053.1.075.156.132.281a.864.864,0,0,1,.075.156l.165.374a1.026,1.026,0,0,1,.073.163l.16.363c.138.3.288.635.422.967.026.064.062.13.088.2.055.127.108.262.156.387l.084.189a7.681,7.681,0,0,1,.472,1.369.356.356,0,0,0,.053.165.218.218,0,0,0,.062.066l0,.007.007,0a.025.025,0,0,0,.02.013.871.871,0,0,0,.119.086,3.02,3.02,0,0,0,.923.215,3.452,3.452,0,0,1,1.343.378,1.94,1.94,0,0,1,.9,1.169l1.918,2.949,1.075-.213,2.024-1.391,1.507.211s.11-.448.235-.949c.026-.121.064-.25.09-.371.02-.059.033-.121.051-.189.042-.176.086-.334.121-.453.026-.09.042-.158.057-.2a.2.2,0,0,1,.031-.048.541.541,0,0,1,.062-.073,4.893,4.893,0,0,1,.714-.545c.314-.211.666-.428.954-.606.088-.057.18-.108.262-.152a.1.1,0,0,1,.046-.029c.132-.079.229-.136.272-.156l.022-.011-.009,0,0-.007c.026-.229.376-3.758-.015-4.25-.389-.519-2.1-2.745-2.1-2.745l-1.024.024-3.5.083-1.558-2.028-3.714.967Z" transform="translate(-77.65 -183.16)" fill="#407bff"/>
          <path id="Trazado_693260" data-name="Trazado 693260" d="M77.655,187.653a.913.913,0,0,1,.042.108c.035.064.075.156.132.281a.865.865,0,0,1,.075.156l.165.374a1.027,1.027,0,0,1,.073.163c.055.11.108.229.16.363.138.3.288.635.422.967.026.064.062.13.088.2.055.127.108.262.156.387l.083.189a7.681,7.681,0,0,1,.472,1.369.356.356,0,0,0,.053.165.218.218,0,0,0,.062.066l0,.007.007,0a.025.025,0,0,0,.02.013.871.871,0,0,0,.119.086,3.02,3.02,0,0,0,.923.215,3.452,3.452,0,0,1,1.343.378,1.94,1.94,0,0,1,.9,1.169l1.918,2.949,1.075-.213,2.024-1.391,1.507.211s.11-.448.235-.949c.026-.121.064-.25.09-.371.02-.059.033-.121.051-.189.051-.174.086-.334.121-.453.026-.09.042-.158.057-.2a.2.2,0,0,1,.031-.048.541.541,0,0,1,.062-.073,4.894,4.894,0,0,1,.714-.545c.314-.211.666-.428.954-.606.088-.057.18-.108.262-.152a.1.1,0,0,1,.046-.029c.132-.079.229-.136.272-.156l.013-.013.009,0,0-.009h-.007c.026-.229.376-3.758-.015-4.25-.389-.519-2.1-2.745-2.1-2.745l-1.024.024-3.5.09-1.558-2.026-3.712.958Z" transform="translate(-77.644 -183.155)" fill="#fff" opacity="0.7" style="isolation: isolate"/>
          <path id="Trazado_693261" data-name="Trazado 693261" d="M77.654,187.649l0,.009,2.147,1.064,1.448-4.065,1.626,1.835,2.252-1.068,2.5.628L84.257,187.1l.16,2.312,6.221-.705-2.538,2.1,4.278,1.264c.026-.229.376-3.758-.015-4.25-.389-.519-2.1-2.745-2.1-2.745l-1.024.024-3.5.083-1.558-2.028-3.714.967Z" transform="translate(-77.645 -183.16)" fill="#fff" opacity="0.4" style="isolation: isolate"/>
          <path id="Trazado_693262" data-name="Trazado 693262" d="M79.653,189.186a1.94,1.94,0,0,1,.9,1.169l1.918,2.949,1.075-.213,2.024-1.391,1.507.211s.11-.448.235-.949c.026-.121.064-.25.09-.371.02-.059.033-.121.051-.189.051-.174.086-.334.121-.453.026-.09.042-.158.057-.2L83.314,187.5l.859-1.033-3.232.226,1.791,2-.743.916-1.409-.967Z" transform="translate(-75.251 -179.201)" opacity="0.1"/>
          <path id="Trazado_693263" data-name="Trazado 693263" d="M78.568,189.973a.87.87,0,0,0,.119.086,3.02,3.02,0,0,0,.923.215,3.452,3.452,0,0,1,1.343.378l-1.086-2.545,1.578-1.657L80,185.242a14.413,14.413,0,0,1-.8,2.386C79.071,187.593,78.7,190.006,78.568,189.973Z" transform="translate(-76.551 -180.667)" opacity="0.1"/>
        </g>
      </g>
    </g>
  </g>
</svg>
