<svg xmlns="http://www.w3.org/2000/svg" width="96.03" height="82.975" viewBox="0 0 96.03 82.975">
  <g id="Grupo_913130" data-name="Grupo 913130" transform="translate(-486.637 -160.147)">
    <g id="Grupo_913127" data-name="Grupo 913127" transform="translate(-97 41)">
      <g id="Grupo_907907" data-name="Grupo 907907" transform="translate(279.425 15)">
        <path id="Trazado_697628" data-name="Trazado 697628" d="M3004.644,596.215s.008,0,.011-.01a2.068,2.068,0,0,1-1.572-.3L2984.5,585.176a5.922,5.922,0,0,1-2.677-4.64V559.05a2.629,2.629,0,0,1,.194-1.037c-.006.014-.013.025-.019.04a.4.4,0,0,1,.026-.06c.015-.032.035-.06.047-.09a1.709,1.709,0,0,1,.112-.186,1.168,1.168,0,0,0-.094.165,1.629,1.629,0,0,1,.152-.236.726.726,0,0,0-.057.071c.022-.034.045-.062.07-.093s.038-.047.056-.067a1.443,1.443,0,0,1,.115-.1.471.471,0,0,0-.068.071,1.242,1.242,0,0,1,.2-.168c-.008.005-.015.007-.019.011a.715.715,0,0,1,.068-.052l6.243-3.6h0a1.88,1.88,0,0,1,1.9.18l18.584,10.732a5.9,5.9,0,0,1,2.675,4.637v21.485a1.879,1.879,0,0,1-.778,1.729v0l-6.256,3.612A1.244,1.244,0,0,1,3004.644,596.215Z" transform="translate(-2611.765 -416.923)" fill="#fcb906"/>
        <path id="Trazado_697629" data-name="Trazado 697629" d="M3008.18,594.355V572.87a5.911,5.911,0,0,0-2.677-4.64L2986.919,557.5a1.827,1.827,0,0,0-1.94-.145c-.008.005-.015.007-.019.011a.715.715,0,0,1,.068-.052l6.243-3.6h0a1.88,1.88,0,0,1,1.9.18l18.583,10.732a5.9,5.9,0,0,1,2.675,4.637v21.485a1.879,1.879,0,0,1-.778,1.729v0l-6.257,3.612A1.881,1.881,0,0,0,3008.18,594.355Z" transform="translate(-2614.188 -416.923)" opacity="0.2" style="mix-blend-mode: overlay;isolation: isolate"/>
        <path id="Trazado_697630" data-name="Trazado 697630" d="M3019.468,631.6a13.736,13.736,0,0,0-6.222-10.765c-3.435-1.986-6.221-.383-6.223,3.581a13.738,13.738,0,0,0,6.223,10.764C3016.683,637.165,3019.468,635.558,3019.468,631.6Z" transform="translate(-2631.222 -468.228)" opacity="0.1" style="mix-blend-mode: overlay;isolation: isolate"/>
        <path id="Trazado_697631" data-name="Trazado 697631" d="M3022.771,636.828a10.686,10.686,0,0,0-4.841-8.379c-2.672-1.544-4.84-.295-4.84,2.786a10.692,10.692,0,0,0,4.84,8.378C3020.6,641.161,3022.774,639.913,3022.771,636.828Z" transform="translate(-2635.906 -474.257)" opacity="0.2" style="mix-blend-mode: overlay;isolation: isolate"/>
        <g id="Grupo_907898" data-name="Grupo 907898" transform="translate(348.537 157.185)">
          <path id="Trazado_697632" data-name="Trazado 697632" d="M2890.833,667.045a1.415,1.415,0,0,1-1.421-.142,4.426,4.426,0,0,1-2.005-3.475,1.411,1.411,0,0,1,.586-1.3h0l31.485-18.176h0a1.4,1.4,0,0,1,1.416.14,4.432,4.432,0,0,1,2,3.474,1.414,1.414,0,0,1-.588,1.3Z" transform="translate(-2887.407 -643.82)" fill="#ededef"/>
          <path id="Trazado_697633" data-name="Trazado 697633" d="M2903.016,671.747a4.118,4.118,0,0,0-.588-1.978l31.48-18.177a4.1,4.1,0,0,1,.588,1.977,1.413,1.413,0,0,1-.588,1.3l-31.478,18.173A1.418,1.418,0,0,0,2903.016,671.747Z" transform="translate(-2899.004 -649.821)" style="mix-blend-mode: overlay;isolation: isolate"/>
        </g>
        <path id="Trazado_697634" data-name="Trazado 697634" d="M2842.65,707.351a3.665,3.665,0,0,1,2.156-3.015,11.526,11.526,0,0,1,10.42.006,3.653,3.653,0,0,1,2.157,3.006h0v7.917h0a3.656,3.656,0,0,1-2.158,3.009,11.5,11.5,0,0,1-10.42,0,3.672,3.672,0,0,1-2.158-3.013Z" transform="translate(-2504.314 -532.399)" fill="#fcb906"/>
        <path id="Trazado_697635" data-name="Trazado 697635" d="M2844.808,724.763a11.507,11.507,0,0,0,10.42.005,3.652,3.652,0,0,0,2.155-3.008h0v7.917h0a3.656,3.656,0,0,1-2.158,3.009,11.5,11.5,0,0,1-10.42,0,3.672,3.672,0,0,1-2.158-3.013v-7.908A3.655,3.655,0,0,0,2844.808,724.763Z" transform="translate(-2504.314 -546.811)" fill="#fcb906" opacity="0.2" style="mix-blend-mode: overlay;isolation: isolate"/>
        <g id="Grupo_907899" data-name="Grupo 907899" transform="translate(342.865 136.438)">
          <path id="Trazado_697636" data-name="Trazado 697636" d="M2862.524,554.439a1.41,1.41,0,0,1,.831-1.162,4.42,4.42,0,0,1,4.011.005,1.4,1.4,0,0,1,.831,1.154h0v36.353h0a1.409,1.409,0,0,1-.829,1.159,4.437,4.437,0,0,1-4.013,0,1.414,1.414,0,0,1-.831-1.163Z" transform="translate(-2862.524 -552.798)" fill="#ededef"/>
          <path id="Trazado_697637" data-name="Trazado 697637" d="M2874.973,561.623a4.116,4.116,0,0,0,2.007-.48,1.409,1.409,0,0,0,.829-1.16h0v36.353a1.409,1.409,0,0,1-.829,1.159,4.111,4.111,0,0,1-2.007.479Z" transform="translate(-2872.136 -558.345)" style="mix-blend-mode: overlay;isolation: isolate"/>
        </g>
        <g id="Grupo_907902" data-name="Grupo 907902" transform="translate(304.212 104.146)">
          <g id="Grupo_907900" data-name="Grupo 907900" transform="translate(3.398 4.602)">
            <path id="Trazado_697638" data-name="Trazado 697638" d="M2759.442,479.872h0c1.936,1.105,4.6.942,7.542-.757,5.893-3.4,10.668-11.665,10.668-18.46,0-3.4-1.194-5.787-3.128-6.9h0l-37.653-21.739v0c-1.93-1.109-4.593-.945-7.537.754-5.891,3.4-10.669,11.667-10.667,18.46,0,3.4,1.191,5.789,3.128,6.9h0Z" transform="translate(-2718.661 -431.313)" fill="#ededef"/>
            <path id="Trazado_697639" data-name="Trazado 697639" d="M2759.442,479.872h0c1.936,1.105,4.6.942,7.542-.757,5.893-3.4,10.668-11.665,10.668-18.46,0-3.4-1.194-5.787-3.128-6.9h0l-37.653-21.739v0c-1.93-1.109-4.593-.945-7.537.754-5.891,3.4-10.669,11.667-10.667,18.46,0,3.4,1.191,5.789,3.128,6.9h0Z" transform="translate(-2718.661 -431.313)" style="mix-blend-mode: overlay;isolation: isolate"/>
            <path id="Trazado_697640" data-name="Trazado 697640" d="M2718.661,546.6c0-6.793,4.773-15.061,10.667-18.463s10.671-.651,10.668,6.145-4.775,15.059-10.668,18.46S2718.658,553.4,2718.661,546.6Z" transform="translate(-2681.009 -504.946)" fill="#ededef"/>
            <path id="Trazado_697641" data-name="Trazado 697641" d="M2721.186,559.5c1.649.949,3.932.808,6.454-.646,5.044-2.912,9.137-9.988,9.135-15.809,0-2.91-1.025-4.954-2.681-5.9l.064-.109-2.036-1.173-.057.106c-1.655-.951-3.935-.812-6.456.646-5.049,2.914-9.132,9.991-9.136,15.808,0,2.909,1.024,4.956,2.681,5.906h0l2.03,1.175Z" transform="translate(-2677.289 -511.647)" fill="#ededef"/>
            <path id="Trazado_697642" data-name="Trazado 697642" d="M2721.186,559.5c1.649.949,3.932.808,6.454-.646,5.044-2.912,9.137-9.988,9.135-15.809,0-2.91-1.025-4.954-2.681-5.9l-2.029-1.177c-1.655-.951-3.935-.812-6.456.646-5.049,2.914-9.132,9.991-9.136,15.808,0,2.909,1.024,4.956,2.681,5.906h0l2.03,1.175Z" transform="translate(-2677.289 -511.647)" style="mix-blend-mode: overlay;isolation: isolate"/>
            <path id="Trazado_697643" data-name="Trazado 697643" d="M2716.472,557.572c0-5.82,4.089-12.9,9.134-15.809s9.133-.558,9.135,5.259-4.091,12.9-9.135,15.808S2716.472,563.39,2716.472,557.572Z" transform="translate(-2675.255 -515.624)" fill="#ededef"/>
            <path id="Trazado_697644" data-name="Trazado 697644" d="M2724.211,564.259a16.282,16.282,0,0,1,7.371-12.754c4.069-2.351,7.371-.451,7.371,4.244a16.278,16.278,0,0,1-7.371,12.753C2727.51,570.856,2724.21,568.954,2724.211,564.259Z" transform="translate(-2681.231 -523.331)" style="mix-blend-mode: overlay;isolation: isolate"/>
            <path id="Trazado_697645" data-name="Trazado 697645" d="M2732.711,571.606a12,12,0,0,1,5.434-9.4c3-1.733,5.434-.333,5.434,3.127a12,12,0,0,1-5.434,9.4C2735.144,576.471,2732.711,575.068,2732.711,571.606Z" transform="translate(-2687.795 -531.795)" fill="#7f7dfa" opacity="0.6"/>
            <path id="Trazado_697646" data-name="Trazado 697646" d="M2737.411,575.663a9.648,9.648,0,0,1,4.364-7.556c2.411-1.388,4.362-.268,4.362,2.514a9.629,9.629,0,0,1-4.362,7.55C2739.365,579.569,2737.411,578.441,2737.411,575.663Z" transform="translate(-2691.425 -536.468)" fill="#7f7dfa"/>
            <path id="Trazado_697647" data-name="Trazado 697647" d="M2749.045,572.6a2.132,2.132,0,0,1,.966-1.672c.536-.309.968-.06.968.557a2.134,2.134,0,0,1-.968,1.671C2749.476,573.47,2749.045,573.217,2749.045,572.6Z" transform="translate(-2698.917 -539.005)" fill="#ededef"/>
            <path id="Trazado_697648" data-name="Trazado 697648" d="M2736.262,555.969a16.286,16.286,0,0,1-7.375,12.756,5.537,5.537,0,0,1-4.676.767c1.348,1.121,3.4,1.145,5.694-.182a16.278,16.278,0,0,0,7.371-12.753c0-2.644-1.047-4.4-2.688-5.014A5.559,5.559,0,0,1,2736.262,555.969Z" transform="translate(-2679.554 -524.139)" opacity="0.2" style="mix-blend-mode: overlay;isolation: isolate"/>
          </g>
          <g id="Grupo_907901" data-name="Grupo 907901" transform="translate(0.001 0.001)">
            <path id="Trazado_697649" data-name="Trazado 697649" d="M2735.432,455.78a.257.257,0,0,0,.194.048.439.439,0,0,0,.177-.064,1.132,1.132,0,0,0,.477-.661c1.858-6.8,6.664-13.431,11.958-16.488a12.592,12.592,0,0,1,4.392-1.616l7.667,4.428c.008,0,.013.008.021.01l.028.017.005-.009a.481.481,0,0,0,.5-.18.979.979,0,0,0,.3-.925,7.425,7.425,0,0,0-3.27-3.89l.007-.007-42.358-24.455-.006.009c-2.532-1.4-5.976-1.13-9.646.986-5.72,3.3-10.908,10.458-12.91,17.809-.077.28-.007.5.152.558l0,.005,42.313,24.429Z" transform="translate(-2692.935 -411.127)" fill="#ff7491"/>
            <path id="Trazado_697650" data-name="Trazado 697650" d="M2735.432,455.78a.257.257,0,0,0,.194.048.439.439,0,0,0,.177-.064,1.132,1.132,0,0,0,.477-.661c1.858-6.8,6.664-13.431,11.958-16.488a12.592,12.592,0,0,1,4.392-1.616l7.667,4.428c.008,0,.013.008.021.01l.028.017.005-.009a.481.481,0,0,0,.5-.18.979.979,0,0,0,.3-.925,7.425,7.425,0,0,0-3.27-3.89l.007-.007-42.358-24.455-.006.009c-2.532-1.4-5.976-1.13-9.646.986-5.72,3.3-10.908,10.458-12.91,17.809-.077.28-.007.5.152.558l0,.005,42.313,24.429Z" transform="translate(-2692.935 -411.127)" fill="#feca2e"/>
            <path id="Trazado_697651" data-name="Trazado 697651" d="M2831.666,496.8a.258.258,0,0,0,.194.048.44.44,0,0,0,.177-.064,1.131,1.131,0,0,0,.477-.661,29.645,29.645,0,0,1,2.968-6.992L2792.4,464.262a31.961,31.961,0,0,0-3.2,7.552c-.077.28-.007.5.153.558l0,.005,42.314,24.429Z" transform="translate(-2789.168 -452.151)" fill="#ff7491" opacity="0.2" style="mix-blend-mode: multiply;isolation: isolate"/>
            <path id="Trazado_697652" data-name="Trazado 697652" d="M2693.441,538.591a1.131,1.131,0,0,0,.477-.66c1.858-6.8,6.664-13.431,11.958-16.488s10.1-1.981,11.96,2.683c.1.246.389.23.651-.034a.979.979,0,0,0,.3-.925c-2-5.037-7.194-6.2-12.911-2.9s-10.9,10.453-12.909,17.8c-.1.36.035.621.3.582A.438.438,0,0,0,2693.441,538.591Z" transform="translate(-2650.572 -493.955)" fill="#ff7491"/>
            <path id="Trazado_697653" data-name="Trazado 697653" d="M2693.441,538.591a1.131,1.131,0,0,0,.477-.66c1.858-6.8,6.664-13.431,11.958-16.488s10.1-1.981,11.96,2.683c.1.246.389.23.651-.034a.979.979,0,0,0,.3-.925c-2-5.037-7.194-6.2-12.911-2.9s-10.9,10.453-12.909,17.8c-.1.36.035.621.3.582A.438.438,0,0,0,2693.441,538.591Z" transform="translate(-2650.572 -493.955)" fill="#ff7491" opacity="0.3" style="mix-blend-mode: overlay;isolation: isolate"/>
          </g>
        </g>
      </g>
    </g>
  </g>
</svg>
