<svg xmlns="http://www.w3.org/2000/svg" width="111.268" height="230.92" viewBox="0 0 111.268 230.92">
  <g id="Grupo_913102" data-name="Grupo 913102" transform="translate(0)">
    <path id="Trazado_707636" data-name="Trazado 707636" d="M524.23,394.141c-5.448-7.263-16.591-9.8-13.87-14.841,1.865-4.929,14.013-9.984,24.179-11.417,10.524-1.457,14.571,5.858,23.853,4.709,11.34-1.405,19.729,7.882,25.021,12.385,11.838,8.952-8.711,23.317-20.414,19.4C550.319,400.133,533.674,406.672,524.23,394.141Z" transform="translate(-509.939 -174.12)" opacity="0.05"/>
    <g id="Grupo_913101" data-name="Grupo 913101" transform="translate(8.938 0)">
      <path id="Trazado_707637" data-name="Trazado 707637" d="M557.377,219.265c-1.121-.4-2.145,6.132,1.167,7.854s-16.917,1.413-15.464-.35.919-3.614,2.139-3.549,6.26-4.8,3.4-9.835,5.879-4.418,6.889-3.086,4.823,2.314,3.961,3.995S559.1,219.88,557.377,219.265Z" transform="translate(-527.63 -188.787)" fill="#ffbd99"/>
      <path id="Trazado_707638" data-name="Trazado 707638" d="M557.377,219.265c-1.121-.4-2.145,6.132,1.167,7.854s-16.917,1.413-15.464-.35.919-3.614,2.139-3.549,6.26-4.8,3.4-9.835,5.879-4.418,6.889-3.086,4.823,2.314,3.961,3.995S559.1,219.88,557.377,219.265Z" transform="translate(-527.63 -188.787)" opacity="0.2" style="mix-blend-mode: overlay;isolation: isolate"/>
      <path id="Trazado_707639" data-name="Trazado 707639" d="M556.118,201.519a3.3,3.3,0,0,0-5.777-.78c-2.7,3.424-2.894,4.924-6.12,8.562a11.145,11.145,0,0,1-.851.86,5.147,5.147,0,0,0-.163-.9c-.535-1.941-2.037-3.217-3.355-2.857s-1.961,2.231-1.425,4.172a4.485,4.485,0,0,0,1.507,2.386c2.175,3.51,2.7,4.814,6.475,6.344,3.032,1.228,6.989,1.824,7.768-.636.639-2.006,2.651-3.555,2.651-6.535,0-1.941-1.036-5.468-.743-7.158A10.044,10.044,0,0,0,556.118,201.519Z" transform="translate(-519.656 -189.713)" fill="#ffbd99"/>
      <path id="Trazado_707640" data-name="Trazado 707640" d="M556.118,201.519a3.3,3.3,0,0,0-5.777-.78c-2.7,3.424-2.894,4.924-6.12,8.562a11.145,11.145,0,0,1-.851.86,5.147,5.147,0,0,0-.163-.9c-.535-1.941-2.037-3.217-3.355-2.857s-1.961,2.231-1.425,4.172a4.485,4.485,0,0,0,1.507,2.386c2.175,3.51,2.7,4.814,6.475,6.344,3.032,1.228,6.989,1.824,7.768-.636.639-2.006,2.651-3.555,2.651-6.535,0-1.941-1.036-5.468-.743-7.158A10.044,10.044,0,0,0,556.118,201.519Z" transform="translate(-519.656 -189.713)" opacity="0.2" style="mix-blend-mode: overlay;isolation: isolate"/>
      <path id="Trazado_707641" data-name="Trazado 707641" d="M540.193,218.623c2.068-.862,1.935.908,4.176-2.783s1.391-7.2,1.635-10.228.216-3.025-1.635-5.569c-.161-.219-.315-.437-.471-.656a3.226,3.226,0,0,1,3.445,2.131,10.039,10.039,0,0,1-.034,3.453c-.293,1.69.743,5.217.743,7.158,0,2.98-2.012,4.529-2.651,6.535-.5,1.594-2.349,1.9-4.406,1.583a.884.884,0,0,1-.369-.057c-1.121-.4-2.145,6.132,1.167,7.854,1.129.59-.49.834-3.054.922-.2-2.151-.224-4.14-.349-5C538.054,221.6,538.121,219.487,540.193,218.623Z" transform="translate(-510.881 -189.712)" opacity="0.2" style="mix-blend-mode: overlay;isolation: isolate"/>
      <g id="Grupo_913099" data-name="Grupo 913099" transform="translate(0 35.741)">
        <path id="Trazado_707642" data-name="Trazado 707642" d="M553.836,276.509c1,1.8,1.114,3.161,2.57,4.6s3,3.3,2.9,4.384a15.826,15.826,0,0,1-.238,3.447c-.389,1.615-.364,2.1-.762,2.175s-.3-.033-.766.409-.514.074-1.063.476a2.043,2.043,0,0,1-1.237.373c-.346.057-1.84.263-1.833-.547s.293-1.09.925-1.169.633-.453.363-.814a23.893,23.893,0,0,0-1.436-1.956c-.9-1.092-2.33-2.687-2.658-4.56s.318-2.751-1.384-4.562S551.26,271.909,553.836,276.509Z" transform="translate(-533.662 -218.482)" fill="#ffbd99"/>
        <path id="Trazado_707643" data-name="Trazado 707643" d="M551.52,260.845c2.154,5.187,3.522,6.966,7.136,12.175,2.1,3.023,5.939,6.7,7.729,9.281.192.279.945,1.166,2.244,2.559,1.405,1.5,2.7,4.019,3.127,2.976,1.331-3.215.663-4.519-1.57-8.616s-7.28-11.565-9.334-14.729a20.7,20.7,0,0,1-2.925-6.985c-.734-3.331-2.284-1.076-3.961-1.124A3.06,3.06,0,0,0,551.52,260.845Z" transform="translate(-549.449 -220.237)" fill="#ffbd99"/>
        <path id="Trazado_707644" data-name="Trazado 707644" d="M565.249,292.815c1.28-1.353-1.231-4.59-2.463-6.607s-.224-3.918-1.011-5.936-1.566-2.8-7.726-10.3-5.254-7.958-5.169-11.541c.014-.677.071-1.436.151-2.23,1.276-.448,2.385-1.356,2.973,1.309a20.7,20.7,0,0,0,2.925,6.985c2.054,3.163,7.108,10.63,9.334,14.729.724,1.322,1.26,2.34,1.641,3.241.112.133.229.269.365.405,1.459,1.438,3,3.3,2.9,4.384a15.825,15.825,0,0,1-.238,3.447c-.389,1.615-.364,2.1-.762,2.175s-.3-.033-.766.409-.514.074-1.063.476a2.043,2.043,0,0,1-1.237.373c-.346.057-1.84.263-1.833-.547a1.841,1.841,0,0,1,.043-.375A2.274,2.274,0,0,0,565.249,292.815Z" transform="translate(-543.526 -220.237)" opacity="0.3" style="mix-blend-mode: overlay;isolation: isolate"/>
        <path id="Trazado_707645" data-name="Trazado 707645" d="M569.859,223.26c2.876,2.7,3.16,4.518,3.245,9.341.094,5.1-.972,23.07-1.043,27.351s-.835,5.63-4.185,4.991c-1.757-.337-3.008-.842-3.221-3.277-.208-2.356-1.578-12.856-1.589-15.671-.014-4.94.422-11.426,1.907-16.415A10.213,10.213,0,0,1,569.859,223.26Z" transform="translate(-563.066 -223.24)" fill="#00d19c"/>
        <path id="Trazado_707646" data-name="Trazado 707646" d="M569.859,223.26c2.876,2.7,3.16,4.518,3.245,9.341.094,5.1-.972,23.07-1.043,27.351s-.835,5.63-4.185,4.991c-1.757-.337-3.008-.842-3.221-3.277-.208-2.356-1.578-12.856-1.589-15.671-.014-4.94.422-11.426,1.907-16.415A10.213,10.213,0,0,1,569.859,223.26Z" transform="translate(-563.066 -223.24)" fill="#a9c5db"/>
        <path id="Trazado_707647" data-name="Trazado 707647" d="M569.859,223.26c2.876,2.7,3.16,4.518,3.245,9.341.094,5.1-.972,23.07-1.043,27.351s-.835,5.63-4.185,4.991c-1.757-.337-3.008-.842-3.221-3.277-.208-2.356-1.578-12.856-1.589-15.671-.014-4.94.422-11.426,1.907-16.415A10.213,10.213,0,0,1,569.859,223.26Z" transform="translate(-563.066 -223.263)" opacity="0.1" style="mix-blend-mode: overlay;isolation: isolate"/>
        <path id="Trazado_707648" data-name="Trazado 707648" d="M565.409,231.652c0-4.449-.269-5.437-2.344-6.651a9.34,9.34,0,0,1,2.35-1.759,4.652,4.652,0,0,1,.363.4c2.516,2.5,2.76,4.361,2.84,8.961.094,5.1-.972,23.07-1.043,27.351-.068,4.024-.773,5.432-3.632,5.062a89.18,89.18,0,0,1,.3-9.068C564.417,251.127,565.409,237.919,565.409,231.652Z" transform="translate(-558.581 -224.242)" opacity="0.1" style="mix-blend-mode: overlay;isolation: isolate"/>
      </g>
      <path id="Trazado_707649" data-name="Trazado 707649" d="M556.929,359.281c-.21,4.5.15,5.264,1.776,10.336,2.233,6.988,2.072,5.428,4.787,6.237s1.661,2.976.185,5.935-7.38.455-11-.553-1.924-4.2-3.481-7.4,1.719-2.407,1.39-12.927c-.006-.2-.025-.369-.034-.562C552.208,361.608,555.66,360.745,556.929,359.281Z" transform="translate(-539.513 -174.899)" fill="#ffbd99"/>
      <path id="Trazado_707650" data-name="Trazado 707650" d="M563.729,380.83c-1.476,2.959-7.38.455-11-.553s-1.884-4.219-3.481-7.4a2.761,2.761,0,0,1-.028-3.047,8.717,8.717,0,0,1,8.974,3.89c1.418,2.392,3.294,4.611,4.35,3.44.865-.963-.352-1.86-1.223-2.807a19.971,19.971,0,0,0,2.221.542C566.257,375.709,565.206,377.872,563.729,380.83Z" transform="translate(-539.567 -173.94)" fill="#315271"/>
      <path id="Trazado_707651" data-name="Trazado 707651" d="M548.833,370.9a4.474,4.474,0,0,1,.7-1.947c.811-.853,3.767-.38,5.5.633.891.523,1.855,1.821,3.053,4.108.028.046.057.083.082.131,1.418,2.392,3.294,4.611,4.35,3.44.865-.963-.352-1.86-1.223-2.807a19.985,19.985,0,0,0,2.221.542c2.712.814,1.661,2.976.185,5.935s-7.38.454-11-.553c-2.6-.727-2.434-2.6-2.735-4.781a8.169,8.169,0,0,0-.746-2.618,4.114,4.114,0,0,1-.451-1.295A5.7,5.7,0,0,1,548.833,370.9Z" transform="translate(-539.543 -174.044)" fill="#315271"/>
      <path id="Trazado_707652" data-name="Trazado 707652" d="M545.72,336.357c.051-.32.11-.638.167-.956.086-.462.176-.919.275-1.37.057-.258.114-.517.176-.772.171-.711.525-3.47.525-3.47,1.59-12.078-.09-25.68-1.594-33.423-.02-.145-.043-.29-.062-.426a37.783,37.783,0,0,1-1.058-9.048c0-.636.016-1.26.045-1.877v-.043a25.188,25.188,0,0,1,1.859-9.958,19.113,19.113,0,0,1,1.257-2.765c.453-.932.9-1.823,1.274-2.73a5.611,5.611,0,0,0,.366.467,5.66,5.66,0,0,1,2.217-1.5,12.5,12.5,0,0,1,1.214-3.417c4.6-5.13,5.658-1.612,8.667,1.13a121.751,121.751,0,0,1,6.867,21.1c1.144,6.131-12.028,62.176-12.783,73.854-.21,3.195-.366,5.405-.445,7.1-1.269,1.464-4.721,2.327-6.376,1.068-.048-1-4.236-20.466-2.77-31.679C545.6,337.21,545.652,336.78,545.72,336.357Z" transform="translate(-537.27 -183.869)" fill="#315271"/>
      <path id="Trazado_707653" data-name="Trazado 707653" d="M552.737,360.385c-.754,11.676-.9,10.447,1.331,17.435s2.072,5.428,4.787,6.237,1.661,2.976.185,5.935-7.38.454-11-.553-1.924-4.2-3.481-7.4a3.539,3.539,0,0,1-.412-1.405,16.424,16.424,0,0,1,6.384,1.215c1.2.573-.707-4.628-.911-5.714s.61-31.477,1.059-41.127,5.317-30.234,3.467-34.785c-5.675-13.965-.743-18.156,6.864-29.489,1.589,5.6,4.066,13.433,4.508,15.8C566.663,292.661,553.492,348.707,552.737,360.385Z" transform="translate(-534.876 -183.101)" opacity="0.2" style="mix-blend-mode: overlay;isolation: isolate"/>
      <path id="Trazado_707654" data-name="Trazado 707654" d="M556.845,374.322c2.032,3.129,4.355,7.595,6.228,5.6a30.827,30.827,0,0,0,2-2.383,19.108,19.108,0,0,1-1.34,3.092c-1.476,2.959-7.38.455-11-.553s-1.924-4.2-3.481-7.4a4.453,4.453,0,0,1-.341-.928C551.761,371.816,555.519,372.273,556.845,374.322Z" transform="translate(-539.575 -173.744)" fill="#315271"/>
      <path id="Trazado_707655" data-name="Trazado 707655" d="M556.845,374.322c2.032,3.129,4.355,7.595,6.228,5.6a30.827,30.827,0,0,0,2-2.383,19.108,19.108,0,0,1-1.34,3.092c-1.476,2.959-7.38.455-11-.553s-1.924-4.2-3.481-7.4a4.453,4.453,0,0,1-.341-.928C551.761,371.816,555.519,372.273,556.845,374.322Z" transform="translate(-539.575 -173.744)" opacity="0.3" style="mix-blend-mode: overlay;isolation: isolate"/>
      <path id="Trazado_707656" data-name="Trazado 707656" d="M537.017,366.046a24.546,24.546,0,0,0,1.236,9.834c2.469,7.431,4.646,12.515,7.006,12.779s6.589,2.82,3.524,5.155-5.189,2.4-9.065.284-4.926-8.251-10.223-8.9c-2.823-.345-4.081-2.358-2.985-4.97s2.65-4.844,2.422-12.122c0-.077-.011-.15-.014-.229C530.54,369.65,535.621,367.958,537.017,366.046Z" transform="translate(-499.442 -174.272)" fill="#ffbd99"/>
      <path id="Trazado_707657" data-name="Trazado 707657" d="M537.8,302.245c-1.32-2.593-10.242-13.922-3.98-26.984,7.513-15.663,13.392-16.4,18.585-7.048,3.535,6.364,6.248,13.168,6.681,26.989.487,15.617-6.588,77.1-6.809,80.469-1.4,1.912-6.477,3.6-8.1,1.827,0-.059-.005-.13-.009-.193l-.027.193c-1.791-9.1-4.4-25.127-2.412-38.366-.13-2.477-.232-4.753-.294-6.7C541.281,327.456,538.6,303.823,537.8,302.245Z" transform="translate(-514.703 -183.899)" fill="#315271" fill-rule="evenodd"/>
      <path id="Trazado_707658" data-name="Trazado 707658" d="M526.117,381.1a11.512,11.512,0,0,1,1.416-4.651c4.307-.181,9.014,5.147,11.173,9.032l.522.86-.012,0c.19.261.378.522.543.789,1.71,2.76,3.4,4.852,5.944,3.339,2.241-1.333.984-1.872-.565-2.8.039.008.079.025.116.031,2.363.26,6.589,2.82,3.524,5.155s-5.189,2.4-9.064.284-4.926-8.25-10.223-8.9c-2.1-.258-3.3-1.45-3.337-3.117Z" transform="translate(-499.438 -173.309)" fill="#315271" fill-rule="evenodd"/>
      <path id="Trazado_707659" data-name="Trazado 707659" d="M537.1,268.2c3.535,6.364,6.248,13.168,6.682,26.989.487,15.617-6.588,77.1-6.809,80.469a24.545,24.545,0,0,0,1.236,9.834c2.469,7.431,4.646,12.515,7.006,12.779s6.589,2.82,3.524,5.155-5.189,2.4-9.064.284-4.926-8.25-10.223-8.9c-1.97-.24-3.15-1.3-3.331-2.8l0,0c1.1-.416,3.76,1.087,5.544,1.661,2.505.805,1.493-4.206,2.154-10.686s-.744-34.373,1.58-80.635c.839-16.715-4.37-20.738-4.389-25.131a111.2,111.2,0,0,0-1.333-14.848,5.742,5.742,0,0,1,1.687-.059h.005C533.389,262.907,535.288,264.936,537.1,268.2Z" transform="translate(-499.395 -183.885)" opacity="0.2" style="mix-blend-mode: overlay;isolation: isolate"/>
      <path id="Trazado_707660" data-name="Trazado 707660" d="M536.958,386.8c3.234,4.1,4.725,8.676,9.672,5.748a20.443,20.443,0,0,0,3.1-2.222A2.075,2.075,0,0,1,548.7,392.4c-3.062,2.335-5.189,2.4-9.064.284s-4.926-8.25-10.223-8.9c-1.825-.224-2.98-1.148-3.286-2.477C528.962,382.235,534.078,383.152,536.958,386.8Z" transform="translate(-499.358 -172.859)" fill="#315271"/>
      <path id="Trazado_707661" data-name="Trazado 707661" d="M536.958,386.8c3.234,4.1,4.725,8.676,9.672,5.748a20.443,20.443,0,0,0,3.1-2.222A2.075,2.075,0,0,1,548.7,392.4c-3.062,2.335-5.189,2.4-9.064.284s-4.926-8.25-10.223-8.9c-1.825-.224-2.98-1.148-3.286-2.477C528.962,382.235,534.078,383.152,536.958,386.8Z" transform="translate(-499.358 -172.859)" opacity="0.3" style="mix-blend-mode: overlay;isolation: isolate"/>
      <path id="Trazado_707662" data-name="Trazado 707662" d="M545.393,382.881c1.75.78,2.406-.073,1.8,1.964s.344,10.045-.065,10.475a.836.836,0,0,1-1.341.044c-.492-.46-.628-9.222-1.921-11.2S543.747,382.149,545.393,382.881Z" transform="translate(-515.785 -172.753)" fill="#315271"/>
      <path id="Trazado_707663" data-name="Trazado 707663" d="M560.843,373.026c1.752.779,2.406-.075,1.8,1.961s.34,10.045-.066,10.478a.842.842,0,0,1-1.345.043c-.491-.46-.624-9.224-1.918-11.2S559.2,372.292,560.843,373.026Z" transform="translate(-548.118 -173.666)" fill="#315271"/>
      <path id="Trazado_707664" data-name="Trazado 707664" d="M539.952,221.925c5.992.193,10.663,1.17,14.9,3.164a65.085,65.085,0,0,1,9.191,5.205c.045.034.085.056.133.09.068.05.133.1.2.145.445.319.876.641,1.276.965a12.481,12.481,0,0,0,4.506,1.5c2.239.446.947,1.812-1.1,2.8,1.294,5.909,5.215,7.759,3.472,12.724-1.552,4.421-4.865,3.907-5.711,9.089s-.485,20.407-1.134,21.1-10.08,4.351-19.045.706c-.142-.057-.263-.11-.4-.167-5.516-2.271-8.721-4.161-9.9-5.967a13.148,13.148,0,0,0,1.135-5.248c0-6.96-.76-8.037-2.375-14.875a3.463,3.463,0,0,0-.185-.543c-.113-.37-.224-.716-.331-1-.52-1.192-1.067-2.326-1.631-3.357-4-7.271-4.568-13.911-4.568-20.182C528.379,222.243,537.282,221.877,539.952,221.925Z" transform="translate(-525.022 -187.623)" fill="#a9c5db"/>
      <path id="Trazado_707665" data-name="Trazado 707665" d="M539.732,243.167c-4.588-.2-14.1,1.261-14.729,13.145s-12.825,3.96-9.831-6.139,1.889-14.911,9.831-14.306,18.837.1,20.653,2.835S543.355,243.323,539.732,243.167Z" transform="translate(-483.21 -186.336)" fill="#a9c5db"/>
      <path id="Trazado_707666" data-name="Trazado 707666" d="M551.837,234.095c-6.591-1.26-11.7-3.21-21.315-8.153s-13.7,4.183-10.8,8.153,21.972,6.6,27.873,5.333S562.889,236.208,551.837,234.095Z" transform="translate(-498.559 -187.384)" fill="#a0bfd7"/>
      <path id="Trazado_707667" data-name="Trazado 707667" d="M514.7,226.712c.8-2.817,4.077-4,7.025-4.48l.021,0c.281-.046.556-.085.828-.118l.091-.011q.379-.046.74-.078c.046,0,.092-.007.137-.01.222-.019.437-.034.645-.047l.2-.01c.176-.009.352-.017.513-.022l.3-.007c.11,0,.227-.005.329-.005.2,0,.377,0,.537,0,5.992.193,10.663,1.17,14.9,3.164.559.262,1.156.559,1.764.865a11.6,11.6,0,0,0,1.157.6c.4.209.786.409,1.189.627,1.5.755,2.854,1.406,4.156,2.015,4.387,2.549,5.655,4.545,9.491,6.4a11.252,11.252,0,0,0-3.558.191c.119.545.27,1.047.426,1.529,7.527.372,16.368.233,17.988,2.674,1.816,2.735-2.3,4.621-5.924,4.465a16.414,16.414,0,0,0-8.6,1.91,6.769,6.769,0,0,1-.063.723c-.013.1-.032.192-.05.292a7.963,7.963,0,0,1-.3,1.132c-1.552,4.421-4.865,3.907-5.711,9.089a19.481,19.481,0,0,1-.269,2.4c-.5,6.4-.3,18.092-.865,18.7a1.426,1.426,0,0,1-.279.19c-.037.023-.091.048-.135.071-.111.059-.239.121-.392.19-.062.028-.131.057-.2.087-.182.077-.387.156-.611.239-.064.025-.125.048-.193.07a22.592,22.592,0,0,1-2.315.681l-.025.007c-.431.1-.894.2-1.372.288-.071.012-.145.026-.219.037-.438.079-.892.15-1.362.209-.085.012-.17.023-.258.032-.531.065-1.078.116-1.646.148l-.037,0h0c0-5.695,2.4-5.695,2.4-13.742,0-5.651-1.533-12.331-1.533-16.229,0-5.9,1.515-7.875,3.814-12.988.2-.449.385-.844.565-1.206l0-.009c.8-1.841,1.081-3.162.009-3.919l-.147-.1c-.149-.1-.293-.2-.44-.3-.32-.212-.649-.424-.982-.634l-.161-.1q-.57-.356-1.155-.7c-2.091-1.24-4.268-2.366-6.126-3.24-4.242-1.994-8.911-2.971-14.9-3.164-1.83-.032-6.582.131-9.4,2.109Z" transform="translate(-511.142 -186.183)" opacity="0.1" style="mix-blend-mode: overlay;isolation: isolate"/>
      <path id="Trazado_707668" data-name="Trazado 707668" d="M540.269,196.251a11.129,11.129,0,0,1,1.909-2.216c.1-.094.2-.19.309-.281.071-.06.145-.117.215-.174.1-.082.2-.164.3-.24l.014.005a14.622,14.622,0,0,1,8.776-2.815c7.207,0,13.052,4.823,13.052,10.776a9.087,9.087,0,0,1-.809,3.7c-.009.026-.011.051-.021.076-1.968,5.9-2.726,4.426-3.444,10.027-1.708,13.29,5.286,11.34,6.1,17.725a60.118,60.118,0,0,0-5.91-3.476l-.023-.014c-2.729-1.351-3.756.2-9.062-1.019s-9.025-2.465-12.935-11.541C536.24,210.982,536.243,202,540.269,196.251Z" transform="translate(-528.17 -190.531)" fill="#315271"/>
      <path id="Trazado_707669" data-name="Trazado 707669" d="M563.359,201.307a9.088,9.088,0,0,1-.809,3.7c-.009.026-.011.051-.021.076-1.968,5.9-2.726,4.426-3.444,10.027-1.708,13.29,5.286,11.34,6.1,17.725a60.139,60.139,0,0,0-5.91-3.476l-.023-.014c-2.729-1.351-3.756.2-9.062-1.019s-9.025-2.465-12.935-11.541c-.083-.19-.153-.394-.233-.6,4.21,7.127,14.878,9.7,14.081,2.868-1.429-12.248,3.694-16.376,5.042-21.5,1.208-4.612-6.628-6.019-10.838-6.2a15.3,15.3,0,0,1,5-.831C557.514,190.531,563.359,195.354,563.359,201.307Z" transform="translate(-526.686 -190.531)" opacity="0.2" style="mix-blend-mode: overlay;isolation: isolate"/>
      <g id="Grupo_913100" data-name="Grupo 913100" transform="translate(82.892 24.974)">
        <path id="Trazado_707670" data-name="Trazado 707670" d="M480.913,233.271c.79-.7,4.861-4.656,6.49-4.88s2.616-.447,3.512-1.632.869-.8,1.16-.839a14.545,14.545,0,0,0,1.467.14c.5-.069,1.093-.7,1.487-1.222s.453-1.192.8-1.642-.267-1.338.017-1.712.341-.929-.846-1.827a9.675,9.675,0,0,0-1.5-1.028s.576-.757,1.135-1.345a8,8,0,0,1,1.943-1.627c.865-.5,1.9-1.663,1.281-2.132s-2.248.352-3.413,1.149a24.8,24.8,0,0,1-3.7,2.164,11.57,11.57,0,0,0-3.371,2.376c-1.552,1.4-3.444,3.537-5.867,5.456-2.7,2.139-3.526,3.825-2.437,5.25S479.572,234.462,480.913,233.271Z" transform="translate(-478.604 -213.388)" fill="#ffbd99"/>
        <path id="Trazado_707671" data-name="Trazado 707671" d="M486.124,228.353c1.626-.224,2.616-.447,3.512-1.632s.869-.8,1.16-.839a14.545,14.545,0,0,0,1.467.14c.5-.069,1.093-.7,1.487-1.222s.453-1.192.8-1.642-.267-1.338.017-1.712.341-.929-.846-1.827a9.673,9.673,0,0,0-1.5-1.028s.576-.757,1.135-1.345a8,8,0,0,1,1.943-1.627,4.148,4.148,0,0,0,.486-.344l.08-.063a4.058,4.058,0,0,0,.445-.443l.012-.012a1.423,1.423,0,0,0,.425-.952v0c-2.023,1.425-5.862,4.485-5.237,5.107a3.483,3.483,0,0,1,1.093,2.9c-.149,1.18-1.385,1.733-2.761,2.386-1.3.614-2.926.178-11.219,6.063a8.321,8.321,0,0,1,.817,3.124,1.343,1.343,0,0,0,.2-.151C480.423,232.535,484.494,228.577,486.124,228.353Z" transform="translate(-477.324 -213.349)" opacity="0.3" style="mix-blend-mode: overlay;isolation: isolate"/>
      </g>
      <path id="Trazado_707672" data-name="Trazado 707672" d="M494.925,236.779a3.157,3.157,0,0,0-1.187-.416,3.388,3.388,0,0,0,1.155-.516L511.3,224.6l1.086,7.107-11.687,10.631a11.2,11.2,0,0,1-2.851,1.792,2.823,2.823,0,0,0,.42-1.557A7.378,7.378,0,0,0,494.925,236.779Z" transform="translate(-426.587 -187.375)" fill="#ffbd99"/>
      <path id="Trazado_707673" data-name="Trazado 707673" d="M506.754,235.757a5.207,5.207,0,0,1,6.14-4.149l22.3,4.151a3.353,3.353,0,0,0,1.444-.037,3.157,3.157,0,0,1,1.187.416,7.378,7.378,0,0,1,3.339,5.793,2.823,2.823,0,0,1-.42,1.557,11.233,11.233,0,0,1-5.519.883l-23.521-2.059A5.563,5.563,0,0,1,506.754,235.757Z" transform="translate(-469.488 -186.735)" fill="#a9c5db"/>
      <path id="Trazado_707674" data-name="Trazado 707674" d="M497.372,237.06a4.092,4.092,0,0,1-3.634.789l0,0a8,8,0,0,1,1.245,2.077c.017.039.029.08.046.118a7.617,7.617,0,0,1,.284.916c.02.083.042.166.059.25a5.179,5.179,0,0,1,.114,1.027,2.823,2.823,0,0,1-.42,1.557,11.2,11.2,0,0,0,2.851-1.792l11.687-10.631-.491-3.211C508.518,228.631,497.379,237.058,497.372,237.06Z" transform="translate(-423.812 -187.045)" opacity="0.3" style="mix-blend-mode: overlay;isolation: isolate"/>
      <path id="Trazado_707675" data-name="Trazado 707675" d="M512.252,231.543c2.653,2.079,23.77,7.111,27.162,5.994a7.3,7.3,0,0,1,1.751,4.392,2.822,2.822,0,0,1-.42,1.557,11.233,11.233,0,0,1-5.519.883l-23.521-2.059a5.563,5.563,0,0,1-4.951-6.556A5.192,5.192,0,0,1,512.252,231.543Z" transform="translate(-469.487 -186.733)" opacity="0.1" style="mix-blend-mode: overlay;isolation: isolate"/>
    </g>
  </g>
</svg>
