<svg id="Grupo_913120" data-name="Grupo 913120" xmlns="http://www.w3.org/2000/svg" width="34.942" height="53.994" viewBox="0 0 34.942 53.994">
  <path id="Trazado_707627" data-name="Trazado 707627" d="M491.087,177.528c-6.414,3.7-12.34,5.351-15.526,4.338-.324-.1-.773.155-1.1.633-3.187,4.695-9.119,9.891-15.476,13.564a2.107,2.107,0,0,0-.955,1.578l0,23.262a8.249,8.249,0,0,0,4.376,7.5h0l-.972-.562-.012-.007-.155-.089,0,0a8.22,8.22,0,0,1-4.228-7.411V197.075a2.091,2.091,0,0,1,.955-1.578c6.359-3.675,12.287-8.871,15.476-13.567.324-.476.772-.734,1.1-.632,3.187,1.012,9.113-.635,15.527-4.338a.586.586,0,0,1,.64-.075l.97.561A.594.594,0,0,0,491.087,177.528Z" transform="translate(-457.05 -176.82)" fill="#4dd0e1"/>
  <path id="Trazado_707628" data-name="Trazado 707628" d="M491.087,177.528c-6.414,3.7-12.34,5.351-15.526,4.338-.324-.1-.773.155-1.1.633-3.187,4.695-9.119,9.891-15.476,13.564a2.107,2.107,0,0,0-.955,1.578l0,23.262a8.249,8.249,0,0,0,4.376,7.5h0l-.972-.562-.012-.007-.155-.089,0,0a8.22,8.22,0,0,1-4.228-7.411V197.075a2.091,2.091,0,0,1,.955-1.578c6.359-3.675,12.287-8.871,15.476-13.567.324-.476.772-.734,1.1-.632,3.187,1.012,9.113-.635,15.527-4.338a.586.586,0,0,1,.64-.075l.97.561A.594.594,0,0,0,491.087,177.528Z" transform="translate(-457.049 -176.82)" opacity="0.4" style="mix-blend-mode: overlay;isolation: isolate"/>
  <path id="Trazado_707629" data-name="Trazado 707629" d="M491.2,177.638c-6.358,3.673-12.286,5.322-15.475,4.306-.322-.1-.772.16-1.1.634-3.183,4.689-9.112,9.887-15.523,13.589a1.934,1.934,0,0,0-.905,1.551v23.266c0,10.79,15.932,9.939,16.614,9.9a.811.811,0,0,0,.364-.121,1.591,1.591,0,0,0,.367-.3c.676-.742,16.611-18.291,16.611-29.08V178.114C492.16,177.543,491.7,177.355,491.2,177.638Z" transform="translate(-457.217 -176.92)" fill="#4dd0e1"/>
  <path id="Trazado_707630" data-name="Trazado 707630" d="M472.223,208.432l.286-.494,3.657,2.1,4.62-8c-2.429-.631-5.841,1.577-8.031,5.369a14.93,14.93,0,0,0-.961,2C471.926,209.087,472.066,208.759,472.223,208.432Z" transform="translate(-459.188 -180.462)" opacity="0.2" style="mix-blend-mode: overlay;isolation: isolate"/>
  <path id="Trazado_707631" data-name="Trazado 707631" d="M481.4,213.081a11.831,11.831,0,0,0,1.755-7.032l-5.164,8.941-5.049-2.913h0l-.986-.569h0l-.693-.4c.1-.326.214-.654.34-.986-1.343,3.512-1.012,6.859,1.01,8.024C475.041,219.55,478.973,217.281,481.4,213.081Z" transform="translate(-459.044 -181.058)" opacity="0.2" style="mix-blend-mode: overlay;isolation: isolate"/>
  <path id="Trazado_707632" data-name="Trazado 707632" d="M481.63,213.081a11.831,11.831,0,0,0,1.755-7.032l-1.05,1.816a13.609,13.609,0,0,1-1.692,4.647c-2.257,3.912-5.821,6.146-8.261,5.3a2.915,2.915,0,0,0,.463.334C475.27,219.55,479.2,217.281,481.63,213.081Z" transform="translate(-459.273 -181.058)" opacity="0.4" style="mix-blend-mode: overlay;isolation: isolate"/>
  <path id="Trazado_707633" data-name="Trazado 707633" d="M473.022,211.339h0l1.392-2.407,3.657,2.1,5.493-9.5.4.235h0l-1.394-.8-.823,1.43a3.159,3.159,0,0,0-.275-.191,3.019,3.019,0,0,0-.755-.3l-4.62,8-3.657-2.1-.286.494a14.215,14.215,0,0,0-.813,2.083l.693.4h0Z" transform="translate(-459.123 -180.321)" fill="#4dd0e1"/>
  <path id="Trazado_707634" data-name="Trazado 707634" d="M473.022,211.339h0l1.392-2.407,3.657,2.1,5.493-9.5.4.235h0l-1.394-.8-.823,1.43a3.159,3.159,0,0,0-.275-.191,3.019,3.019,0,0,0-.755-.3l-4.62,8-3.657-2.1-.286.494a14.215,14.215,0,0,0-.813,2.083l.693.4h0Z" transform="translate(-459.123 -180.321)" opacity="0.4" style="mix-blend-mode: overlay;isolation: isolate"/>
  <path id="Trazado_707635" data-name="Trazado 707635" d="M478.355,214.349l-5.049-2.913,1.392-2.407,3.657,2.1,5.493-9.5,1.392.8Z" transform="translate(-459.407 -180.417)" fill="#fff" opacity="0.7"/>
</svg>
