<svg xmlns="http://www.w3.org/2000/svg" width="49.67" height="85.313" viewBox="0 0 49.67 85.313">
  <g id="Grupo_913131" data-name="Grupo 913131" transform="translate(0.001)">
    <path id="Trazado_697547" data-name="Trazado 697547" d="M1885.943,505.293v-51.5a7.962,7.962,0,0,0-3.6-6.238l-41.257-23.82a2.539,2.539,0,0,0-2.547-.257l1.2-.692s0,0,0,0l.036-.018,0,.005a2.56,2.56,0,0,1,2.51.269l41.256,23.819a7.961,7.961,0,0,1,3.6,6.241l0,51.5a2.523,2.523,0,0,1-1.08,2.339h0l-1.18.681A2.527,2.527,0,0,0,1885.943,505.293Z" transform="translate(-1837.477 -422.549)" fill="#3da4b2"/>
    <path id="Trazado_697548" data-name="Trazado 697548" d="M1885.943,505.293v-51.5a7.962,7.962,0,0,0-3.6-6.238l-41.257-23.82a2.539,2.539,0,0,0-2.547-.257l1.2-.692s0,0,0,0l.036-.018,0,.005a2.56,2.56,0,0,1,2.51.269l41.256,23.819a7.961,7.961,0,0,1,3.6,6.241l0,51.5a2.523,2.523,0,0,1-1.08,2.339h0l-1.18.681A2.527,2.527,0,0,0,1885.943,505.293Z" transform="translate(-1837.477 -422.549)" opacity="0.4" style="mix-blend-mode: overlay;isolation: isolate"/>
    <path id="Trazado_697549" data-name="Trazado 697549" d="M1833.893,479.645a7.966,7.966,0,0,0,3.6,6.241l41.257,23.822c1.99,1.148,3.6.219,3.6-2.077v-51.5a7.962,7.962,0,0,0-3.6-6.238l-41.257-23.82c-1.991-1.153-3.6-.222-3.6,2.075Z" transform="translate(-1833.893 -424.886)" fill="#3da4b2"/>
    <path id="Trazado_697550" data-name="Trazado 697550" d="M1881.544,515.764c-2.892-1.667-5.517-1.841-7.44-.779h0c.05-.03.1-.06.152-.087a1.645,1.645,0,0,1,.149-.086,1.508,1.508,0,0,1,.15-.087c.05-.029.1-.06.15-.088s.1-.059.149-.086l.148-.088c.053-.029.1-.059.153-.086,1.932-1.158,4.619-1.022,7.585.692a1.806,1.806,0,0,1,.82,1.415.511.511,0,0,1-.328.546,54.586,54.586,0,0,0-.3.173,134.138,134.138,0,0,0-.3.174.321.321,0,0,1-.151.086.346.346,0,0,1-.149.089.386.386,0,0,1-.149.086h0a.616.616,0,0,0,.178-.461A1.812,1.812,0,0,0,1881.544,515.764Zm4.1,14.648,0,2.754a.582.582,0,0,1-.18.454h0a.412.412,0,0,0,.151-.086.427.427,0,0,0,.15-.087.386.386,0,0,0,.151-.088.4.4,0,0,0,.15-.086.38.38,0,0,0,.15-.087,15.8,15.8,0,0,1,.3-.173.512.512,0,0,0,.328-.545l.008-2.752a7.073,7.073,0,0,0-.317-2.007,13.874,13.874,0,0,0-2.217-3.828,7.073,7.073,0,0,0-1.57-1.271,2.811,2.811,0,0,0-2.964-.23c-.051.027-.1.053-.151.086s-.1.055-.15.089a1.351,1.351,0,0,0-.149.086,1.632,1.632,0,0,0-.152.086c-.051.028-.1.055-.149.088a1.444,1.444,0,0,0-.149.086,1.369,1.369,0,0,0-.151.087h0a2.909,2.909,0,0,1,2.815.316A9.08,9.08,0,0,1,1885.644,530.412Zm1.187,5.651a1.808,1.808,0,0,0-.815-1.414h0a.517.517,0,0,0-.64.01.41.41,0,0,0-.151.086.4.4,0,0,0-.151.086.431.431,0,0,0-.149.087.407.407,0,0,0-.153.088.4.4,0,0,0-.147.086.361.361,0,0,0-.149.088.393.393,0,0,0-.151.086.606.606,0,0,1,.488.077h0a1.8,1.8,0,0,1,.818,1.414,30.069,30.069,0,0,1-2.888,13.145.5.5,0,0,1-.1.117h0a.4.4,0,0,0,.149-.088.341.341,0,0,0,.152-.088.36.36,0,0,0,.151-.085.442.442,0,0,0,.149-.086.39.39,0,0,0,.15-.087,52.794,52.794,0,0,1,.3-.174.4.4,0,0,0,.247-.2A29.986,29.986,0,0,0,1886.831,536.063Zm-7.651,3.45a1.671,1.671,0,0,0-.552-1.488c-.342-.317-.691-.357-.889-.154a.352.352,0,0,0-.152.086.367.367,0,0,0-.148.087,22.006,22.006,0,0,0-.3.174,22.287,22.287,0,0,1-.3.174.348.348,0,0,0-.147.086.743.743,0,0,1,.737.24,1.663,1.663,0,0,1,.551,1.489,17.068,17.068,0,0,1-1.581,3.75.425.425,0,0,1-.084.088.371.371,0,0,0,.153-.088.331.331,0,0,0,.148-.087.363.363,0,0,0,.15-.085.374.374,0,0,0,.152-.088.378.378,0,0,0,.151-.086.4.4,0,0,0,.148-.086.352.352,0,0,0,.15-.087.389.389,0,0,0,.232-.174A17.076,17.076,0,0,0,1879.18,539.513Zm1.332-14.65c-.842-.032-1.434.609-1.438,1.748l-.013,6.345a24.482,24.482,0,0,1-.216,3.2.529.529,0,0,1-.176.342h0a.482.482,0,0,0,.148-.087.427.427,0,0,0,.151-.088,54.583,54.583,0,0,0,.3-.174.379.379,0,0,0,.148-.088.412.412,0,0,0,.153-.085.371.371,0,0,0,.147-.087.466.466,0,0,0,.331-.429,24.973,24.973,0,0,0,.216-3.195l.015-6.35A2.237,2.237,0,0,1,1880.512,524.863Zm9.588,13.093.019-6.349a13.177,13.177,0,0,0-.806-4.249q.281.728.5,1.452a21.778,21.778,0,0,0-3.54-6.843,13.532,13.532,0,0,0-3.533-3.127,6.287,6.287,0,0,0-3.744-.976.377.377,0,0,0-.255.133.382.382,0,0,0-.149.088.422.422,0,0,0-.153.087.344.344,0,0,0-.149.087.413.413,0,0,0-.152.086.391.391,0,0,0-.148.088.4.4,0,0,0-.153.085.391.391,0,0,0-.149.087c.037-.014.063-.043.1-.046a6.284,6.284,0,0,1,3.748.978,16.308,16.308,0,0,1,7.371,12.764l-.016,6.351a35.314,35.314,0,0,1-1.976,11.733.475.475,0,0,1-.114.182,5.522,5.522,0,0,0,.3-.174.349.349,0,0,0,.153-.086.354.354,0,0,0,.148-.084.41.41,0,0,0,.152-.087.376.376,0,0,0,.15-.09.362.362,0,0,0,.152-.084.436.436,0,0,0,.266-.269A35.36,35.36,0,0,0,1890.1,537.956Zm-13.107-7.586.015-6.346a5.254,5.254,0,0,1,.56-2.519,1.493,1.493,0,0,0-.385-1.479c-.352-.393-.751-.49-.982-.29a.436.436,0,0,0-.149.087.408.408,0,0,0-.148.087.4.4,0,0,0-.152.086.406.406,0,0,0-.149.088.416.416,0,0,0-.152.088.381.381,0,0,0-.149.086.366.366,0,0,0-.15.087h0a.886.886,0,0,1,.829.379,1.49,1.49,0,0,1,.385,1.481,5.215,5.215,0,0,0-.559,2.514l-.013,6.343a22.313,22.313,0,0,1-1.069,6.636.477.477,0,0,1-.119.2h0a.435.435,0,0,0,.15-.087.4.4,0,0,0,.148-.087.433.433,0,0,0,.153-.087.442.442,0,0,0,.15-.086.472.472,0,0,0,.149-.087.477.477,0,0,0,.151-.086.534.534,0,0,0,.151-.087.431.431,0,0,0,.266-.293A22.175,22.175,0,0,0,1876.993,530.37Zm8.25-17.6a31.869,31.869,0,0,1,3.469,3.527,24.726,24.726,0,0,0-5.968-5c-3.68-2.123-7.159-2.461-9.759-1-.053.028-.1.06-.159.091s-.1.057-.149.086-.1.057-.151.087-.1.057-.15.087-.1.057-.151.088a1.709,1.709,0,0,0-.149.087c-.056.026-.105.062-.16.092,2.581-1.378,6.007-1.014,9.629,1.075,5.64,3.269,10.686,10.072,12.852,17.333a.83.83,0,0,1-.114.856h0a.4.4,0,0,0,.151-.087.367.367,0,0,0,.147-.086.4.4,0,0,0,.153-.089.351.351,0,0,0,.148-.086.368.368,0,0,0,.153-.086.378.378,0,0,0,.147-.088.374.374,0,0,0,.153-.086c.282-.089.406-.457.263-.941-.231-.763-.507-1.519-.794-2.27a38.075,38.075,0,0,0-3.258-6.25,2.136,2.136,0,0,1-.106-.217,32.453,32.453,0,0,0-2.718-3.585c.068.079.138.149.2.227A31.527,31.527,0,0,0,1885.243,512.775ZM1866,519.046a.59.59,0,0,1-.18.457h0a.362.362,0,0,0,.149-.088.357.357,0,0,0,.152-.087.377.377,0,0,0,.149-.085.422.422,0,0,0,.152-.086.39.39,0,0,0,.151-.092.386.386,0,0,0,.15-.081.45.45,0,0,0,.15-.088.513.513,0,0,0,.328-.546c.007-4.465,1.443-7.815,3.975-9.611C1867.89,510.249,1866.007,513.915,1866,519.046Zm4.458,7.536.014-6.341a11.658,11.658,0,0,1,.979-4.961,1.528,1.528,0,0,0-.431-1.484c-.346-.371-.731-.452-.953-.252a.374.374,0,0,0-.152.089.321.321,0,0,0-.15.087.328.328,0,0,0-.151.087.335.335,0,0,0-.15.087.306.306,0,0,0-.149.086.372.372,0,0,0-.153.089.291.291,0,0,0-.147.086h0a.841.841,0,0,1,.8.336,1.536,1.536,0,0,1,.431,1.485,11.653,11.653,0,0,0-.984,4.96l-.01,6.341a14.918,14.918,0,0,1-1.635,6.584.393.393,0,0,1-.063.064,5.679,5.679,0,0,1,.3-.173.348.348,0,0,0,.147-.088,24.565,24.565,0,0,0,.3-.173.327.327,0,0,0,.151-.087.347.347,0,0,0,.149-.086.388.388,0,0,0,.218-.146A14.985,14.985,0,0,0,1870.457,526.582Zm17.157-7.3c-.35-.411-.7-.825-1.073-1.208-.348-.353-.718-.42-.932-.216a.369.369,0,0,0-.153.085.379.379,0,0,0-.148.087.355.355,0,0,0-.151.086.422.422,0,0,0-.151.086.393.393,0,0,0-.149.087.364.364,0,0,0-.148.087.42.42,0,0,0-.152.087.824.824,0,0,1,.784.306c4.1,4.18,6.848,10.381,6.843,15.423l-.016,6.351c0,1.092-.043,2.2-.135,3.29a.542.542,0,0,1-.183.385h0a.39.39,0,0,0,.153-.087.4.4,0,0,0,.149-.086.4.4,0,0,0,.152-.088.332.332,0,0,0,.15-.087.342.342,0,0,0,.148-.085,21.736,21.736,0,0,0,.3-.174.48.48,0,0,0,.335-.471c.088-1.089.133-2.2.132-3.292l.016-6.349a18.809,18.809,0,0,0-1.07-5.956,29.3,29.3,0,0,0-6.073-9.834Q1886.95,518.462,1887.615,519.283ZM1869.621,506.9a8.857,8.857,0,0,1,1.515-.627c.359-.105.873.269,1.145.838.25.521.2,1.007-.076,1.175.028-.008.05-.024.073-.032s.05-.037.08-.053a.381.381,0,0,1,.073-.03c.032-.012.048-.04.075-.057s.049-.025.073-.033.052-.036.079-.055.046-.023.074-.031.048-.037.075-.054.049-.024.074-.031.049-.04.075-.056.049-.022.076-.03.049-.04.076-.06a.433.433,0,0,0,.073-.031c.033-.008.049-.037.076-.052s.049-.021.076-.031c.244-.073.342-.367.3-.719l0,0a1.614,1.614,0,0,1-.039-.207,1.951,1.951,0,0,0-.1-.3c-.273-.571-.786-.943-1.146-.839a8.63,8.63,0,0,0-1.617.687c-.062.032-.123.068-.186.1s-.1.06-.149.087-.1.058-.152.088-.1.06-.151.087-.1.06-.15.087-.1.057-.149.086S1869.677,506.875,1869.621,506.9Zm13.926,27.258.017-6.344a1.445,1.445,0,0,0-.054-.35,5.923,5.923,0,0,0-1.138-1.624,5.549,5.549,0,0,1,.647.779,1.274,1.274,0,0,0-.272-.222.6.6,0,0,0-.645.042,20.35,20.35,0,0,0-.3.173.389.389,0,0,0-.151.087.345.345,0,0,0-.149.086.381.381,0,0,0-.15.088.392.392,0,0,0-.152.086.408.408,0,0,0-.148.087.738.738,0,0,1,.493.047,1.8,1.8,0,0,1,.815,1.418l-.013,6.346c-.007,5.922-1.993,12.208-4.536,14.386.026-.014.063-.005.088-.027s.04-.041.061-.059.065-.007.086-.027.044-.041.067-.059.062-.008.086-.029.041-.04.062-.058.063-.005.088-.027.043-.042.064-.061.062-.006.087-.026.041-.041.062-.061.063-.007.086-.027.043-.041.062-.059.063-.008.088-.027l.064-.06c.027-.014.062-.008.087-.027C1881.52,546.483,1883.542,540.139,1883.547,534.163Zm-9.821-5.687.013-6.343c0-2.5.778-4.35,2.063-5.4.079-.029.161-.049.245-.076-2.127.672-3.5,2.839-3.512,6.172l-.013,6.344c0,3.761-1.482,7.7-2.318,8.5.039-.016.083-.01.113-.037a.6.6,0,0,1,.04-.049c.034-.016.078-.008.108-.039a.216.216,0,0,0,.04-.049c.037-.016.083-.009.112-.038.011-.01.026-.034.041-.048.034-.016.078-.011.108-.039a.529.529,0,0,1,.04-.048c.037-.015.08-.008.112-.036.011-.009.027-.036.039-.051.033-.016.079-.011.108-.038.016-.007.029-.036.041-.048.037-.018.08-.012.112-.039.012-.012.025-.036.039-.049.034-.016.079-.008.11-.037C1872.193,536.31,1873.719,532.3,1873.725,528.476Zm17.844-9.785c.3-.106.728.116,1.031.588,3.9,6.039,6.13,12.852,6.124,18.7l-.018,6.354a.594.594,0,0,1-.179.454h0a.364.364,0,0,0,.151-.086.379.379,0,0,0,.149-.087.373.373,0,0,0,.152-.087.417.417,0,0,0,.152-.086.393.393,0,0,0,.148-.088.347.347,0,0,0,.149-.087.363.363,0,0,0,.151-.086.507.507,0,0,0,.328-.543l.016-6.352c.005-5.845-2.226-12.66-6.119-18.7-.348-.534-.863-.779-1.151-.55-.014.012-.019.036-.031.05a.381.381,0,0,0-.119.04c-.016.008-.019.033-.033.047a.5.5,0,0,0-.118.037c-.014.011-.018.036-.03.047-.04.017-.086.013-.122.041-.011.01-.016.036-.029.045a.617.617,0,0,0-.118.042c-.014.01-.02.034-.029.049a.394.394,0,0,0-.122.038c-.016.01-.018.034-.031.046-.038.016-.084.013-.118.04-.013.011-.018.034-.029.046a.521.521,0,0,0-.121.041C1891.587,518.653,1891.583,518.677,1891.57,518.69Zm-16.809-13.28a.36.36,0,0,0-.148.087.428.428,0,0,0-.152.084.378.378,0,0,0-.148.089.39.39,0,0,0-.153.087.375.375,0,0,0-.148.083.384.384,0,0,0-.15.088.365.365,0,0,1,.141-.043,15.564,15.564,0,0,1,7.542,2.338,31.437,31.437,0,0,1,8.167,7.112,1.414,1.414,0,0,1,.326,1.464.438.438,0,0,1-.078.077l0,0a.372.372,0,0,0,.149-.087.351.351,0,0,0,.149-.086.364.364,0,0,0,.152-.088.388.388,0,0,0,.153-.087.4.4,0,0,0,.148-.086.327.327,0,0,0,.15-.088,1.836,1.836,0,0,0,.377-.249,1.42,1.42,0,0,0-.328-1.467,31.358,31.358,0,0,0-8.167-7.108,15.58,15.58,0,0,0-7.542-2.338.406.406,0,0,0-.293.132A.339.339,0,0,0,1874.76,505.41Zm21.9,29.979q0-.885-.081-1.8a1.787,1.787,0,0,0-.9-1.355.47.47,0,0,0-.568.064.406.406,0,0,0-.152.089.37.37,0,0,0-.149.086.394.394,0,0,0-.15.087.467.467,0,0,0-.151.087.405.405,0,0,0-.151.087.39.39,0,0,0-.15.088.37.37,0,0,0-.148.087h0a.515.515,0,0,1,.419.02,1.788,1.788,0,0,1,.9,1.356c.053.608.081,1.207.078,1.8l-.013,6.352a44.681,44.681,0,0,1-.821,8.54.478.478,0,0,1-.174.294h0a.361.361,0,0,0,.15-.086.328.328,0,0,0,.148-.086.338.338,0,0,0,.152-.087.385.385,0,0,0,.15-.087.376.376,0,0,0,.151-.087.339.339,0,0,0,.148-.086.411.411,0,0,0,.152-.088.444.444,0,0,0,.321-.382,44.274,44.274,0,0,0,.82-8.54Zm-3.786,10.806a1.753,1.753,0,0,0-.672-1.474.6.6,0,0,0-.747-.1,11.7,11.7,0,0,1-.3.175.322.322,0,0,0-.147.086.34.34,0,0,0-.152.087.356.356,0,0,0-.15.088.339.339,0,0,0-.15.087.352.352,0,0,0-.148.082.748.748,0,0,1,.593.19,1.762,1.762,0,0,1,.672,1.471,33.7,33.7,0,0,1-2.412,8.4.483.483,0,0,1-.1.143.436.436,0,0,0,.148-.088.375.375,0,0,0,.153-.088.344.344,0,0,0,.148-.086.379.379,0,0,0,.153-.088.373.373,0,0,0,.148-.086.359.359,0,0,0,.152-.088.384.384,0,0,0,.15-.085.4.4,0,0,0,.255-.228A33.561,33.561,0,0,0,1892.869,546.2Z" transform="translate(-1858.542 -486.355)" fill="#3da4b2"/>
    <path id="Trazado_697551" data-name="Trazado 697551" d="M1881.544,515.764c-2.892-1.667-5.517-1.841-7.44-.779h0c.05-.03.1-.06.152-.087a1.645,1.645,0,0,1,.149-.086,1.508,1.508,0,0,1,.15-.087c.05-.029.1-.06.15-.088s.1-.059.149-.086l.148-.088c.053-.029.1-.059.153-.086,1.932-1.158,4.619-1.022,7.585.692a1.806,1.806,0,0,1,.82,1.415.511.511,0,0,1-.328.546,54.586,54.586,0,0,0-.3.173,134.138,134.138,0,0,0-.3.174.321.321,0,0,1-.151.086.346.346,0,0,1-.149.089.386.386,0,0,1-.149.086h0a.616.616,0,0,0,.178-.461A1.812,1.812,0,0,0,1881.544,515.764Zm4.1,14.648,0,2.754a.582.582,0,0,1-.18.454h0a.412.412,0,0,0,.151-.086.427.427,0,0,0,.15-.087.386.386,0,0,0,.151-.088.4.4,0,0,0,.15-.086.38.38,0,0,0,.15-.087,15.8,15.8,0,0,1,.3-.173.512.512,0,0,0,.328-.545l.008-2.752a7.073,7.073,0,0,0-.317-2.007,13.874,13.874,0,0,0-2.217-3.828,7.073,7.073,0,0,0-1.57-1.271,2.811,2.811,0,0,0-2.964-.23c-.051.027-.1.053-.151.086s-.1.055-.15.089a1.351,1.351,0,0,0-.149.086,1.632,1.632,0,0,0-.152.086c-.051.028-.1.055-.149.088a1.444,1.444,0,0,0-.149.086,1.369,1.369,0,0,0-.151.087h0a2.909,2.909,0,0,1,2.815.316A9.08,9.08,0,0,1,1885.644,530.412Zm1.187,5.651a1.808,1.808,0,0,0-.815-1.414h0a.517.517,0,0,0-.64.01.41.41,0,0,0-.151.086.4.4,0,0,0-.151.086.431.431,0,0,0-.149.087.407.407,0,0,0-.153.088.4.4,0,0,0-.147.086.361.361,0,0,0-.149.088.393.393,0,0,0-.151.086.606.606,0,0,1,.488.077h0a1.8,1.8,0,0,1,.818,1.414,30.069,30.069,0,0,1-2.888,13.145.5.5,0,0,1-.1.117h0a.4.4,0,0,0,.149-.088.341.341,0,0,0,.152-.088.36.36,0,0,0,.151-.085.442.442,0,0,0,.149-.086.39.39,0,0,0,.15-.087,52.794,52.794,0,0,1,.3-.174.4.4,0,0,0,.247-.2A29.986,29.986,0,0,0,1886.831,536.063Zm-7.651,3.45a1.671,1.671,0,0,0-.552-1.488c-.342-.317-.691-.357-.889-.154a.352.352,0,0,0-.152.086.367.367,0,0,0-.148.087,22.006,22.006,0,0,0-.3.174,22.287,22.287,0,0,1-.3.174.348.348,0,0,0-.147.086.743.743,0,0,1,.737.24,1.663,1.663,0,0,1,.551,1.489,17.068,17.068,0,0,1-1.581,3.75.425.425,0,0,1-.084.088.371.371,0,0,0,.153-.088.331.331,0,0,0,.148-.087.363.363,0,0,0,.15-.085.374.374,0,0,0,.152-.088.378.378,0,0,0,.151-.086.4.4,0,0,0,.148-.086.352.352,0,0,0,.15-.087.389.389,0,0,0,.232-.174A17.076,17.076,0,0,0,1879.18,539.513Zm1.332-14.65c-.842-.032-1.434.609-1.438,1.748l-.013,6.345a24.482,24.482,0,0,1-.216,3.2.529.529,0,0,1-.176.342h0a.482.482,0,0,0,.148-.087.427.427,0,0,0,.151-.088,54.583,54.583,0,0,0,.3-.174.379.379,0,0,0,.148-.088.412.412,0,0,0,.153-.085.371.371,0,0,0,.147-.087.466.466,0,0,0,.331-.429,24.973,24.973,0,0,0,.216-3.195l.015-6.35A2.237,2.237,0,0,1,1880.512,524.863Zm9.588,13.093.019-6.349a13.177,13.177,0,0,0-.806-4.249q.281.728.5,1.452a21.778,21.778,0,0,0-3.54-6.843,13.532,13.532,0,0,0-3.533-3.127,6.287,6.287,0,0,0-3.744-.976.377.377,0,0,0-.255.133.382.382,0,0,0-.149.088.422.422,0,0,0-.153.087.344.344,0,0,0-.149.087.413.413,0,0,0-.152.086.391.391,0,0,0-.148.088.4.4,0,0,0-.153.085.391.391,0,0,0-.149.087c.037-.014.063-.043.1-.046a6.284,6.284,0,0,1,3.748.978,16.308,16.308,0,0,1,7.371,12.764l-.016,6.351a35.314,35.314,0,0,1-1.976,11.733.475.475,0,0,1-.114.182,5.522,5.522,0,0,0,.3-.174.349.349,0,0,0,.153-.086.354.354,0,0,0,.148-.084.41.41,0,0,0,.152-.087.376.376,0,0,0,.15-.09.362.362,0,0,0,.152-.084.436.436,0,0,0,.266-.269A35.36,35.36,0,0,0,1890.1,537.956Zm-13.107-7.586.015-6.346a5.254,5.254,0,0,1,.56-2.519,1.493,1.493,0,0,0-.385-1.479c-.352-.393-.751-.49-.982-.29a.436.436,0,0,0-.149.087.408.408,0,0,0-.148.087.4.4,0,0,0-.152.086.406.406,0,0,0-.149.088.416.416,0,0,0-.152.088.381.381,0,0,0-.149.086.366.366,0,0,0-.15.087h0a.886.886,0,0,1,.829.379,1.49,1.49,0,0,1,.385,1.481,5.215,5.215,0,0,0-.559,2.514l-.013,6.343a22.313,22.313,0,0,1-1.069,6.636.477.477,0,0,1-.119.2h0a.435.435,0,0,0,.15-.087.4.4,0,0,0,.148-.087.433.433,0,0,0,.153-.087.442.442,0,0,0,.15-.086.472.472,0,0,0,.149-.087.477.477,0,0,0,.151-.086.534.534,0,0,0,.151-.087.431.431,0,0,0,.266-.293A22.175,22.175,0,0,0,1876.993,530.37Zm8.25-17.6a31.869,31.869,0,0,1,3.469,3.527,24.726,24.726,0,0,0-5.968-5c-3.68-2.123-7.159-2.461-9.759-1-.053.028-.1.06-.159.091s-.1.057-.149.086-.1.057-.151.087-.1.057-.15.087-.1.057-.151.088a1.709,1.709,0,0,0-.149.087c-.056.026-.105.062-.16.092,2.581-1.378,6.007-1.014,9.629,1.075,5.64,3.269,10.686,10.072,12.852,17.333a.83.83,0,0,1-.114.856h0a.4.4,0,0,0,.151-.087.367.367,0,0,0,.147-.086.4.4,0,0,0,.153-.089.351.351,0,0,0,.148-.086.368.368,0,0,0,.153-.086.378.378,0,0,0,.147-.088.374.374,0,0,0,.153-.086c.282-.089.406-.457.263-.941-.231-.763-.507-1.519-.794-2.27a38.075,38.075,0,0,0-3.258-6.25,2.136,2.136,0,0,1-.106-.217,32.453,32.453,0,0,0-2.718-3.585c.068.079.138.149.2.227A31.527,31.527,0,0,0,1885.243,512.775ZM1866,519.046a.59.59,0,0,1-.18.457h0a.362.362,0,0,0,.149-.088.357.357,0,0,0,.152-.087.377.377,0,0,0,.149-.085.422.422,0,0,0,.152-.086.39.39,0,0,0,.151-.092.386.386,0,0,0,.15-.081.45.45,0,0,0,.15-.088.513.513,0,0,0,.328-.546c.007-4.465,1.443-7.815,3.975-9.611C1867.89,510.249,1866.007,513.915,1866,519.046Zm4.458,7.536.014-6.341a11.658,11.658,0,0,1,.979-4.961,1.528,1.528,0,0,0-.431-1.484c-.346-.371-.731-.452-.953-.252a.374.374,0,0,0-.152.089.321.321,0,0,0-.15.087.328.328,0,0,0-.151.087.335.335,0,0,0-.15.087.306.306,0,0,0-.149.086.372.372,0,0,0-.153.089.291.291,0,0,0-.147.086h0a.841.841,0,0,1,.8.336,1.536,1.536,0,0,1,.431,1.485,11.653,11.653,0,0,0-.984,4.96l-.01,6.341a14.918,14.918,0,0,1-1.635,6.584.393.393,0,0,1-.063.064,5.679,5.679,0,0,1,.3-.173.348.348,0,0,0,.147-.088,24.565,24.565,0,0,0,.3-.173.327.327,0,0,0,.151-.087.347.347,0,0,0,.149-.086.388.388,0,0,0,.218-.146A14.985,14.985,0,0,0,1870.457,526.582Zm17.157-7.3c-.35-.411-.7-.825-1.073-1.208-.348-.353-.718-.42-.932-.216a.369.369,0,0,0-.153.085.379.379,0,0,0-.148.087.355.355,0,0,0-.151.086.422.422,0,0,0-.151.086.393.393,0,0,0-.149.087.364.364,0,0,0-.148.087.42.42,0,0,0-.152.087.824.824,0,0,1,.784.306c4.1,4.18,6.848,10.381,6.843,15.423l-.016,6.351c0,1.092-.043,2.2-.135,3.29a.542.542,0,0,1-.183.385h0a.39.39,0,0,0,.153-.087.4.4,0,0,0,.149-.086.4.4,0,0,0,.152-.088.332.332,0,0,0,.15-.087.342.342,0,0,0,.148-.085,21.736,21.736,0,0,0,.3-.174.48.48,0,0,0,.335-.471c.088-1.089.133-2.2.132-3.292l.016-6.349a18.809,18.809,0,0,0-1.07-5.956,29.3,29.3,0,0,0-6.073-9.834Q1886.95,518.462,1887.615,519.283ZM1869.621,506.9a8.857,8.857,0,0,1,1.515-.627c.359-.105.873.269,1.145.838.25.521.2,1.007-.076,1.175.028-.008.05-.024.073-.032s.05-.037.08-.053a.381.381,0,0,1,.073-.03c.032-.012.048-.04.075-.057s.049-.025.073-.033.052-.036.079-.055.046-.023.074-.031.048-.037.075-.054.049-.024.074-.031.049-.04.075-.056.049-.022.076-.03.049-.04.076-.06a.433.433,0,0,0,.073-.031c.033-.008.049-.037.076-.052s.049-.021.076-.031c.244-.073.342-.367.3-.719l0,0a1.614,1.614,0,0,1-.039-.207,1.951,1.951,0,0,0-.1-.3c-.273-.571-.786-.943-1.146-.839a8.63,8.63,0,0,0-1.617.687c-.062.032-.123.068-.186.1s-.1.06-.149.087-.1.058-.152.088-.1.06-.151.087-.1.06-.15.087-.1.057-.149.086S1869.677,506.875,1869.621,506.9Zm13.926,27.258.017-6.344a1.445,1.445,0,0,0-.054-.35,5.923,5.923,0,0,0-1.138-1.624,5.549,5.549,0,0,1,.647.779,1.274,1.274,0,0,0-.272-.222.6.6,0,0,0-.645.042,20.35,20.35,0,0,0-.3.173.389.389,0,0,0-.151.087.345.345,0,0,0-.149.086.381.381,0,0,0-.15.088.392.392,0,0,0-.152.086.408.408,0,0,0-.148.087.738.738,0,0,1,.493.047,1.8,1.8,0,0,1,.815,1.418l-.013,6.346c-.007,5.922-1.993,12.208-4.536,14.386.026-.014.063-.005.088-.027s.04-.041.061-.059.065-.007.086-.027.044-.041.067-.059.062-.008.086-.029.041-.04.062-.058.063-.005.088-.027.043-.042.064-.061.062-.006.087-.026.041-.041.062-.061.063-.007.086-.027.043-.041.062-.059.063-.008.088-.027l.064-.06c.027-.014.062-.008.087-.027C1881.52,546.483,1883.542,540.139,1883.547,534.163Zm-9.821-5.687.013-6.343c0-2.5.778-4.35,2.063-5.4.079-.029.161-.049.245-.076-2.127.672-3.5,2.839-3.512,6.172l-.013,6.344c0,3.761-1.482,7.7-2.318,8.5.039-.016.083-.01.113-.037a.6.6,0,0,1,.04-.049c.034-.016.078-.008.108-.039a.216.216,0,0,0,.04-.049c.037-.016.083-.009.112-.038.011-.01.026-.034.041-.048.034-.016.078-.011.108-.039a.529.529,0,0,1,.04-.048c.037-.015.08-.008.112-.036.011-.009.027-.036.039-.051.033-.016.079-.011.108-.038.016-.007.029-.036.041-.048.037-.018.08-.012.112-.039.012-.012.025-.036.039-.049.034-.016.079-.008.11-.037C1872.193,536.31,1873.719,532.3,1873.725,528.476Zm17.844-9.785c.3-.106.728.116,1.031.588,3.9,6.039,6.13,12.852,6.124,18.7l-.018,6.354a.594.594,0,0,1-.179.454h0a.364.364,0,0,0,.151-.086.379.379,0,0,0,.149-.087.373.373,0,0,0,.152-.087.417.417,0,0,0,.152-.086.393.393,0,0,0,.148-.088.347.347,0,0,0,.149-.087.363.363,0,0,0,.151-.086.507.507,0,0,0,.328-.543l.016-6.352c.005-5.845-2.226-12.66-6.119-18.7-.348-.534-.863-.779-1.151-.55-.014.012-.019.036-.031.05a.381.381,0,0,0-.119.04c-.016.008-.019.033-.033.047a.5.5,0,0,0-.118.037c-.014.011-.018.036-.03.047-.04.017-.086.013-.122.041-.011.01-.016.036-.029.045a.617.617,0,0,0-.118.042c-.014.01-.02.034-.029.049a.394.394,0,0,0-.122.038c-.016.01-.018.034-.031.046-.038.016-.084.013-.118.04-.013.011-.018.034-.029.046a.521.521,0,0,0-.121.041C1891.587,518.653,1891.583,518.677,1891.57,518.69Zm-16.809-13.28a.36.36,0,0,0-.148.087.428.428,0,0,0-.152.084.378.378,0,0,0-.148.089.39.39,0,0,0-.153.087.375.375,0,0,0-.148.083.384.384,0,0,0-.15.088.365.365,0,0,1,.141-.043,15.564,15.564,0,0,1,7.542,2.338,31.437,31.437,0,0,1,8.167,7.112,1.414,1.414,0,0,1,.326,1.464.438.438,0,0,1-.078.077l0,0a.372.372,0,0,0,.149-.087.351.351,0,0,0,.149-.086.364.364,0,0,0,.152-.088.388.388,0,0,0,.153-.087.4.4,0,0,0,.148-.086.327.327,0,0,0,.15-.088,1.836,1.836,0,0,0,.377-.249,1.42,1.42,0,0,0-.328-1.467,31.358,31.358,0,0,0-8.167-7.108,15.58,15.58,0,0,0-7.542-2.338.406.406,0,0,0-.293.132A.339.339,0,0,0,1874.76,505.41Zm21.9,29.979q0-.885-.081-1.8a1.787,1.787,0,0,0-.9-1.355.47.47,0,0,0-.568.064.406.406,0,0,0-.152.089.37.37,0,0,0-.149.086.394.394,0,0,0-.15.087.467.467,0,0,0-.151.087.405.405,0,0,0-.151.087.39.39,0,0,0-.15.088.37.37,0,0,0-.148.087h0a.515.515,0,0,1,.419.02,1.788,1.788,0,0,1,.9,1.356c.053.608.081,1.207.078,1.8l-.013,6.352a44.681,44.681,0,0,1-.821,8.54.478.478,0,0,1-.174.294h0a.361.361,0,0,0,.15-.086.328.328,0,0,0,.148-.086.338.338,0,0,0,.152-.087.385.385,0,0,0,.15-.087.376.376,0,0,0,.151-.087.339.339,0,0,0,.148-.086.411.411,0,0,0,.152-.088.444.444,0,0,0,.321-.382,44.274,44.274,0,0,0,.82-8.54Zm-3.786,10.806a1.753,1.753,0,0,0-.672-1.474.6.6,0,0,0-.747-.1,11.7,11.7,0,0,1-.3.175.322.322,0,0,0-.147.086.34.34,0,0,0-.152.087.356.356,0,0,0-.15.088.339.339,0,0,0-.15.087.352.352,0,0,0-.148.082.748.748,0,0,1,.593.19,1.762,1.762,0,0,1,.672,1.471,33.7,33.7,0,0,1-2.412,8.4.483.483,0,0,1-.1.143.436.436,0,0,0,.148-.088.375.375,0,0,0,.153-.088.344.344,0,0,0,.148-.086.379.379,0,0,0,.153-.088.373.373,0,0,0,.148-.086.359.359,0,0,0,.152-.088.384.384,0,0,0,.15-.085.4.4,0,0,0,.255-.228A33.561,33.561,0,0,0,1892.869,546.2Z" transform="translate(-1858.64 -486.355)" opacity="0.4" style="mix-blend-mode: overlay;isolation: isolate"/>
    <path id="Trazado_697552" data-name="Trazado 697552" d="M1872.185,551.632a1.633,1.633,0,0,1-.519-.514c-.35-.532-.4-1.155-.113-1.394,2.329-1.921,4.221-7.962,4.229-13.465l.016-6.352c0-.516.375-.653.818-.466a1.8,1.8,0,0,1,.815,1.418l-.013,6.346c-.007,5.973-2.028,12.319-4.6,14.446A.544.544,0,0,1,1872.185,551.632Zm5.629.617A30.067,30.067,0,0,0,1880.7,539.1a1.8,1.8,0,0,0-.818-1.415h0c-.453-.259-.818-.052-.816.471a28.857,28.857,0,0,1-2.741,12.442,1.521,1.521,0,0,0,.4,1.483,1.447,1.447,0,0,0,.345.283C1877.381,552.547,1877.675,552.514,1877.814,552.249Zm-3.9-13.748a24.483,24.483,0,0,0,.216-3.2l.013-6.345c0-1.568,1.112-2.2,2.47-1.419a5.46,5.46,0,0,1,2.469,4.271l-.008,2.752a1.8,1.8,0,0,0,.814,1.414v0c.45.261.817.053.82-.464l0-2.754a9.081,9.081,0,0,0-4.1-7.107c-2.258-1.3-4.1-.246-4.1,2.356l-.015,6.347a23.218,23.218,0,0,1-.2,2.948,1.763,1.763,0,0,0,.695,1.465c.036.027.077.051.115.076C1873.51,539.074,1873.859,538.936,1873.917,538.5Zm-2.448,7.8a17.074,17.074,0,0,0,1.581-3.75,1.663,1.663,0,0,0-.551-1.489c-.434-.4-.889-.376-1.016.05a15.778,15.778,0,0,1-1.468,3.488,1.454,1.454,0,0,0,.352,1.473,1.419,1.419,0,0,0,.373.317C1871.034,546.565,1871.323,546.544,1871.469,546.3Zm-1.672-6.259a22.315,22.315,0,0,0,1.069-6.636l.013-6.343a5.215,5.215,0,0,1,.559-2.514,1.49,1.49,0,0,0-.385-1.481c-.41-.461-.9-.542-1.09-.184a6.7,6.7,0,0,0-.72,3.232l-.012,6.344a20.578,20.578,0,0,1-.991,6.12,1.648,1.648,0,0,0,.533,1.491,1.424,1.424,0,0,0,.244.18C1869.366,540.457,1869.689,540.382,1869.8,540.045Zm12.2,12.688A35.312,35.312,0,0,0,1883.971,541l.016-6.351a16.307,16.307,0,0,0-7.371-12.764,6.284,6.284,0,0,0-3.749-.978c-.391.04-.515.544-.284,1.125s.731,1.016,1.119.975a4.894,4.894,0,0,1,2.912.761,12.713,12.713,0,0,1,5.739,9.936l-.016,6.347a33.722,33.722,0,0,1-1.886,11.18,1.618,1.618,0,0,0,.5,1.488,1.305,1.305,0,0,0,.272.205C1881.56,553.119,1881.88,553.056,1882,552.733Zm-16.76-12.664c.827-.719,2.355-4.728,2.359-8.55l.013-6.344c.011-5.719,4.049-8.038,9.009-5.178.453.265.818.049.818-.471a1.811,1.811,0,0,0-.818-1.414c-5.857-3.38-10.631-.637-10.643,6.117l-.013,6.34c0,3.709-1.523,7.169-2,7.59-.282.244-.222.871.13,1.4a1.569,1.569,0,0,0,.51.5A.531.531,0,0,0,1865.235,540.068Zm21.869,6.112c.092-1.091.135-2.2.135-3.29l.016-6.351c.005-5.043-2.744-11.243-6.843-15.423-.423-.429-.9-.458-1.054-.068a1.566,1.566,0,0,0,.466,1.489c3.472,3.539,5.8,8.785,5.8,13.056l-.013,6.351c0,1.038-.047,2.089-.131,3.127a1.79,1.79,0,0,0,.744,1.452c.022.016.049.033.069.045C1886.712,546.813,1887.067,546.652,1887.1,546.181Zm-2.775,11.457a33.705,33.705,0,0,0,2.412-8.4,1.762,1.762,0,0,0-.672-1.471c-.442-.347-.864-.239-.94.23a32.3,32.3,0,0,1-2.312,8.057,1.556,1.556,0,0,0,.443,1.486,1.4,1.4,0,0,0,.312.251C1883.893,557.969,1884.2,557.93,1884.329,557.638Zm-21.636-21.43a14.918,14.918,0,0,0,1.635-6.584l.009-6.341a11.651,11.651,0,0,1,.984-4.96,1.536,1.536,0,0,0-.431-1.485c-.412-.443-.9-.5-1.073-.123a13.238,13.238,0,0,0-1.114,5.621l-.014,6.343a13.71,13.71,0,0,1-1.414,5.776,1.391,1.391,0,0,0,.3,1.464,1.517,1.517,0,0,0,.406.357C1862.265,536.438,1862.546,536.429,1862.693,536.208Zm26.334-3.557c.415.041.613-.4.441-.977-2.166-7.261-7.212-14.064-12.852-17.333-4.162-2.4-8.073-2.527-10.731-.345-.288.237-.238.86.108,1.391s.867.769,1.152.538c2.345-1.928,5.8-1.816,9.469.3,4.978,2.882,9.429,8.891,11.344,15.3a1.783,1.783,0,0,0,.756,1.012A.76.76,0,0,0,1889.027,532.651Zm.662,20.674a44.672,44.672,0,0,0,.821-8.54l.013-6.352c0-.59-.025-1.189-.078-1.8a1.788,1.788,0,0,0-.9-1.356c-.449-.2-.772.077-.722.62s.073,1.068.069,1.585l-.016,6.35a42.6,42.6,0,0,1-.787,8.192,1.731,1.731,0,0,0,.638,1.477.924.924,0,0,0,.162.116C1889.269,553.836,1889.611,553.728,1889.69,553.325Zm-28.619-31.931c.008-5.615,2.244-9.511,6.131-10.7.357-.106.424-.658.151-1.231s-.786-.943-1.145-.838c-4.294,1.306-6.762,5.616-6.772,11.817a1.8,1.8,0,0,0,.816,1.418v0C1860.7,522.122,1861.071,521.91,1861.071,521.393Zm24.038-2.247a1.414,1.414,0,0,0-.326-1.464,31.435,31.435,0,0,0-8.167-7.112,15.565,15.565,0,0,0-7.542-2.338c-.4-.006-.572.466-.375,1.046s.689,1.057,1.1,1.062a14.1,14.1,0,0,1,6.819,2.115,28.357,28.357,0,0,1,7.384,6.43,1.518,1.518,0,0,0,.39.339C1884.678,519.394,1884.96,519.377,1885.109,519.147Zm8.67,27.531.018-6.353c.006-5.846-2.229-12.659-6.124-18.7-.344-.533-.859-.775-1.15-.55s-.248.85.1,1.385c3.527,5.464,5.546,11.629,5.544,16.915l-.018,6.349a1.806,1.806,0,0,0,.812,1.419h0C1893.411,547.4,1893.778,547.194,1893.778,546.677Z" transform="translate(-1853.614 -488.703)" fill="#4cd1a3" opacity="0.7"/>
  </g>
</svg>
