<svg id="Grupo_913125" data-name="Grupo 913125" xmlns="http://www.w3.org/2000/svg" width="72.683" height="61.142" viewBox="0 0 72.683 61.142">
  <path id="Trazado_697615" data-name="Trazado 697615" d="M1787.121,1007.348c4.7-2.717,11.142-3.8,17.256-3.286l2.739-2.014a2.13,2.13,0,0,1,1.184-.359,2.417,2.417,0,0,1,1.249.273l2.1,1.214,30.337-17.514a2.75,2.75,0,0,1,1.862-.236l7.916,1.674a2.178,2.178,0,0,1,.642.238,1,1,0,0,1,.5.563l.944,3.439a.806.806,0,0,1-.495.883l-30.335,17.516,2.1,1.211c.006.005.011.005.014.011a.7.7,0,0,1,0,1.33,1.622,1.622,0,0,1-.365.156l-3.282,1.49c.892,3.529-.99,7.248-5.692,9.963-7.907,4.567-20.738,4.56-28.655-.01S1779.213,1011.91,1787.121,1007.348Z" transform="translate(-1781.195 -966.181)" opacity="0.2" style="mix-blend-mode: overlay;isolation: isolate"/>
  <path id="Trazado_697616" data-name="Trazado 697616" d="M1869.088,926.941l.59-.341-.589-.338a.764.764,0,0,1,0-1.448l40.362-23.3a2.753,2.753,0,0,1,1.861-.237l2.551.539h0v1.364l1.643.346,1.729-1,1.994.422a2.275,2.275,0,0,1,.643.238,1,1,0,0,1,.5.564l.946,3.438a.655.655,0,0,1,.01.169h.012V909.5h-.012a.885.885,0,0,1-.508.7l-40.363,23.3a2.778,2.778,0,0,1-2.508,0l-8.858-5.113A.764.764,0,0,1,1869.088,926.941Z" transform="translate(-1848.653 -901.209)" fill="#ededef"/>
  <path id="Trazado_697617" data-name="Trazado 697617" d="M1869.088,947.191l.59-.341-.589-.338,8.858,5.112a2.769,2.769,0,0,0,2.508,0l40.363-23.3c.4-.234.587-.561.5-.886a.654.654,0,0,1,.01.169h.012v2.145h-.012a.885.885,0,0,1-.508.7l-40.363,23.3a2.778,2.778,0,0,1-2.508,0l-8.858-5.113A.764.764,0,0,1,1869.088,947.191Z" transform="translate(-1848.653 -921.46)" style="mix-blend-mode: overlay;isolation: isolate"/>
  <path id="Trazado_697618" data-name="Trazado 697618" d="M1934.691,921.089l29.856-17.238v1.364l1.643.346,1.729-1L1937,922.417a2.552,2.552,0,0,1-2.3,0A.7.7,0,0,1,1934.691,921.089Z" transform="translate(-1899.338 -903.249)" opacity="0.5" style="mix-blend-mode: overlay;isolation: isolate"/>
  <path id="Trazado_697619" data-name="Trazado 697619" d="M1934.691,921.089l29.856-17.238v1.364l-29.818,17.216c-.011-.007-.027-.007-.038-.015A.7.7,0,0,1,1934.691,921.089Z" transform="translate(-1899.338 -903.249)" opacity="0.6" style="mix-blend-mode: overlay;isolation: isolate"/>
  <path id="Trazado_697620" data-name="Trazado 697620" d="M1871.528,975.175l-2.22-1.282c-.583-.336-.641-.871-.132-1.242l5.6-4.125a2.187,2.187,0,0,1,1.184-.355,2.414,2.414,0,0,1,1.246.273l15.575,8.992.014.01a.808.808,0,0,1,.477.666v4.253h0v.005h0a.8.8,0,0,1-.472.658,1.711,1.711,0,0,1-.368.159l-6.93,3.141a2.586,2.586,0,0,1-2.158-.074l-14.035-8.108c-.583-.333-.641-.869-.132-1.242Z" transform="translate(-1848.855 -952.907)" fill="#ededef"/>
  <path id="Trazado_697621" data-name="Trazado 697621" d="M1871.528,994.563l-2.22-1.282,14.035,8.106a2.584,2.584,0,0,0,2.158.074l6.93-3.14a1.88,1.88,0,0,0,.368-.159.807.807,0,0,0,.475-.663v4.252h0v.005h0a.805.805,0,0,1-.472.658,1.708,1.708,0,0,1-.368.159l-6.93,3.141a2.586,2.586,0,0,1-2.158-.074l-14.035-8.108c-.583-.333-.641-.869-.132-1.242Z" transform="translate(-1848.855 -972.295)" style="mix-blend-mode: overlay;isolation: isolate"/>
  <path id="Trazado_697622" data-name="Trazado 697622" d="M1781.2,986.576v5.666c0,2.992,1.981,5.989,5.943,8.275,7.919,4.573,20.748,4.575,28.658.011,3.959-2.288,5.935-5.287,5.927-8.285h0v-5.667h0c-.006-2.991-1.987-5.984-5.944-8.267-7.92-4.574-20.751-4.576-28.66-.009C1783.172,980.583,1781.195,983.58,1781.2,986.576Zm10.366.552a9.89,9.89,0,0,1,8.939,0c2.468,1.426,2.47,3.737,0,5.161a9.866,9.866,0,0,1-8.938,0C1789.1,990.861,1789.1,988.551,1791.569,987.127Z" transform="translate(-1781.201 -958.086)" fill="#406087"/>
  <path id="Trazado_697623" data-name="Trazado 697623" d="M1787.146,1034.468c7.919,4.571,20.748,4.575,28.659.011,3.957-2.286,5.933-5.282,5.927-8.28h0v5.667h0c.008,3-1.968,6-5.927,8.285-7.911,4.564-20.74,4.562-28.659-.011-3.962-2.286-5.94-5.283-5.943-8.275V1026.2h0C1781.206,1029.189,1783.19,1032.182,1787.146,1034.468Z" transform="translate(-1781.201 -997.709)" opacity="0.2" style="mix-blend-mode: overlay;isolation: isolate"/>
  <path id="Trazado_697624" data-name="Trazado 697624" d="M1829.368,1030.168c-.053.031-.116.051-.173.082a9.926,9.926,0,0,0-8.6,0c-.053-.03-.114-.051-.166-.081-2.47-1.424-2.47-3.735-.006-5.158a9.89,9.89,0,0,1,8.939,0C1831.833,1026.433,1831.835,1028.745,1829.368,1030.168Z" transform="translate(-1810.057 -995.966)" fill="#406087"/>
  <path id="Trazado_697625" data-name="Trazado 697625" d="M1829.368,1030.168c-.053.031-.116.051-.173.082a9.926,9.926,0,0,0-8.6,0c-.053-.03-.114-.051-.166-.081-2.47-1.424-2.47-3.735-.006-5.158a9.89,9.89,0,0,1,8.939,0C1831.833,1026.433,1831.835,1028.745,1829.368,1030.168Z" transform="translate(-1810.057 -995.768)" opacity="0.2" style="mix-blend-mode: overlay;isolation: isolate"/>
  <path id="Trazado_697626" data-name="Trazado 697626" d="M1822.171,998.53c-6.981,4.03-18.307,4.027-25.3-.008-3.493-2.018-5.241-4.661-5.245-7.3s1.737-5.29,5.231-7.3c6.982-4.034,18.308-4.031,25.3,0,3.491,2.019,5.241,4.657,5.247,7.3S1825.666,996.512,1822.171,998.53Z" transform="translate(-1789.542 -963.249)" opacity="0.1" style="mix-blend-mode: overlay;isolation: isolate"/>
  <path id="Trazado_697627" data-name="Trazado 697627" d="M1822.158,984.987c-6.989-4.034-18.315-4.038-25.3-.007-3.253,1.879-4.97,4.3-5.187,6.763-.017-.174-.043-.346-.044-.522-.005-2.645,1.737-5.29,5.231-7.3,6.982-4.034,18.308-4.031,25.3,0,3.491,2.019,5.241,4.657,5.247,7.3,0,.182-.03.362-.046.546C1827.141,989.3,1825.42,986.87,1822.158,984.987Z" transform="translate(-1789.252 -962.732)" opacity="0.15" style="mix-blend-mode: overlay;isolation: isolate"/>
</svg>
