<svg id="Grupo_913118" data-name="Grupo 913118" xmlns="http://www.w3.org/2000/svg" width="52.376" height="49.206" viewBox="0 0 52.376 49.206">
  <path id="Trazado_707722" data-name="Trazado 707722" d="M423.685,380.167a3.976,3.976,0,0,1-.845-1.149A3.154,3.154,0,0,1,424,375.152a15.687,15.687,0,0,0-3.452-1.99,13.113,13.113,0,0,1-6.689.67,8.412,8.412,0,0,1-5.215-2.513c-.8.054-1.607.131-2.409.255s-1.563.286-2.3.474c.186,1.316-.589,2.67-2.336,3.678a8.611,8.611,0,0,1-1.032.475c-.159-.026-.311-.062-.473-.086-.967-.15-1.939-.242-2.9-.307a6.75,6.75,0,0,1-1.43,1.258c-.18,0-.359.015-.539.006-.127.171-.239.345-.35.52a12.977,12.977,0,0,1-3.967,1.245,15.77,15.77,0,0,1-8.062-.808,18.985,18.985,0,0,0-4.159,2.4c1.568,1.314,2.172,3,1.4,4.658a4.821,4.821,0,0,1-1.017,1.385,9.7,9.7,0,0,1-4.238,2.247,8.174,8.174,0,0,0,1.518,3.275,14.457,14.457,0,0,1,7.687,1.625c2.1,1.214,3.034,2.842,2.811,4.431.9.222,1.813.422,2.78.573s1.935.239,2.9.306a10.152,10.152,0,0,1,6.285-3.03,15.8,15.8,0,0,1,8.064.811,19.175,19.175,0,0,0,4.163-2.4c-1.572-1.314-2.176-3-1.4-4.658a4.6,4.6,0,0,1,.526-.835,6.435,6.435,0,0,1,2.359,1.689c.8-.056,1.6-.131,2.406-.255s1.563-.291,2.307-.475c-.185-1.319.588-2.668,2.332-3.677a11.991,11.991,0,0,1,6.378-1.349,6.778,6.778,0,0,0,1.262-2.715A8.047,8.047,0,0,1,423.685,380.167ZM402.393,390.92l-.095.067c-.132.089-.266.175-.406.259-.049.029-.1.058-.146.085-.14.081-.282.162-.431.237-.062.032-.126.06-.189.091l-.033.016c-.063.031-.125.062-.189.091-.274.127-.555.245-.849.351a15.941,15.941,0,0,1-7.725.688,11.956,11.956,0,0,1-4.935-1.821c-.043-.028-.088-.057-.13-.086s-.075-.062-.115-.091c-.167-.125-.321-.253-.468-.384-.059-.054-.121-.1-.176-.156-.017-.018-.037-.032-.054-.05l.007,0a3.644,3.644,0,0,1-1.015-4.3c1.4-3,6.742-4.787,11.943-3.983.142.022.276.051.415.078a3.738,3.738,0,0,1,.519.794,3.147,3.147,0,0,1-1.164,3.865,15.837,15.837,0,0,0,3.454,1.992,12.363,12.363,0,0,1,3.945-.79,3.6,3.6,0,0,1-.284.948A5.478,5.478,0,0,1,402.393,390.92Zm15.157-7.646.006,0c-.011.011-.027.02-.039.031a5.85,5.85,0,0,1-.457.385c-.062.049-.116.1-.18.146-.049.036-.107.069-.157.1-.071.049-.148.093-.222.139-.127.077-.244.16-.38.236.126-.069.232-.147.349-.221a9.116,9.116,0,0,1-1.892.864,8.677,8.677,0,0,0-1.211-2.22,14.441,14.441,0,0,1-7.684-1.621,6.126,6.126,0,0,1-2.371-2.253,8.438,8.438,0,0,1,5.17-2.468c4.314-.666,8.75.815,9.91,3.306A3.029,3.029,0,0,1,417.55,383.274Z" transform="translate(-374.827 -349.722)" opacity="0.05"/>
  <g id="Grupo_913111" data-name="Grupo 913111" transform="translate(0 9.036)">
    <path id="Trazado_707723" data-name="Trazado 707723" d="M414.887,366.836a8.2,8.2,0,0,0-1.52-3.277,14.434,14.434,0,0,1-7.684-1.62c-2.1-1.215-3.04-2.846-2.815-4.432-.893-.223-1.81-.423-2.776-.573s-1.939-.241-2.9-.306a10.147,10.147,0,0,1-6.285,3.029,15.789,15.789,0,0,1-8.062-.809,19.015,19.015,0,0,0-4.159,2.4v5.685c.138.115.26.237.382.359a9.689,9.689,0,0,1-4.238,2.247v5.684a8.179,8.179,0,0,0,1.518,3.275,14.457,14.457,0,0,1,7.687,1.624c2.1,1.215,3.034,2.843,2.811,4.432.9.221,1.813.422,2.78.573s1.935.239,2.9.306a10.153,10.153,0,0,1,6.285-3.03,15.8,15.8,0,0,1,8.064.811,19.142,19.142,0,0,0,4.163-2.4v-5.683c-.139-.119-.261-.24-.385-.363a9.724,9.724,0,0,1,4.237-2.244Zm-28.436,4.2c2.163-2.138,6.595-3.272,10.935-2.6a10.735,10.735,0,0,1,5.876,2.585c-2.162,2.139-6.595,3.275-10.933,2.6A10.745,10.745,0,0,1,386.452,371.036Z" transform="translate(-374.827 -356.627)" fill="#ededef"/>
    <path id="Trazado_707724" data-name="Trazado 707724" d="M400.033,373.726a8.9,8.9,0,0,0,3.229-1.924,10.734,10.734,0,0,0-5.876-2.585c-4.34-.67-8.771.463-10.935,2.6a7.619,7.619,0,0,0,1.729,1.253c-2.528-1.372-3.7-3.481-2.737-5.555,1.4-3,6.742-4.787,11.943-3.983s8.282,3.884,6.885,6.887A7.183,7.183,0,0,1,400.033,373.726Zm-1.225,3.773a10.149,10.149,0,0,0-6.285,3.031c-.964-.067-1.931-.158-2.9-.307s-1.884-.351-2.78-.573c.223-1.589-.71-3.217-2.811-4.431a14.439,14.439,0,0,0-7.687-1.624,8.183,8.183,0,0,1-1.518-3.276V376a8.18,8.18,0,0,0,1.518,3.275,14.456,14.456,0,0,1,7.687,1.624c2.1,1.215,3.034,2.843,2.811,4.432.9.221,1.813.422,2.78.573s1.935.239,2.9.306a10.153,10.153,0,0,1,6.285-3.03,15.8,15.8,0,0,1,8.064.811,19.145,19.145,0,0,0,4.163-2.4V375.91a19.14,19.14,0,0,1-4.163,2.4A15.8,15.8,0,0,0,398.808,377.5Zm16.079-9.88c-2.5.684-4.482,1.967-5.255,3.633s-.17,3.344,1.4,4.658c-.139-.119-.261-.24-.385-.362a9.724,9.724,0,0,1,4.237-2.244Zm-34.8-.932c.772-1.661.168-3.344-1.4-4.659v5.685c.138.115.26.237.382.359A4.82,4.82,0,0,0,380.083,366.687Z" transform="translate(-374.827 -357.41)" style="mix-blend-mode: overlay;isolation: isolate"/>
  </g>
  <g id="Grupo_913112" data-name="Grupo 913112" transform="translate(19.132 0)">
    <path id="Trazado_707725" data-name="Trazado 707725" d="M397.2,359.247a8.084,8.084,0,0,1,3.517,1.863c-.1.1-.2.2-.32.3v4.716a15.8,15.8,0,0,0,3.454,1.991,13.082,13.082,0,0,1,6.691-.669,8.406,8.406,0,0,1,5.216,2.513c.8-.056,1.6-.132,2.406-.256s1.563-.289,2.307-.473c-.185-1.319.588-2.671,2.332-3.679a12.006,12.006,0,0,1,6.378-1.347,6.788,6.788,0,0,0,1.262-2.718v-4.715a8.055,8.055,0,0,1-3.518-1.865c.1-.1.2-.2.316-.3v-4.715a15.688,15.688,0,0,0-3.452-1.99,13.112,13.112,0,0,1-6.69.67,8.412,8.412,0,0,1-5.215-2.513c-.8.053-1.607.131-2.409.255s-1.563.286-2.3.474c.186,1.316-.589,2.67-2.336,3.678a11.982,11.982,0,0,1-6.377,1.346,6.789,6.789,0,0,0-1.261,2.72Zm18.718.916c-3.6.557-7.277-.385-9.072-2.161a8.9,8.9,0,0,1,4.878-2.144c3.6-.557,7.278.384,9.073,2.161A8.945,8.945,0,0,1,415.922,360.162Z" transform="translate(-397.204 -346.059)" fill="#feca2e"/>
    <path id="Trazado_707726" data-name="Trazado 707726" d="M406.013,357.506c-1.159-2.491,1.4-5.051,5.714-5.717s8.75.815,9.91,3.306c.8,1.72-.174,3.47-2.272,4.611a6.436,6.436,0,0,0,1.435-1.039c-1.8-1.777-5.473-2.717-9.073-2.161a8.9,8.9,0,0,0-4.878,2.144,7.407,7.407,0,0,0,2.681,1.6A5.958,5.958,0,0,1,406.013,357.506Zm-2.158,6.545a15.908,15.908,0,0,1-3.454-1.992v4.716a15.8,15.8,0,0,0,3.454,1.991,13.082,13.082,0,0,1,6.691-.669,8.406,8.406,0,0,1,5.216,2.513c.8-.056,1.6-.132,2.406-.256s1.563-.289,2.307-.473c-.185-1.319.588-2.671,2.332-3.679a12.006,12.006,0,0,1,6.378-1.348,6.788,6.788,0,0,0,1.262-2.718v-4.715a6.789,6.789,0,0,1-1.262,2.715,11.984,11.984,0,0,0-6.378,1.35c-1.744,1.008-2.517,2.358-2.332,3.676-.744.184-1.5.351-2.307.475s-1.606.2-2.406.257a8.408,8.408,0,0,0-5.216-2.516A13.091,13.091,0,0,0,403.855,364.051ZM397.2,359.9a8.084,8.084,0,0,1,3.517,1.863c-.1.1-.2.2-.32.3a3.148,3.148,0,0,0,1.164-3.865c-.641-1.381-2.289-2.446-4.36-3.012Zm29.726-4.34c.1-.1.2-.2.316-.3v-4.715a3.154,3.154,0,0,0-1.161,3.865A4,4,0,0,0,426.93,355.556Z" transform="translate(-397.204 -346.709)" opacity="0.2" style="mix-blend-mode: overlay;isolation: isolate"/>
  </g>
</svg>
