<svg xmlns="http://www.w3.org/2000/svg" xmlns:xlink="http://www.w3.org/1999/xlink" width="295.328" height="280.132" viewBox="0 0 295.328 280.132">
  <defs>
    <filter id="Trazado_736400">
      <feOffset dx="2" dy="2" input="SourceAlpha"/>
      <feGaussianBlur stdDeviation="8" result="blur"/>
      <feFlood flood-opacity="0.161" result="color"/>
      <feComposite operator="out" in="SourceGraphic" in2="blur"/>
      <feComposite operator="in" in="color"/>
      <feComposite operator="in" in2="SourceGraphic"/>
    </filter>
    <filter id="Trazado_736401" x="0" y="209.434" width="70.555" height="70.698" filterUnits="userSpaceOnUse">
      <feOffset dx="2" dy="9" input="SourceAlpha"/>
      <feGaussianBlur stdDeviation="3.5" result="blur-2"/>
      <feFlood flood-color="#fffcfc" flood-opacity="0.98"/>
      <feComposite operator="in" in2="blur-2"/>
      <feComposite in="SourceGraphic"/>
    </filter>
  </defs>
  <g id="Grupo_929408" data-name="Grupo 929408" transform="translate(-137.5 -368.053)">
    <path id="Trazado_736399" data-name="Trazado 736399" d="M238.778,0V147.988s3.566,51.51-67.333,51.227S0,199.216,0,199.216" transform="translate(408.586 582.559) rotate(180)" fill="none" stroke="#0b5999" stroke-width="4"/>
    <g data-type="innerShadowGroup">
      <path id="Trazado_736400-2" data-name="Trazado 736400" d="M28.937,19.041l-9.951,9.98a5.283,5.283,0,0,1-7.485,0L1.55,19.041a5.32,5.32,0,0,1,0-7.507L11.5,1.555a5.282,5.282,0,0,1,7.485,0l9.951,9.979A5.319,5.319,0,0,1,28.937,19.041Z" transform="translate(432.828 398.629) rotate(180)" fill="#0b5999" opacity="0.999"/>
      <g transform="matrix(1, 0, 0, 1, 137.5, 368.05)" filter="url(#Trazado_736400)">
        <path id="Trazado_736400-3" data-name="Trazado 736400" d="M28.937,19.041l-9.951,9.98a5.283,5.283,0,0,1-7.485,0L1.55,19.041a5.32,5.32,0,0,1,0-7.507L11.5,1.555a5.282,5.282,0,0,1,7.485,0l9.951,9.979A5.319,5.319,0,0,1,28.937,19.041Z" transform="translate(295.33 30.58) rotate(180)" fill="#fff" opacity="0.999"/>
      </g>
    </g>
    <g transform="matrix(1, 0, 0, 1, 137.5, 368.05)" filter="url(#Trazado_736401)">
      <path id="Trazado_736401-2" data-name="Trazado 736401" d="M47.035,30.95,30.861,47.171a8.586,8.586,0,0,1-12.167,0L2.52,30.95a8.647,8.647,0,0,1,0-12.2L18.694,2.527a8.586,8.586,0,0,1,12.167,0L47.035,18.748A8.646,8.646,0,0,1,47.035,30.95Z" transform="translate(58.05 260.63) rotate(180)" fill="#0b5999" opacity="0.999"/>
    </g>
  </g>
</svg>
