<svg xmlns="http://www.w3.org/2000/svg" xmlns:xlink="http://www.w3.org/1999/xlink" width="301" height="265" viewBox="0 0 301 265">
  <defs>
    <clipPath id="clip-path">
      <rect id="Rectángulo_303639" data-name="Rectángulo 303639" width="301" height="265" transform="translate(1096 1588)" fill="#fff" stroke="#707070" stroke-width="1"/>
    </clipPath>
    <clipPath id="clip-path-2">
      <rect id="Rectángulo_303200" data-name="Rectángulo 303200" width="347" height="333.906" rx="23" transform="translate(20 1758)" fill="#fff"/>
    </clipPath>
  </defs>
  <g id="Enmascarar_grupo_130557" data-name="Enmascarar grupo 130557" transform="translate(-1096 -1588)" clip-path="url(#clip-path)">
    <g id="Enmascarar_grupo_130556" data-name="Enmascarar grupo 130556" transform="translate(1041 -212.905)" clip-path="url(#clip-path-2)">
      <g id="Grupo_900625" data-name="Grupo 900625" transform="translate(-10.217 1758.001)">
        <g id="Background_Complete" data-name="Background Complete">
          <g id="Grupo_900567" data-name="Grupo 900567">
            <rect id="Rectángulo_303165" data-name="Rectángulo 303165" width="26.99" height="0.204" transform="translate(339.621 279.942)" fill="#ebebeb"/>
            <rect id="Rectángulo_303166" data-name="Rectángulo 303166" width="7.084" height="0.204" transform="translate(262.817 282.153)" fill="#ebebeb"/>
            <rect id="Rectángulo_303167" data-name="Rectángulo 303167" width="15.639" height="0.204" transform="translate(323.166 272.375)" fill="#ebebeb"/>
            <rect id="Rectángulo_303168" data-name="Rectángulo 303168" width="35.197" height="0.204" transform="translate(42.747 273.744)" fill="#ebebeb"/>
            <rect id="Rectángulo_303169" data-name="Rectángulo 303169" width="5.161" height="0.204" transform="translate(85.199 273.744)" fill="#ebebeb"/>
            <rect id="Rectángulo_303170" data-name="Rectángulo 303170" width="76.334" height="0.204" transform="translate(107.132 277.184)" fill="#ebebeb"/>
            <g id="Grupo_900566" data-name="Grupo 900566" transform="translate(32.264)">
              <path id="Trazado_671634" data-name="Trazado 671634" d="M201.6,285.437H44.245a4.657,4.657,0,0,1-4.651-4.651V59.6a4.656,4.656,0,0,1,4.651-4.65H201.6a4.656,4.656,0,0,1,4.65,4.65V280.785A4.657,4.657,0,0,1,201.6,285.437ZM44.245,55.157A4.452,4.452,0,0,0,39.8,59.6V280.785a4.453,4.453,0,0,0,4.448,4.448H201.6a4.452,4.452,0,0,0,4.447-4.448V59.6a4.452,4.452,0,0,0-4.447-4.447Z" transform="translate(-39.594 -54.953)" fill="#ebebeb"/>
              <path id="Trazado_671635" data-name="Trazado 671635" d="M417.893,285.437H260.542a4.657,4.657,0,0,1-4.65-4.651V59.6a4.656,4.656,0,0,1,4.65-4.65H417.893a4.656,4.656,0,0,1,4.651,4.65V280.785A4.657,4.657,0,0,1,417.893,285.437ZM260.542,55.157A4.452,4.452,0,0,0,256.1,59.6V280.785a4.452,4.452,0,0,0,4.447,4.448H417.893a4.452,4.452,0,0,0,4.448-4.448V59.6a4.452,4.452,0,0,0-4.448-4.447Z" transform="translate(-79.637 -54.953)" fill="#ebebeb"/>
            </g>
            <rect id="Rectángulo_303171" data-name="Rectángulo 303171" width="407.435" height="0.204" transform="translate(0 266.825)" fill="#ebebeb"/>
          </g>
          <g id="Grupo_900571" data-name="Grupo 900571" transform="translate(263.234 47.826)">
            <g id="Grupo_900568" data-name="Grupo 900568">
              <path id="Trazado_671636" data-name="Trazado 671636" d="M427.266,113.644V333.133H376.351l.1-.39h43.241V120.411H329.8V332.743h27.82l18.726.39H323.038V113.644Z" transform="translate(-323.038 -113.644)" fill="#ebebeb"/>
              <path id="Trazado_671637" data-name="Trazado 671637" d="M421.228,121.949V334.28H377.987l-.1.39-18.726-.39h-27.82V121.949Z" transform="translate(-324.575 -115.182)" fill="#f0f0f0"/>
              <rect id="Rectángulo_303172" data-name="Rectángulo 303172" width="89.886" height="212.332" transform="translate(6.767 6.767)" fill="#fafafa"/>
            </g>
            <path id="Trazado_671638" data-name="Trazado 671638" d="M427.548,121.949v42.71L384.308,334.28l-.1.39-18.726-.39,60-212.332Z" transform="translate(-330.895 -115.182)" fill="#fff"/>
            <rect id="Rectángulo_303173" data-name="Rectángulo 303173" width="10.542" height="34.693" transform="translate(6.766 94.606)" fill="#fff"/>
            <path id="Trazado_671639" data-name="Trazado 671639" d="M391.348,121.948,331.341,334.283l18.726.387L409.4,121.948Z" transform="translate(-324.575 -115.181)" fill="#fff"/>
            <g id="Grupo_900570" data-name="Grupo 900570" transform="translate(17.583 95.808)">
              <rect id="Rectángulo_303174" data-name="Rectángulo 303174" width="28.819" height="21.199" rx="2.309" fill="#e0e0e0"/>
              <rect id="Rectángulo_303175" data-name="Rectángulo 303175" width="12.965" height="7.189" transform="translate(2.12 1.828)" fill="#ebebeb"/>
              <g id="Grupo_900569" data-name="Grupo 900569" transform="translate(2.12 11.199)">
                <rect id="Rectángulo_303176" data-name="Rectángulo 303176" width="2.458" height="1.352" fill="#ebebeb"/>
                <rect id="Rectángulo_303177" data-name="Rectángulo 303177" width="2.458" height="1.352" transform="translate(0 2.274)" fill="#ebebeb"/>
                <rect id="Rectángulo_303178" data-name="Rectángulo 303178" width="2.458" height="1.352" transform="translate(0 4.547)" fill="#ebebeb"/>
                <rect id="Rectángulo_303179" data-name="Rectángulo 303179" width="2.458" height="1.352" transform="translate(0 6.821)" fill="#ebebeb"/>
                <rect id="Rectángulo_303180" data-name="Rectángulo 303180" width="2.458" height="1.352" transform="translate(3.502)" fill="#ebebeb"/>
                <rect id="Rectángulo_303181" data-name="Rectángulo 303181" width="2.458" height="1.352" transform="translate(3.502 2.274)" fill="#ebebeb"/>
                <rect id="Rectángulo_303182" data-name="Rectángulo 303182" width="2.458" height="1.352" transform="translate(3.502 4.547)" fill="#ebebeb"/>
                <rect id="Rectángulo_303183" data-name="Rectángulo 303183" width="2.458" height="1.352" transform="translate(3.502 6.821)" fill="#ebebeb"/>
                <rect id="Rectángulo_303184" data-name="Rectángulo 303184" width="2.458" height="1.352" transform="translate(7.005)" fill="#ebebeb"/>
                <rect id="Rectángulo_303185" data-name="Rectángulo 303185" width="2.458" height="1.352" transform="translate(7.005 2.274)" fill="#ebebeb"/>
                <rect id="Rectángulo_303186" data-name="Rectángulo 303186" width="2.458" height="1.352" transform="translate(7.005 4.547)" fill="#ebebeb"/>
                <rect id="Rectángulo_303187" data-name="Rectángulo 303187" width="2.458" height="1.352" transform="translate(7.005 6.821)" fill="#ebebeb"/>
                <rect id="Rectángulo_303188" data-name="Rectángulo 303188" width="2.458" height="1.352" transform="translate(10.508)" fill="#ebebeb"/>
                <rect id="Rectángulo_303189" data-name="Rectángulo 303189" width="2.458" height="1.352" transform="translate(10.508 2.274)" fill="#ebebeb"/>
                <rect id="Rectángulo_303190" data-name="Rectángulo 303190" width="2.458" height="1.352" transform="translate(10.508 4.547)" fill="#ebebeb"/>
                <rect id="Rectángulo_303191" data-name="Rectángulo 303191" width="2.458" height="1.352" transform="translate(10.508 6.821)" fill="#ebebeb"/>
              </g>
              <rect id="Rectángulo_303192" data-name="Rectángulo 303192" width="7.066" height="19.371" transform="translate(19.725)" fill="#f0f0f0"/>
              <rect id="Rectángulo_303193" data-name="Rectángulo 303193" width="7.066" height="8.05" transform="translate(19.725 5.423)" fill="#e6e6e6"/>
              <path id="Trazado_671640" data-name="Trazado 671640" d="M368.821,246.74l1.352-4.455H374.9l.983,4.455Z" transform="translate(-349.096 -233.268)" fill="#e0e0e0"/>
            </g>
          </g>
          <g id="Grupo_900580" data-name="Grupo 900580" transform="translate(200.59 189.042)">
            <g id="Grupo_900579" data-name="Grupo 900579" transform="translate(0 1.869)">
              <g id="Grupo_900572" data-name="Grupo 900572" transform="translate(34.301 16.336)">
                <path id="Trazado_671641" data-name="Trazado 671641" d="M288.54,338.18a.231.231,0,0,1-.23-.223c-.7-20.637,5.595-28.512,5.658-28.588a.231.231,0,1,1,.356.293c-.063.076-6.243,7.842-5.553,28.279a.232.232,0,0,1-.223.239Z" transform="translate(-288.256 -309.284)" fill="#e0e0e0"/>
              </g>
              <g id="Grupo_900575" data-name="Grupo 900575" transform="translate(37.293 13.228)">
                <g id="Grupo_900573" data-name="Grupo 900573" transform="translate(0 13.979)">
                  <path id="Trazado_671642" data-name="Trazado 671642" d="M292.159,340.65h-.021a.232.232,0,0,1-.209-.251c.551-6.036,2.717-10.645,6.436-13.7,5.8-4.768,13.46-4.032,13.537-4.025a.231.231,0,0,1-.047.46c-.075-.008-7.551-.721-13.2,3.924-3.618,2.976-5.726,7.48-6.266,13.386A.231.231,0,0,1,292.159,340.65Z" transform="translate(-291.928 -322.626)" fill="#e0e0e0"/>
                </g>
                <g id="Grupo_900574" data-name="Grupo 900574" transform="translate(8.479)">
                  <path id="Trazado_671643" data-name="Trazado 671643" d="M309.039,319.626c-1.118-2.249-10.381-3.783-5.081-8.664s5.284,5.58,7.644,5.539c3.3-.055,2.66-14.046,8.108-10.435s-5.381,9.32-3.647,11.906c1.594,2.375,11.207-5.308,11.422-.614s-10.24,1.221-10.909,4.052c-.521,2.2,9.783,4.209,5.213,7.4s-6.033-6.5-8.55-5.872c-1.912.477.645,8.444-3.207,7.2S310.214,321.991,309.039,319.626Z" transform="translate(-302.333 -305.47)" fill="#f5f5f5"/>
                </g>
              </g>
              <g id="Grupo_900578" data-name="Grupo 900578">
                <g id="Grupo_900576" data-name="Grupo 900576" transform="translate(20.807 18.205)">
                  <path id="Trazado_671644" data-name="Trazado 671644" d="M281.971,341.174a.231.231,0,0,1-.23-.207c-1.841-17.948-9.918-28.911-10-29.02a.231.231,0,1,1,.37-.277c.082.11,8.235,11.176,10.089,29.25a.23.23,0,0,1-.206.253Z" transform="translate(-271.695 -311.578)" fill="#e0e0e0"/>
                </g>
                <g id="Grupo_900577" data-name="Grupo 900577">
                  <path id="Trazado_671645" data-name="Trazado 671645" d="M269.189,314.617c-2.8,2.323-1.868,15.883-10.512,10.044s6.1-9.3,5.256-12.613c-1.18-4.634-20.672.934-17.4-7.942s14.923,4.472,17.986,1.168c2.814-3.035-11.213-14.015-4.672-15.883s5.132,14.017,9.343,14.015c3.277,0,2.666-15.183,8.691-9.811s-7.145,10.666-5.421,14c1.31,2.534,11.68-3.722,11.212,2.118S272.128,312.173,269.189,314.617Z" transform="translate(-246.162 -289.237)" fill="#e6e6e6"/>
                </g>
              </g>
              <path id="Trazado_671646" data-name="Trazado 671646" d="M295.51,364.46l1.9-22.292H270.428l1.9,22.292a11.635,11.635,0,0,0,11.592,10.649h0A11.635,11.635,0,0,0,295.51,364.46Z" transform="translate(-250.654 -299.036)" fill="#e0e0e0"/>
            </g>
            <path id="Trazado_671647" data-name="Trazado 671647" d="M289.9,312.324c2.8,2.323,1.869,15.883,10.511,10.044s-6.1-9.3-5.255-12.614c1.18-4.634,20.672.935,17.4-7.942s-14.923,4.473-17.986,1.169c-2.814-3.036,11.212-14.015,4.672-15.884s-5.132,14.017-9.343,14.016c-3.276,0-2.666-15.184-8.691-9.811s7.145,10.666,5.421,14c-1.31,2.534-11.68-3.722-11.212,2.118S286.958,309.88,289.9,312.324Z" transform="translate(-251.575 -286.944)" fill="#f0f0f0"/>
          </g>
          <g id="Grupo_900581" data-name="Grupo 900581" transform="translate(40.571 27.817)">
            <rect id="Rectángulo_303194" data-name="Rectángulo 303194" width="158.158" height="239.523" fill="#fafafa"/>
            <rect id="Rectángulo_303195" data-name="Rectángulo 303195" width="137.817" height="216.131" transform="translate(11.702 23.392)" fill="#ebebeb"/>
            <rect id="Rectángulo_303196" data-name="Rectángulo 303196" width="64.835" height="205.96" transform="translate(81.376 28.478)" fill="#fafafa"/>
            <rect id="Rectángulo_303197" data-name="Rectángulo 303197" width="64.835" height="205.96" transform="translate(15.01 28.981)" fill="#fafafa"/>
            <rect id="Rectángulo_303198" data-name="Rectángulo 303198" width="20.855" height="7.119" transform="translate(69.16 6.616)" fill="#fff"/>
          </g>
          <g id="Grupo_900582" data-name="Grupo 900582" transform="translate(213.51 127.601)">
            <rect id="Rectángulo_303199" data-name="Rectángulo 303199" width="11.684" height="22.509" fill="#e6e6e6"/>
            <path id="Trazado_671648" data-name="Trazado 671648" d="M268.511,217.39a3.654,3.654,0,1,1-3.655,3.654A3.654,3.654,0,0,1,268.511,217.39Z" transform="translate(-262.543 -212.626)" fill="#f5f5f5"/>
            <path id="Trazado_671649" data-name="Trazado 671649" d="M270.857,221.982h-3.906l2.016-2.749Z" transform="translate(-262.93 -212.967)" fill="#e6e6e6"/>
            <path id="Trazado_671650" data-name="Trazado 671650" d="M268.511,226.936a3.654,3.654,0,1,1-3.655,3.654A3.654,3.654,0,0,1,268.511,226.936Z" transform="translate(-262.543 -214.393)" fill="#f5f5f5"/>
            <path id="Trazado_671651" data-name="Trazado 671651" d="M270.857,230.268h-3.906l2.016,2.749Z" transform="translate(-262.93 -215.01)" fill="#e6e6e6"/>
          </g>
        </g>
        <g id="Shadow" transform="translate(45.723 284.809)">
          <ellipse id="_Path_" data-name="&lt;Path&gt;" cx="157.994" cy="9.227" rx="157.994" ry="9.227" fill="#f5f5f5"/>
        </g>
        <g id="Banana" transform="translate(91.498 220.025)">
          <g id="Grupo_900591" data-name="Grupo 900591" transform="translate(0)">
            <g id="Grupo_900587" data-name="Grupo 900587" transform="translate(0.001 22.492)">
              <path id="Trazado_671652" data-name="Trazado 671652" d="M130.986,384.512c.452-.808.095-1.8-.145-2.7a9.868,9.868,0,0,1,.709-6.918,1.4,1.4,0,0,0,.21-.65c-.007-.231-.192-.473-.421-.451a.615.615,0,0,0-.345.21,8.364,8.364,0,0,0-2.347,5.612,6.221,6.221,0,0,0,.623,2.77A12.134,12.134,0,0,0,130.986,384.512Z" transform="translate(-115.315 -356.498)" fill="#feca2e"/>
              <g id="Grupo_900583" data-name="Grupo 900583" transform="translate(13.825 13.325)">
                <path id="Trazado_671653" data-name="Trazado 671653" d="M140.607,369.39c-1.6-.841-4.056-.538-6.3.78a12.206,12.206,0,0,0-5.055,5.888,3.231,3.231,0,0,1,2.158-1.235,14.323,14.323,0,0,1,2.1-.152,8.169,8.169,0,0,0,4.1-1.762A9.45,9.45,0,0,0,140.607,369.39Z" transform="translate(-129.252 -368.92)" fill="#feca2e"/>
                <path id="Trazado_671654" data-name="Trazado 671654" d="M140.607,369.39c-1.6-.841-4.056-.538-6.3.78a12.206,12.206,0,0,0-5.055,5.888,3.231,3.231,0,0,1,2.158-1.235,14.323,14.323,0,0,1,2.1-.152,8.169,8.169,0,0,0,4.1-1.762A9.45,9.45,0,0,0,140.607,369.39Z" transform="translate(-129.252 -368.92)" fill="#fff" opacity="0.3"/>
              </g>
              <g id="Grupo_900586" data-name="Grupo 900586">
                <path id="Trazado_671655" data-name="Trazado 671655" d="M136.514,369.609c-1.524,1.222-3.8.814-5.532-.095a28.609,28.609,0,0,0-4.906-2.1c-2.643-.856-6.374-.887-7.966,1.39-2.215,3.167-3.07,4.409-5.823,5.407.732.853,1.785,2.163,2.89,1.954a4.2,4.2,0,0,0,1.64-.988c1.943-1.486,4.236-3.721,6.518-2.84,2.046.79,5.355,2.666,7.448,2.009s3.377-1.005,4.895-2.589C136.71,371.517,136.909,370.593,136.514,369.609Z" transform="translate(-112.286 -355.217)" fill="#feca2e"/>
                <g id="Grupo_900585" data-name="Grupo 900585" transform="translate(19.251)">
                  <g id="Grupo_900584" data-name="Grupo 900584">
                    <path id="Trazado_671656" data-name="Trazado 671656" d="M136,360.795c2.235-4.483,6.917-6.284,11.242-6.879a.145.145,0,0,0,.1-.223,4.247,4.247,0,0,0-2.406-1.119,8.913,8.913,0,0,0-5.875,1.779,2.578,2.578,0,0,0-1.05,2.037C136.86,357.6,135.559,359.111,136,360.795Z" transform="translate(-135.911 -352.568)" fill="#feca2e"/>
                  </g>
                </g>
                <path id="Trazado_671657" data-name="Trazado 671657" d="M141.565,367.879c.147-.884-.533-1.562-1.029-2.26-1.034-1.455-5.482-3.005-4.593-6.051a5.141,5.141,0,0,1,1.942-2.909s-.174-.908,1.437-2.183c-.714.945-.457,4.559.57,6,1.164,1.627,3.535,2.816,2.709,5.108A5.951,5.951,0,0,1,141.565,367.879Z" transform="translate(-116.644 -352.921)" fill="#feca2e"/>
                <path id="Trazado_671658" data-name="Trazado 671658" d="M141.565,367.879c.147-.884-.533-1.562-1.029-2.26-1.034-1.455-5.482-3.005-4.593-6.051a5.141,5.141,0,0,1,1.942-2.909s-.174-.908,1.437-2.183c-.714.945-.457,4.559.57,6,1.164,1.627,3.535,2.816,2.709,5.108A5.951,5.951,0,0,1,141.565,367.879Z" transform="translate(-116.733 -352.92)" fill="#fff" opacity="0.3"/>
                <path id="Trazado_671659" data-name="Trazado 671659" d="M141.834,371.412a2.243,2.243,0,0,0,1.884.059l1.144-1.836a11.057,11.057,0,0,0-1.273-1.311,6.246,6.246,0,0,0-1.427,1.191A2.153,2.153,0,0,0,141.834,371.412Z" transform="translate(-117.738 -355.485)" fill="#feca2e"/>
                <path id="Trazado_671660" data-name="Trazado 671660" d="M145.816,370.885l-.639,1.023-.936-.224.963-1.542Z" transform="translate(-118.202 -355.821)" fill="#263238"/>
              </g>
            </g>
            <g id="Grupo_900589" data-name="Grupo 900589" transform="translate(6.549)">
              <g id="Grupo_900588" data-name="Grupo 900588">
                <path id="Trazado_671661" data-name="Trazado 671661" d="M122.888,331.107a11.671,11.671,0,0,1-2.566-3.9l1.4-.881c.227-.137.443-.274.647-.4.413-.246.788-.458,1.128-.618.708-.339,1.264-.456,1.669-.213a.76.76,0,0,1,.315.421,1.139,1.139,0,0,1,.047.151c.007.051.02.11.027.172a2.926,2.926,0,0,1-.011.6l0,0a4.449,4.449,0,0,1-.087.465A9.716,9.716,0,0,1,122.888,331.107Z" transform="translate(-120.322 -324.966)" fill="#feca2e"/>
                <path id="Trazado_671662" data-name="Trazado 671662" d="M122.888,331.107a11.671,11.671,0,0,1-2.566-3.9l1.4-.881c.227-.137.443-.274.647-.4.413-.246.788-.458,1.128-.618.708-.339,1.264-.456,1.669-.213a.76.76,0,0,1,.315.421,1.139,1.139,0,0,1,.047.151c.007.051.02.11.027.172a2.926,2.926,0,0,1-.011.6l0,0a4.449,4.449,0,0,1-.087.465A9.716,9.716,0,0,1,122.888,331.107Z" transform="translate(-120.322 -324.966)" fill="#fff" opacity="0.6"/>
              </g>
            </g>
            <g id="Grupo_900590" data-name="Grupo 900590" transform="translate(0 14.288)">
              <path id="Trazado_671663" data-name="Trazado 671663" d="M117.9,353.173a4.36,4.36,0,0,1-3.641,1.326,21.214,21.214,0,0,1-4.165-10.373,9.106,9.106,0,0,0,4.223-.827A24.228,24.228,0,0,0,117.9,353.173Z" transform="translate(-110.069 -342.647)" fill="#feca2e"/>
              <path id="Trazado_671664" data-name="Trazado 671664" d="M117.9,353.173a4.36,4.36,0,0,1-3.641,1.326,21.214,21.214,0,0,1-4.165-10.373,9.106,9.106,0,0,0,4.223-.827A24.228,24.228,0,0,0,117.9,353.173Z" transform="translate(-110.07 -342.647)" fill="#fff" opacity="0.6"/>
              <path id="Trazado_671665" data-name="Trazado 671665" d="M110.687,344.262a4.833,4.833,0,0,0,3.11-.654,1.234,1.234,0,0,0,.409-.352.507.507,0,0,0,.048-.515.532.532,0,0,0-.434-.24,1.981,1.981,0,0,0-.512.062c-.594.116-1.209.128-1.79.3C110.895,343.042,109.139,344.058,110.687,344.262Z" transform="translate(-110.065 -342.499)" fill="#feca2e"/>
              <path id="Trazado_671666" data-name="Trazado 671666" d="M110.687,344.262a4.833,4.833,0,0,0,3.11-.654,1.234,1.234,0,0,0,.409-.352.507.507,0,0,0,.048-.515.532.532,0,0,0-.434-.24,1.981,1.981,0,0,0-.512.062c-.594.116-1.209.128-1.79.3C110.895,343.042,109.139,344.058,110.687,344.262Z" transform="translate(-110.045 -342.499)" fill="#fff" opacity="0.8"/>
            </g>
          </g>
        </g>
        <g id="Items" transform="translate(164.039 38.318)">
          <g id="Grupo_900596" data-name="Grupo 900596">
            <g id="Grupo_900592" data-name="Grupo 900592">
              <path id="Trazado_671667" data-name="Trazado 671667" d="M208.634,115.746a9.772,9.772,0,0,0,3.315-7.723,35.433,35.433,0,0,0,13.025-6.047l.2.174a36.713,36.713,0,0,1-.248,7.968,12.341,12.341,0,0,1-3.528,7.009c-2.393,2.191-5.735,2.953-8.932,3.51-3.715.647-7.652,1.11-11.163-.267A28.917,28.917,0,0,0,208.634,115.746Z" transform="translate(-201.307 -101.976)" fill="#feca2e"/>
              <path id="Trazado_671668" data-name="Trazado 671668" d="M208.634,115.746a9.772,9.772,0,0,0,3.315-7.723,35.433,35.433,0,0,0,13.025-6.047l.2.174a36.713,36.713,0,0,1-.248,7.968,12.341,12.341,0,0,1-3.528,7.009c-2.393,2.191-5.735,2.953-8.932,3.51-3.715.647-7.652,1.11-11.163-.267A28.917,28.917,0,0,0,208.634,115.746Z" transform="translate(-201.095 -101.976)" fill="#fff" opacity="0.7"/>
            </g>
            <g id="Grupo_900593" data-name="Grupo 900593" transform="translate(2.048 26.355)">
              <path id="Trazado_671669" data-name="Trazado 671669" d="M204.223,156.764a12.081,12.081,0,0,1,.77-8.4c1.1-2.048,2.937-3.579,4.445-5.346a20,20,0,0,0,4.309-8.7l.014,1.251a30.51,30.51,0,0,0,2.122,21.205,88.225,88.225,0,0,0-8.393,7.951A35.9,35.9,0,0,1,204.223,156.764Z" transform="translate(-203.82 -134.318)" fill="#feca2e"/>
              <path id="Trazado_671670" data-name="Trazado 671670" d="M204.223,156.764a12.081,12.081,0,0,1,.77-8.4c1.1-2.048,2.937-3.579,4.445-5.346a20,20,0,0,0,4.309-8.7l.014,1.251a30.51,30.51,0,0,0,2.122,21.205,88.225,88.225,0,0,0-8.393,7.951A35.9,35.9,0,0,1,204.223,156.764Z" transform="translate(-203.82 -134.318)" fill="#fff" opacity="0.7"/>
            </g>
            <g id="Grupo_900595" data-name="Grupo 900595" transform="translate(31.553 14.712)">
              <g id="Grupo_900594" data-name="Grupo 900594">
                <path id="Trazado_671671" data-name="Trazado 671671" d="M250.055,123.94s1.683-1.28,2.176-1.756a4.762,4.762,0,0,0,.764-1.19c.215-.358.478-.493.177-.694a2.289,2.289,0,0,0-2.52.294c-.694.5-1.985,1.559-1.985,1.559S249.734,123.532,250.055,123.94Z" transform="translate(-241.627 -120.031)" fill="#2e7d87"/>
                <path id="Trazado_671672" data-name="Trazado 671672" d="M253.235,120.212a1.756,1.756,0,0,1,.453.187c.08.487-.9.888-1.26.894-.309,0-.838,0-.983-.342s.253-.571.5-.673A2.3,2.3,0,0,1,253.235,120.212Z" transform="translate(-242.136 -120.053)" opacity="0.2" style="isolation: isolate"/>
                <path id="Trazado_671673" data-name="Trazado 671673" d="M240.141,127.333c-.192.152-.11.576.042.77l1.283,1.634c.152.194.546.374.738.223l6.261-4.919a.445.445,0,0,0,.073-.623l-1.514-1.926a.443.443,0,0,0-.623-.077Z" transform="translate(-240.028 -120.455)" fill="#263238"/>
                <path id="Trazado_671674" data-name="Trazado 671674" d="M240.141,127.333c-.192.152-.11.576.042.77l1.283,1.634c.152.194.546.374.738.223l6.261-4.919a.445.445,0,0,0,.073-.623l-1.514-1.926a.443.443,0,0,0-.623-.077Z" transform="translate(-240.028 -120.455)" fill="#fff" opacity="0.6"/>
              </g>
              <path id="Trazado_671675" data-name="Trazado 671675" d="M241.845,126.932l-.188-.24,5.286-4.153,1.738,2.213C246.387,125.429,244.115,126.178,241.845,126.932Z" transform="translate(-240.33 -120.495)" fill="#fff" opacity="0.3"/>
            </g>
          </g>
        </g>
        <g id="Bag" transform="translate(154.371 58.941)">
          <g id="Grupo_900599" data-name="Grupo 900599">
            <g id="Grupo_900597" data-name="Grupo 900597" transform="translate(5.377)">
              <path id="Trazado_671676" data-name="Trazado 671676" d="M232.727,166.253l-2.37.948-13.291-31.34c-2.113-4.983-5.839-8.216-12.093-5.687-5.849,2.364-7.373,7.711-5.283,12.693L212.834,174.2l-2.362.944-13.124-31.336c-2.427-5.793-2.194-11.385,7.005-15.106,9.215-3.726,12.6.413,15.063,6.207Z" transform="translate(-196.041 -127.284)" fill="#feca2e"/>
            </g>
            <path id="Trazado_671677" data-name="Trazado 671677" d="M249.259,180.8l-46.667,18.569L189.9,168.815a5.739,5.739,0,0,1,3.1-7.572L226.929,147.6a7.733,7.733,0,0,1,9.922,4.182Z" transform="translate(-189.443 -130.946)" fill="#feca2e"/>
            <path id="Trazado_671678" data-name="Trazado 671678" d="M244.088,182.86l-36.366,14.471a5.687,5.687,0,0,1-7.295-3.171L189.9,168.815a5.739,5.739,0,0,1,3.1-7.572L226.929,147.6a7.733,7.733,0,0,1,9.922,4.182l10.179,23.8A5.451,5.451,0,0,1,244.088,182.86Z" transform="translate(-189.443 -130.946)" fill="#263238"/>
            <g id="Grupo_900598" data-name="Grupo 900598" transform="translate(2.377)" opacity="0.3">
              <path id="Trazado_671679" data-name="Trazado 671679" d="M217.065,135.861c-2.113-4.983-5.839-8.216-12.093-5.687-5.849,2.364-7.373,7.711-5.283,12.693L212.834,174.2l-.386,2.523-1.975-1.579-13.124-31.336c-2.427-5.793-2.194-11.385,7.005-15.106,9.215-3.726,12.6.413,15.063,6.207l13.311,31.341-.324,2.5-2.046-1.556" transform="translate(-193.041 -127.284)" fill="#fff"/>
            </g>
            <path id="Trazado_671680" data-name="Trazado 671680" d="M210.2,169.322l-3.885,1.558-.608-1.453,3.884-1.558Z" transform="translate(-192.454 -134.798)" fill="#feca2e"/>
            <path id="Trazado_671681" data-name="Trazado 671681" d="M215.048,180.881l-3.895,1.558-.611-1.459,3.893-1.558Z" transform="translate(-193.349 -136.936)" fill="#feca2e"/>
            <path id="Trazado_671682" data-name="Trazado 671682" d="M234.693,159.5l-3.9,1.564-.616-1.454,3.9-1.564Z" transform="translate(-196.984 -132.979)" fill="#feca2e"/>
            <path id="Trazado_671683" data-name="Trazado 671683" d="M239.6,171.057l-3.91,1.564-.619-1.46,3.908-1.564Z" transform="translate(-197.891 -135.118)" fill="#feca2e"/>
            <path id="Trazado_671684" data-name="Trazado 671684" d="M224.845,163.791l-8.341,3.344-1.307-3.107,8.334-3.344Z" transform="translate(-194.211 -133.468)" fill="#fff"/>
          </g>
        </g>
        <g id="Character" transform="translate(118.569 64.672)">
          <path id="Trazado_671685" data-name="Trazado 671685" d="M195.439,328.7a22.8,22.8,0,0,1-6.8,1.948l2.461.419c-.7.369-1.4,1.116-2.106,1.486a7.56,7.56,0,0,0,2.7.352c-.178.338-.559.766-.737,1.1l2.651-.749a5.632,5.632,0,0,1,3.884-.631,2.28,2.28,0,0,1-2.212-1.432C194.949,330.3,194.69,329.293,195.439,328.7Z" transform="translate(-153.492 -170.304)" fill="#fff" opacity="0.1"/>
          <g id="Grupo_900624" data-name="Grupo 900624">
            <g id="Grupo_900600" data-name="Grupo 900600" transform="translate(22.815 165.761)">
              <path id="Trazado_671686" data-name="Trazado 671686" d="M217.35,389.477a74.59,74.59,0,0,0,13.678,5.928" transform="translate(-181.621 -347.317)" fill="none" stroke="#feca2e" stroke-linecap="round" stroke-linejoin="round" stroke-width="1"/>
              <path id="Trazado_671687" data-name="Trazado 671687" d="M210.886,385.532q1.206.8,2.442,1.562" transform="translate(-180.425 -346.587)" fill="none" stroke="#feca2e" stroke-linecap="round" stroke-linejoin="round" stroke-width="1"/>
              <path id="Trazado_671688" data-name="Trazado 671688" d="M173.5,337.739a78.147,78.147,0,0,0,28.244,37.412" transform="translate(-173.504 -337.739)" fill="none" stroke="#fd9927" stroke-linecap="round" stroke-linejoin="round" stroke-width="1"/>
            </g>
            <g id="Grupo_900623" data-name="Grupo 900623">
              <g id="Grupo_900603" data-name="Grupo 900603" transform="translate(0 140.23)">
                <g id="Grupo_900602" data-name="Grupo 900602">
                  <g id="Grupo_900601" data-name="Grupo 900601">
                    <g id="Character--inject-68">
                      <path id="Trazado_671689" data-name="Trazado 671689" d="M157.954,313.089a1.049,1.049,0,0,1,.534-.8.585.585,0,0,1,.579-.036c.975.466,1.461,3.984,1.515,4.386a.181.181,0,0,1-.1.186.174.174,0,0,1-.214-.033,13.763,13.763,0,0,1-1.626-1.858A3,3,0,0,1,157.954,313.089Zm.927-.493a.214.214,0,0,0-.22.02.685.685,0,0,0-.361.532c-.049.63.618,1.732,1.837,2.987C159.9,314.711,159.44,312.844,158.881,312.6Z" transform="translate(-147.811 -307.478)" fill="#2e7d87"/>
                      <path id="Trazado_671690" data-name="Trazado 671690" d="M160.739,316.8c-.186-1.029.126-3.546.933-3.935.189-.087.483-.113.805.27l.082.134c.987,1.447-1.416,3.574-1.536,3.647a.2.2,0,0,1-.182.034.234.234,0,0,1-.091-.07Zm1.446-3.418c-.219-.262-.367-.171-.367-.171-.487.232-.847,2.041-.769,3.176.56-.587,1.848-1.989,1.2-2.918Z" transform="translate(-148.317 -307.593)" fill="#2e7d87"/>
                      <path id="Trazado_671691" data-name="Trazado 671691" d="M176.763,312.4l-3.658-5.993-12.611,11.653,3.665,5.99Z" transform="translate(-148.281 -306.408)" fill="#ffc3bd"/>
                      <path id="Trazado_671692" data-name="Trazado 671692" d="M157.6,314.952c-2.542-.81-5.325-1.87-9.644-6.374-.966-1-3.6.912-1.875,3.71s4.5,6.851,5.752,8.884c2.022,3.29,2.646,4.651,4.207,7.285a1.245,1.245,0,0,0,.112.159,1.213,1.213,0,0,0,1.709.156l5.309-4.649a.644.644,0,0,0,.124-.823l-4.607-7.494A2.047,2.047,0,0,0,157.6,314.952Z" transform="translate(-145.506 -306.759)" fill="#263238"/>
                      <path id="Trazado_671693" data-name="Trazado 671693" d="M178.032,312.414l-6.5,6.006-4.162-5.533,7.009-6.467Z" transform="translate(-149.553 -306.41)" opacity="0.2" style="isolation: isolate"/>
                    </g>
                  </g>
                </g>
              </g>
              <g id="Grupo_900604" data-name="Grupo 900604" transform="translate(17.733 88.07)">
                <path id="Trazado_671694" data-name="Trazado 671694" d="M286.333,259.009c-24.352,23.55-54.143-1.525-73,13.606-17.3,13.881-39.721,33.343-39.721,33.343l-6.106-8.407s20.135-21.656,36.83-36.793C220.4,246.193,272.9,242.4,272.9,242.4S281.445,252.728,286.333,259.009Z" transform="translate(-167.312 -242.397)" fill="#f3a953"/>
                <path id="Trazado_671695" data-name="Trazado 671695" d="M286.1,258.985a35.98,35.98,0,0,1-19.664,10.045c-7.987,1.333-16.083.26-23.826-.667-11.011-1.324-21.3-2.362-29.511,4.226-17.3,13.882-39.721,33.344-39.721,33.344l-6.107-8.411S187.4,275.87,204.1,260.733c16.067-14.561,68.562-18.361,68.562-18.361S281.212,252.7,286.1,258.985Z" transform="translate(-167.076 -242.372)" fill="#fff" opacity="0.3"/>
              </g>
              <path id="Trazado_671696" data-name="Trazado 671696" d="M285.07,271.39a3.781,3.781,0,0,1-1.521,2.1c-7.986,1.333-16.083.26-23.826-.667,13.592-2.563,25.814-5.638,25.814-5.638S287.115,263.919,285.07,271.39Z" transform="translate(-166.651 -158.785)" opacity="0.2" style="isolation: isolate"/>
              <g id="Grupo_900606" data-name="Grupo 900606" transform="translate(78.529 94.365)">
                <path id="Trazado_671697" data-name="Trazado 671697" d="M253.827,400.739a.987.987,0,0,1-.171-.873.536.536,0,0,1,.352-.387c.909-.322,3.491,1.659,3.779,1.883a.17.17,0,0,1-.1.3,12.29,12.29,0,0,1-2.261-.167A2.783,2.783,0,0,1,253.827,400.739Zm3.334.6c-1.067-.777-2.564-1.695-3.075-1.541a.213.213,0,0,0-.135.159.628.628,0,0,0,.109.58c.364.464,1.5.751,3.1.786Z" transform="translate(-244.05 -277.766)" fill="#2e7d87"/>
                <path id="Trazado_671698" data-name="Trazado 671698" d="M258.039,401.391c-.78-.545-2.2-2.405-1.926-3.16.066-.182.239-.386.706-.344h.136c1.569.307,1.345,3.239,1.346,3.367a.149.149,0,0,1-.09.136.166.166,0,0,1-.105,0Zm-1.231-3.194c-.3-.029-.361.115-.361.115-.193.469.765,1.879,1.523,2.568,0-.731-.083-2.478-1.094-2.676Z" transform="translate(-244.506 -277.477)" fill="#2e7d87"/>
                <path id="Trazado_671699" data-name="Trazado 671699" d="M266.355,385.528l-7.178-1.375-.192,16.42,7.178,1.375Z" transform="translate(-245.044 -274.935)" fill="#ffc3bd"/>
                <path id="Trazado_671700" data-name="Trazado 671700" d="M254.543,401.562c-2.243.922-5.912,1.133-11.565.5-1.257-.138-1.969,2.747.873,3.705s9.262,3.9,11.319,4.6c3.347,1.129,4.573,1.717,7.214,2.656a1.042,1.042,0,0,0,.165.043,1.107,1.107,0,0,0,1.289-.888l-.05-7.438a.588.588,0,0,0-.4-.652l-7.6-2.564A1.851,1.851,0,0,0,254.543,401.562Z" transform="translate(-241.877 -278.134)" fill="#263238"/>
                <path id="Trazado_671701" data-name="Trazado 671701" d="M266.382,385.53l-.107,9.238-7.185-1.485.114-9.127Z" transform="translate(-245.063 -274.936)" opacity="0.2" style="isolation: isolate"/>
                <g id="Grupo_900605" data-name="Grupo 900605" transform="translate(11.62)">
                  <path id="Trazado_671702" data-name="Trazado 671702" d="M267.05,367.275l-9.781-2.658s-2.818-30.393.432-53.806c.851-6.175,4.54-14.147,9.282-22.266l.007-.011a264.593,264.593,0,0,1,16.724-24.7c6.1-8.1,10.848-13.709,10.848-13.709s7.843,1.8,15.239,3.946c2.59,34.3-32.344,34.877-36.945,59.57C268.621,336.283,267.05,367.275,267.05,367.275Z" transform="translate(-256.136 -250.122)" fill="#f3a953"/>
                  <path id="Trazado_671703" data-name="Trazado 671703" d="M267.05,367.275l-9.781-2.658s-2.818-30.393.432-53.806c.851-6.175,4.54-14.147,9.282-22.266l.007-.011a264.593,264.593,0,0,1,16.724-24.7c6.1-8.1,10.848-13.709,10.848-13.709s6.452,1.482,13.171,3.358a2.993,2.993,0,0,1,2.185,2.788c.962,32.14-32.561,33.217-37.062,57.371C268.621,336.283,267.05,367.275,267.05,367.275Z" transform="translate(-256.136 -250.122)" fill="#fff" opacity="0.3"/>
                </g>
                <path id="Trazado_671704" data-name="Trazado 671704" d="M256.189,384.939l11.968,3.1-.334,4.768-11.784-2.9Z" transform="translate(-244.498 -275.081)" fill="#fd9927"/>
              </g>
              <g id="Grupo_900609" data-name="Grupo 900609" transform="translate(159.11 12.8)">
                <path id="Trazado_671705" data-name="Trazado 671705" d="M352.306,200.985l-11.187,2.863-.355-8.123a3.94,3.94,0,0,0,3.312-.618l.712-.664c1.352-1.54,2.142-4.113,3.5-6.429l2.657-.169.966-.055,5.17-.316C354.655,190.862,350.835,197.321,352.306,200.985Z" transform="translate(-340.764 -156.959)" fill="#ffc2bc"/>
                <path id="Trazado_671706" data-name="Trazado 671706" d="M354.451,190.146a27.8,27.8,0,0,1-1.942,3.827c-1.348,1.661-5.351,1.856-7.739,1.273.012-.019.035-.036.048-.055l.712-.664c1.352-1.54,2.141-4.113,3.5-6.429l2.657-.169Z" transform="translate(-341.506 -157.043)" opacity="0.2" style="isolation: isolate"/>
                <path id="Trazado_671707" data-name="Trazado 671707" d="M348.7,186.028c-1.443-1.418.942-1.82,3.478-8.968.24-.676,2.379-2.29,2.3-3a2.079,2.079,0,0,0-1.13-1.713c-.658-.287-1.921-.1-2.17.572.989-13.273,8.162-12.236,12.974-12.636,3.022-.252,7.642.605,11.871-3.432.759,2.687-1.4,6.261-6.776,7,8.391-.077,13.647-10.828,14.136-13.817,1.66,3.845,2.257,10.855-3.275,17.164,1.458-1.15,3.543-1.469,5.27-7.952.834,12.7-.575,17.331-6.073,22.454-3.253,3.031-10,3.669-9.664,3.906,0,0,9.028-2.6,11.832-.889-3.348.76-11.547,3.492-15.1,4.3C357.212,191.109,349.751,187.063,348.7,186.028Z" transform="translate(-342.152 -150.026)" fill="#263238"/>
                <path id="Trazado_671708" data-name="Trazado 671708" d="M348.7,186.028c-1.443-1.418.942-1.82,3.478-8.968.24-.676,2.379-2.29,2.3-3a2.079,2.079,0,0,0-1.13-1.713c-.658-.287-1.921-.1-2.17.572.989-13.273,8.162-12.236,12.974-12.636,3.022-.252,7.642.605,11.871-3.432.759,2.687-1.4,6.261-6.776,7,8.391-.077,13.647-10.828,14.136-13.817,1.66,3.845,2.257,10.855-3.275,17.164,1.458-1.15,3.543-1.469,5.27-7.952.834,12.7-.575,17.331-6.073,22.454-3.253,3.031-10,3.669-9.664,3.906,0,0,9.028-2.6,11.832-.889-3.348.76-11.547,3.492-15.1,4.3C357.212,191.109,349.751,187.063,348.7,186.028Z" transform="translate(-342.152 -150.026)" fill="#263238"/>
                <path id="Trazado_671709" data-name="Trazado 671709" d="M365.652,181.773c-3.634,5.78-5.044,8.3-9.736,9.721-7.059,2.135-13.359-3.588-11.533-10.329,1.645-6.075,7.3-14.5,14.457-13.686a9.315,9.315,0,0,1,6.812,14.294Z" transform="translate(-341.375 -153.247)" fill="#ffc2bc"/>
                <path id="Trazado_671710" data-name="Trazado 671710" d="M354.354,168.535c1.812-.664,4.079-1.688,4.405,1.3,1.447-.829,3.838.456,5.091,1.556a5.922,5.922,0,0,1,1.841,4.487c-.011,1.667-3.409,6.909-3.388,9.78.363.042,2.451-.3,2.259,1.431a29.45,29.45,0,0,0,5.583-7.545c1.289-2.833,1.576-6.311-.04-8.972a10,10,0,0,0-3.7-3.366,11.417,11.417,0,0,0-6.156-1.645A8.056,8.056,0,0,0,354.354,168.535Z" transform="translate(-343.28 -152.9)" fill="#263238"/>
                <g id="Grupo_900608" data-name="Grupo 900608" transform="translate(15.493 14.09)">
                  <g id="Grupo_900607" data-name="Grupo 900607" transform="translate(0 0.068)">
                    <path id="Trazado_671711" data-name="Trazado 671711" d="M362.967,170.055c2.086.7.34-4.417-2.436-2a4.241,4.241,0,0,0-.754,2.118Z" transform="translate(-359.777 -167.401)" opacity="0.2"/>
                  </g>
                  <path id="Trazado_671712" data-name="Trazado 671712" d="M375.524,179.27c-1.942,2.476-5.87,2.842-8.535,1.169a9.205,9.205,0,0,1-3.932-8.11,12.561,12.561,0,0,0,.024-2.1,2.443,2.443,0,0,0-.991-1.78,1.384,1.384,0,0,0-1.867.308c.241-1.033,1.332-1.393,2.391-1.433l.08,0a6.608,6.608,0,0,1,6.555,5.8,7.68,7.68,0,0,0,1.486,3.469C371.947,178.165,373.541,179.4,375.524,179.27Z" transform="translate(-359.859 -167.317)" fill="#263238"/>
                  <path id="Trazado_671713" data-name="Trazado 671713" d="M375.524,179.27c-1.942,2.476-5.87,2.842-8.535,1.169a9.205,9.205,0,0,1-3.932-8.11,12.561,12.561,0,0,0,.024-2.1,2.443,2.443,0,0,0-.991-1.78,1.384,1.384,0,0,0-1.867.308c.241-1.033,1.332-1.393,2.391-1.433l.08,0a6.608,6.608,0,0,1,6.555,5.8,7.68,7.68,0,0,0,1.486,3.469C371.947,178.165,373.541,179.4,375.524,179.27Z" transform="translate(-359.859 -167.317)" fill="#fff" opacity="0.1"/>
                </g>
                <path id="Trazado_671714" data-name="Trazado 671714" d="M368.2,192.552a5,5,0,0,1-3.765.616c-1.695-.415-1.695-2.136-.51-3.293,1.064-1.049,3.23-2.059,4.6-1.07a2.244,2.244,0,0,1-.324,3.747Z" transform="translate(-344.897 -157.13)" fill="#ffc2bc"/>
                <path id="Trazado_671715" data-name="Trazado 671715" d="M358.008,180.73c-.265.483-.737.728-1.053.566s-.363-.709-.1-1.193.738-.728,1.054-.566S358.273,180.246,358.008,180.73Z" transform="translate(-343.711 -155.48)" fill="#263238"/>
                <path id="Trazado_671716" data-name="Trazado 671716" d="M350.812,187.354c-.265.484-.737.729-1.054.566s-.363-.709-.1-1.192.738-.728,1.054-.566S351.077,186.871,350.812,187.354Z" transform="translate(-342.379 -156.707)" fill="#263238"/>
                <path id="Trazado_671717" data-name="Trazado 671717" d="M351.26,177.046c-.273.482-.738.728-1.062.566s-.363-.709-.09-1.2.729-.729,1.054-.566S351.549,176.557,351.26,177.046Z" transform="translate(-342.46 -154.797)" fill="#263238"/>
                <path id="Trazado_671718" data-name="Trazado 671718" d="M351.373,175.772l-.99-.942S350.491,176.007,351.373,175.772Z" transform="translate(-342.545 -154.618)" fill="#263238"/>
                <path id="Trazado_671719" data-name="Trazado 671719" d="M352,179.332a14.988,14.988,0,0,1-3.431,2.158,2.378,2.378,0,0,0,1.556,1.266Z" transform="translate(-342.21 -155.451)" fill="#ec837e"/>
                <path id="Trazado_671720" data-name="Trazado 671720" d="M361.44,176.807a.227.227,0,0,1-.14-.178,2.253,2.253,0,0,0-1.173-1.7.262.262,0,0,1-.122-.319.214.214,0,0,1,.274-.157l0,0a2.7,2.7,0,0,1,1.436,2.047.273.273,0,0,1-.161.306A.2.2,0,0,1,361.44,176.807Z" transform="translate(-344.323 -154.545)" fill="#263238"/>
                <path id="Trazado_671721" data-name="Trazado 671721" d="M351.822,171.323a.261.261,0,0,0-.244.106.268.268,0,0,0,.054.376l0,0a3.149,3.149,0,0,0,2.868.524.261.261,0,0,0,.17-.327l-.008-.021a.268.268,0,0,0-.346-.155h0a2.634,2.634,0,0,1-2.36-.455A.263.263,0,0,0,351.822,171.323Z" transform="translate(-342.756 -153.968)" fill="#263238"/>
                <path id="Trazado_671722" data-name="Trazado 671722" d="M358.12,179.454l-.99-.942S357.234,179.722,358.12,179.454Z" transform="translate(-343.794 -155.3)" fill="#263238"/>
              </g>
              <g id="Grupo_900622" data-name="Grupo 900622" transform="translate(118.456)">
                <g id="Grupo_900617" data-name="Grupo 900617">
                  <g id="Grupo_900616" data-name="Grupo 900616">
                    <g id="Grupo_900615" data-name="Grupo 900615">
                      <g id="Grupo_900611" data-name="Grupo 900611" transform="translate(16.624)">
                        <path id="Trazado_671723" data-name="Trazado 671723" d="M331.418,184.294l-1.048-1.139-1.094-1.267c-.728-.852-1.425-1.738-2.1-2.62a50.764,50.764,0,0,1-3.684-5.573,39.656,39.656,0,0,1-2.7-5.893,25.453,25.453,0,0,1-1.349-6.041l-.517,2.192a58.671,58.671,0,0,1,3.452-5.248c1.3-1.816,2.616-3.629,3.971-5.434l4.052-5.414c1.334-1.809,2.709-3.607,4.037-5.482h0a2.209,2.209,0,0,0-.533-3.1,2.282,2.282,0,0,0-2.816.138c-1.751,1.519-3.408,3.092-5.1,4.668s-3.277,3.229-4.9,4.875-3.176,3.348-4.715,5.109a51.971,51.971,0,0,0-4.542,5.8,3.382,3.382,0,0,0-.558,1.908l.012.268a30.715,30.715,0,0,0,1.29,8.257,38.964,38.964,0,0,0,3.066,7.508,52.2,52.2,0,0,0,4.214,6.759c.828,1.067,1.6,2.088,2.506,3.108.431.505.842,1.006,1.319,1.5s.861.925,1.488,1.519a4.584,4.584,0,0,0,6.414.064,4.42,4.42,0,0,0,.018-6.319Z" transform="translate(-311.275 -135.157)" fill="#fd9927"/>
                        <path id="Trazado_671724" data-name="Trazado 671724" d="M331.418,184.294l-1.048-1.139-1.094-1.267c-.728-.852-1.425-1.738-2.1-2.62a50.764,50.764,0,0,1-3.684-5.573,39.656,39.656,0,0,1-2.7-5.893,25.453,25.453,0,0,1-1.349-6.041l-.517,2.192a58.671,58.671,0,0,1,3.452-5.248c1.3-1.816,2.616-3.629,3.971-5.434l4.052-5.414c1.334-1.809,2.709-3.607,4.037-5.482h0a2.209,2.209,0,0,0-.533-3.1,2.282,2.282,0,0,0-2.816.138c-1.751,1.519-3.408,3.092-5.1,4.668s-3.277,3.229-4.9,4.875-3.176,3.348-4.715,5.109a51.971,51.971,0,0,0-4.542,5.8,3.382,3.382,0,0,0-.558,1.908l.012.268a30.715,30.715,0,0,0,1.29,8.257,38.964,38.964,0,0,0,3.066,7.508,52.2,52.2,0,0,0,4.214,6.759c.828,1.067,1.6,2.088,2.506,3.108.431.505.842,1.006,1.319,1.5s.861.925,1.488,1.519a4.584,4.584,0,0,0,6.414.064,4.42,4.42,0,0,0,.018-6.319Z" transform="translate(-311.275 -135.157)" opacity="0.2" style="isolation: isolate"/>
                        <g id="Grupo_900610" data-name="Grupo 900610" transform="translate(17.539)">
                          <path id="Trazado_671725" data-name="Trazado 671725" d="M335.762,144.883l6.058-1.469-3.237-7.74s-4.7,1.333-5.785,5.8Z" transform="translate(-332.798 -134.569)" fill="#ffc3bd"/>
                          <path id="Trazado_671726" data-name="Trazado 671726" d="M346.1,137.024l-1.328-1.694a2.661,2.661,0,0,0-3.32-.709l-1.55.8,3.237,7.74,2.808-2.745A2.555,2.555,0,0,0,346.1,137.024Z" transform="translate(-334.112 -134.318)" fill="#ffc3bd"/>
                        </g>
                      </g>
                      <g id="Grupo_900612" data-name="Grupo 900612" transform="translate(0 49.275)">
                        <path id="Trazado_671727" data-name="Trazado 671727" d="M306.146,209.095c1.3-3.751,4.12-6.376,6.935-8.51,1.217-.923,2.1-2.015,3.079-2.718,9.778-7.039,18.1-.613,26.045,5.366,8.158,6.139,12.922,6.957-2.414,19.086-13.4,10.593-23.026,27.036-23.026,27.036l-25.891-15.425S301.743,221.77,306.146,209.095Z" transform="translate(-290.874 -194.788)" fill="#fd9927"/>
                      </g>
                      <path id="Trazado_671728" data-name="Trazado 671728" d="M350.2,198.462c1.084,4.092-5.1,3.828-9.1,3.289a12.025,12.025,0,0,1-9.624-6.8c-1.9-3.915-.662-12.516,1.545-16.27-.087,2.645-2.1,9.127,2.146,13.127,1.927,1.814,2.453.915,5.009,1.6" transform="translate(-298.217 -142.531)" fill="none" stroke="#263238" stroke-miterlimit="10" stroke-width="0.75"/>
                      <g id="Grupo_900613" data-name="Grupo 900613" transform="translate(38.929 49.125)">
                        <path id="Trazado_671729" data-name="Trazado 671729" d="M352.325,203.515l.561-.75c.26-.875-.567-1.879-1.331-2.379-2.929-1.921-8.911-5.949-10.645-5.777a7.649,7.649,0,0,0-1.049.184,1.618,1.618,0,0,0-.4,2.971l10.762,6.183A1.618,1.618,0,0,0,352.325,203.515Z" transform="translate(-338.647 -194.604)" fill="#fd9927"/>
                      </g>
                      <g id="Grupo_900614" data-name="Grupo 900614" transform="translate(43.944 51.276)" opacity="0.2">
                        <path id="Trazado_671730" data-name="Trazado 671730" d="M352.325,203.515l.561-.75c.26-.875-.567-1.879-1.331-2.379-2.929-1.921-8.911-5.949-10.645-5.777a7.649,7.649,0,0,0-1.049.184,1.618,1.618,0,0,0-.4,2.971l10.762,6.183A1.618,1.618,0,0,0,352.325,203.515Z" transform="translate(-343.647 -196.604)" fill="#fff"/>
                      </g>
                    </g>
                  </g>
                </g>
                <g id="Grupo_900618" data-name="Grupo 900618" transform="translate(49.372 60.601)">
                  <path id="Trazado_671731" data-name="Trazado 671731" d="M352.637,216.269c1.539,1.82,14.654,13.88,18.317,16.566l.233.169.1.022a10.727,10.727,0,0,0,4.253,1.392c3.4.494,20.8-2.369,22.612-3.283a2.267,2.267,0,0,0-1.444-4.26l-.072-.015c-1.776.329-17.837.573-19.789-.251a2.582,2.582,0,0,1-1.087-.461l.327.232c-3.215-2.851-15.169-14.6-16.584-16.095l-.061-.068a4.57,4.57,0,0,0-6.824,6.081h0Z" transform="translate(-351.462 -208.687)" fill="#f3a953"/>
                  <path id="Trazado_671732" data-name="Trazado 671732" d="M405.283,229.505l3.871-4.15,3.491,7.259a5.947,5.947,0,0,1-5.1,2.295,2.277,2.277,0,0,1-1.989-1.357l-.691-1.539A2.3,2.3,0,0,1,405.283,229.505Z" transform="translate(-361.312 -211.773)" fill="#ffc3bd"/>
                  <path id="Trazado_671733" data-name="Trazado 671733" d="M416.191,225.184l.969,2.183a2.6,2.6,0,0,1-.93,3.223l-2.565,1.708-3.491-7.259,2.566-1.164A2.618,2.618,0,0,1,416.191,225.184Z" transform="translate(-362.332 -211.457)" fill="#ffc3bd"/>
                </g>
                <g id="Grupo_900621" data-name="Grupo 900621" transform="translate(34.035 29.811)">
                  <g id="Grupo_900619" data-name="Grupo 900619">
                    <path id="Trazado_671734" data-name="Trazado 671734" d="M335.847,174.286c-.455,1.62-1.494,2.744-2.32,2.513s-1.128-1.734-.673-3.354,1.494-2.745,2.32-2.513S336.3,172.665,335.847,174.286Z" transform="translate(-332.642 -170.902)" fill="#263238"/>
                    <path id="Trazado_671735" data-name="Trazado 671735" d="M335.847,174.286c-.455,1.62-1.494,2.744-2.32,2.513s-1.128-1.734-.673-3.354,1.494-2.745,2.32-2.513S336.3,172.665,335.847,174.286Z" transform="translate(-332.642 -170.902)" fill="#fff" opacity="0.8"/>
                  </g>
                  <g id="Grupo_900620" data-name="Grupo 900620" transform="translate(0.879 1.336)">
                    <path id="Trazado_671736" data-name="Trazado 671736" d="M334.073,173.18l-.352,1.255.534.945.8-2.839Z" transform="translate(-333.721 -172.541)" fill="#2e7d87"/>
                    <path id="Trazado_671737" data-name="Trazado 671737" d="M335.676,173.6l-.352,1.255-.948.529.8-2.839Z" transform="translate(-333.842 -172.541)" fill="#2e7d87"/>
                  </g>
                </g>
              </g>
              <path id="Trazado_671738" data-name="Trazado 671738" d="M317,257.822,292.69,240.414c-.238-.164-.539-.2-.654-.072l-1.667,1.855c-.106.118-.006.3.191.476l25.178,18.007c.277.188.629.191.694.006l.826-2.428A.437.437,0,0,0,317,257.822Z" transform="translate(-172.317 -153.932)" fill="#263238"/>
              <path id="Trazado_671739" data-name="Trazado 671739" d="M169.563,304.808l7.34,12.026-3,1.732-7.857-10.479Z" transform="translate(-149.308 -165.881)" fill="#fd9927"/>
            </g>
          </g>
        </g>
      </g>
    </g>
  </g>
</svg>
