<svg xmlns="http://www.w3.org/2000/svg" xmlns:xlink="http://www.w3.org/1999/xlink" width="211.248" height="366.003" viewBox="0 0 211.248 366.003">
  <defs>
    <linearGradient id="linear-gradient" x1="0.5" x2="0.5" y2="1" gradientUnits="objectBoundingBox">
      <stop offset="0" stop-color="#2e7d87"/>
      <stop offset="1" stop-color="#43b8c8"/>
    </linearGradient>
    <filter id="Trazado_736394">
      <feOffset dx="2" dy="2" input="SourceAlpha"/>
      <feGaussianBlur stdDeviation="8" result="blur"/>
      <feFlood flood-color="#2c2a2a" flood-opacity="0.161" result="color"/>
      <feComposite operator="out" in="SourceGraphic" in2="blur"/>
      <feComposite operator="in" in="color"/>
      <feComposite operator="in" in2="SourceGraphic"/>
    </filter>
  </defs>
  <g id="Grupo_929419" data-name="Grupo 929419" transform="translate(9757.242 8322.54)">
    <g id="Grupo_929418" data-name="Grupo 929418" transform="translate(-16313.357 5311.219) rotate(69)" opacity="0.57">
      <path id="Trazado_736393" data-name="Trazado 736393" d="M246.215,1066.216h0s-6.729,11.91-13.729,8.723S0,1066.216,0,1066.216" transform="translate(-10124.403 -9945.588) rotate(180)" fill="none" stroke="#3c9aa7" stroke-width="4"/>
      <g data-type="innerShadowGroup">
        <path id="Trazado_736394-2" data-name="Trazado 736394" d="M154.873,101.91l-53.257,53.411a28.273,28.273,0,0,1-40.062,0L8.3,101.91a28.473,28.473,0,0,1,0-40.179L61.553,8.321a28.272,28.272,0,0,1,40.062,0l53.257,53.41A28.468,28.468,0,0,1,154.873,101.91Z" transform="translate(-10016.06 -10929.99) rotate(180)" opacity="0.999" fill="url(#linear-gradient)"/>
        <g transform="matrix(0.36, -0.93, 0.93, 0.36, -10378.71, -11006.56)" filter="url(#Trazado_736394)">
          <path id="Trazado_736394-3" data-name="Trazado 736394" d="M154.873,101.91l-53.257,53.411a28.273,28.273,0,0,1-40.062,0L8.3,101.91a28.473,28.473,0,0,1,0-40.179L61.553,8.321a28.272,28.272,0,0,1,40.062,0l53.257,53.41A28.468,28.468,0,0,1,154.873,101.91Z" transform="translate(58.48 366) rotate(-111)" fill="#fff" opacity="0.999"/>
        </g>
      </g>
    </g>
  </g>
</svg>
