<svg xmlns="http://www.w3.org/2000/svg" xmlns:xlink="http://www.w3.org/1999/xlink" width="462.329" height="363.927" viewBox="0 0 462.329 363.927">
  <defs>
    <linearGradient id="linear-gradient" x1="0.5" x2="0.5" y2="1" gradientUnits="objectBoundingBox">
      <stop offset="0" stop-color="#2e7d87"/>
      <stop offset="1" stop-color="#43b8c8"/>
    </linearGradient>
    <filter id="Trazado_736392" x="0" y="0" width="364.367" height="363.927" filterUnits="userSpaceOnUse">
      <feOffset dx="2" dy="9" input="SourceAlpha"/>
      <feGaussianBlur stdDeviation="3.5" result="blur"/>
      <feFlood flood-color="#b9b9b9" flood-opacity="0.98"/>
      <feComposite operator="in" in2="blur"/>
      <feComposite in="SourceGraphic"/>
    </filter>
  </defs>
  <g id="Grupo_929419" data-name="Grupo 929419" transform="translate(11399.23 9025.284)">
    <g id="Grupo_929418" data-name="Grupo 929418" transform="translate(-16313.357 5311.219) rotate(69)" opacity="0.57">
      <path id="Trazado_736393" data-name="Trazado 736393" d="M1.646,0V139.232s.025,48.462-.464,48.2a1.642,1.642,0,0,0-1.182,0" transform="translate(-11400.874 -9945.588) rotate(180)" fill="none" stroke="#3c9aa7" stroke-width="4"/>
      <g transform="matrix(0.36, -0.93, 0.93, 0.36, -11623.21, -9725.48)" filter="url(#Trazado_736392)">
        <path id="Trazado_736392-2" data-name="Trazado 736392" d="M251.734,165.648l-86.565,86.815a45.954,45.954,0,0,1-65.118,0L13.485,165.648a46.28,46.28,0,0,1,0-65.309L100.05,13.525a45.954,45.954,0,0,1,65.118,0l86.565,86.814A46.272,46.272,0,0,1,251.734,165.648Z" transform="translate(103.55 344.43) rotate(-111)" opacity="0.999" fill="url(#linear-gradient)"/>
      </g>
    </g>
  </g>
</svg>
