<svg xmlns="http://www.w3.org/2000/svg" xmlns:xlink="http://www.w3.org/1999/xlink" width="161" height="141" viewBox="0 0 161 141">
  <defs>
    <clipPath id="clip-path">
      <rect id="Rectángulo_303607" data-name="Rectángulo 303607" width="161" height="141" transform="translate(330 523)" fill="#fff" stroke="#707070" stroke-width="1"/>
    </clipPath>
  </defs>
  <g id="Enmascarar_grupo_130539" data-name="Enmascarar grupo 130539" transform="translate(-330 -523)" clip-path="url(#clip-path)">
    <g id="Grupo_904306" data-name="Grupo 904306" transform="translate(-17.365 253.421)">
      <g id="Grupo_904307" data-name="Grupo 904307" transform="translate(354.365 270.578)">
        <g id="Grupo_904306-2" data-name="Grupo 904306">
          <path id="Trazado_687879" data-name="Trazado 687879" d="M65.008,0A65.008,65.008,0,1,1,0,65.008,65.008,65.008,0,0,1,65.008,0Z" fill="#4dd0e1"/>
          <path id="Trazado_687874" data-name="Trazado 687874" d="M485.812,334.9a51.375,51.375,0,1,0,4.025,19.935A51.037,51.037,0,0,0,485.812,334.9Zm-72.079,18.356a50.8,50.8,0,0,1,1.361-11.742h20.954v24.36H415.259A53.009,53.009,0,0,1,413.733,353.259Zm37.752-33.672a54.139,54.139,0,0,1,8.752,14c.389.915.746,1.841,1.077,2.775H441.2V310.091A59.305,59.305,0,0,1,451.484,319.587ZM436.047,310.6v25.768H416.616q.478-1.347,1.033-2.669a54.068,54.068,0,0,1,8.676-13.965A59.836,59.836,0,0,1,436.047,310.6Zm0,60.435v27.654a71.854,71.854,0,0,1-9.525-10.081,63.7,63.7,0,0,1-8.812-15.139q-.489-1.211-.919-2.434Zm5.154,28.232V371.031h19.937q-.413,1.175-.88,2.339a63.594,63.594,0,0,1-8.747,15.1A71.615,71.615,0,0,1,441.2,399.262Zm0-33.386v-24.36h21.635a50.774,50.774,0,0,1,1.361,11.742,53.01,53.01,0,0,1-1.526,12.617Zm26.918-24.36h14.617a46.576,46.576,0,0,1,.621,24.36H467.965a58.118,58.118,0,0,0,1.387-12.617A56.074,56.074,0,0,0,468.119,341.517Zm3.074-19.248a46.016,46.016,0,0,1,9.648,14.094H466.752q-.773-2.429-1.772-4.79a59.291,59.291,0,0,0-9.579-15.336,65.491,65.491,0,0,0-6.076-6.212A45.759,45.759,0,0,1,471.193,322.269Zm-65.137,0a45.748,45.748,0,0,1,22.781-12.452,65.622,65.622,0,0,0-6.308,6.42,59.3,59.3,0,0,0-9.579,15.336q-1,2.359-1.772,4.79h-14.77A46.015,46.015,0,0,1,406.056,322.269Zm-11.544,19.248h15.3a56.1,56.1,0,0,0-1.232,11.742,58.091,58.091,0,0,0,1.387,12.617H393.891a46.582,46.582,0,0,1,.621-24.36Zm11.544,45.89a45.912,45.912,0,0,1-10.573-16.376h15.877q.7,2.2,1.573,4.366a68.844,68.844,0,0,0,9.519,16.368,77.673,77.673,0,0,0,7.482,8.315A45.726,45.726,0,0,1,406.056,387.407Zm65.137,0a45.741,45.741,0,0,1-23.017,12.5,77.731,77.731,0,0,0,7.3-8.143A68.83,68.83,0,0,0,465,375.4q.875-2.165,1.573-4.366h15.2A45.924,45.924,0,0,1,471.193,387.407Z" transform="translate(-373.616 -289.83)" fill="#fff"/>
        </g>
      </g>
      <g id="Grupo_904310" data-name="Grupo 904310" transform="translate(449.616 336.014)">
        <g id="Grupo_904309" data-name="Grupo 904309">
          <path id="Trazado_687875" data-name="Trazado 687875" d="M626.585,484.367a1.588,1.588,0,0,1-1.147-.475l-12.424-12.736-7.709,9.869a1.415,1.415,0,0,1-1.133.561,1.845,1.845,0,0,1-1.645-1.163l-18.342-49.38a1.45,1.45,0,0,1,.355-1.627,1.4,1.4,0,0,1,1.107-.549,1.61,1.61,0,0,1,.6.121l48.909,19.558a1.712,1.712,0,0,1,1.105,1.359,1.69,1.69,0,0,1-.713,1.576l-9.879,7.332,12.4,12.71a1.688,1.688,0,0,1,.472,1.143,1.589,1.589,0,0,1-.476,1.176l-10.3,10.052a1.691,1.691,0,0,1-1.173.473Zm-13.738-17.334a1.7,1.7,0,0,1,1.2.48l12.586,12.9,7.954-7.76-12.561-12.876a1.6,1.6,0,0,1-.468-1.253,1.79,1.79,0,0,1,.74-1.28l9.037-6.707-42.766-17.1,16.039,43.179,7.062-9.04A1.473,1.473,0,0,1,612.847,467.033Z" transform="translate(-583.435 -428.226)" fill="#fff"/>
          <g id="Grupo_904308" data-name="Grupo 904308">
            <path id="Trazado_687876" data-name="Trazado 687876" d="M637.63,470.18l-6.016-6.167L625.744,458l4.438-3.293,4.852-3.6a2.295,2.295,0,0,0-.536-4.045l-8.774-3.509-7.851-3.14-.417-.167L591.6,429.9l-3.006-1.2-3.006-1.2a2.25,2.25,0,0,0-.838-.167,2.027,2.027,0,0,0-1.581.756,2.1,2.1,0,0,0-.482,2.285l2.5,6.743,3.731,10.043,6.048,16.283,3.8,10.242,1.542,4.152.712,1.917a2.481,2.481,0,0,0,2.247,1.581,2.042,2.042,0,0,0,1.638-.808l3.138-4.016,4.12-5.274,6.442,6.6,3.785,3.88.842.863.842.864a2.224,2.224,0,0,0,1.606.669,2.336,2.336,0,0,0,1.62-.655l6.932-6.763,3.372-3.289A2.284,2.284,0,0,0,637.63,470.18Zm-.911,2.308-10.3,10.052a1.04,1.04,0,0,1-.724.291.953.953,0,0,1-.688-.282l-1.685-1.727-11.253-11.535L603.9,479.735a.775.775,0,0,1-.627.315,1.194,1.194,0,0,1-1.044-.745l-2.254-6.069-9.853-26.525-6.235-16.786a.818.818,0,0,1,.228-.967.759.759,0,0,1,.632-.344.979.979,0,0,1,.362.075l6.011,2.4L617.4,441.6l16.626,6.649a1.015,1.015,0,0,1,.247,1.824l-10.469,7.77.878.9,12.033,12.335A1.015,1.015,0,0,1,636.719,472.488Z" transform="translate(-582.541 -427.331)" fill="#fff"/>
            <path id="Trazado_687877" data-name="Trazado 687877" d="M627.207,464.124a1.017,1.017,0,0,1,.195-1.57l9.959-7.392-4.253-1.7-26.272-10.506-14.65-5.859,1.5,4.043,9.853,26.525,5.588,15.044,7.769-9.945a.839.839,0,0,1,.674-.3,1.053,1.053,0,0,1,.738.287l1.685,1.727,11.349,11.633,8.872-8.656-.975-1Zm4.158,20.177-3.651-3.743-6.8-6.973-1.684-1.727a2.317,2.317,0,0,0-1.657-.674,2.11,2.11,0,0,0-1.685.788L612,476.946l-2.471,3.163-2.082-5.606-2.706-7.285-3.505-9.437-6.347-17.087-.494-1.331,11.964,4.784L619.5,449.4l13.136,5.253,2.121.848-3.136,2.327-4.98,3.7a2.43,2.43,0,0,0-1,1.745,2.228,2.228,0,0,0,.648,1.752l6.016,6.167,6.017,6.167.08.082Z" transform="translate(-588.16 -433.02)" fill="#fff"/>
          </g>
        </g>
        <path id="Trazado_687878" data-name="Trazado 687878" d="M625.518,460.965l11.47-8.513-48.908-19.558,18.342,49.379,8.793-11.256,13.718,14.062,5.152-5.026,5.152-5.026Z" transform="translate(-585.767 -430.572)" fill="#0b5999"/>
      </g>
    </g>
  </g>
</svg>
