<svg xmlns="http://www.w3.org/2000/svg" xmlns:xlink="http://www.w3.org/1999/xlink" width="223" height="265" viewBox="0 0 223 265">
  <defs>
    <clipPath id="clip-path">
      <rect id="Rectángulo_303637" data-name="Rectángulo 303637" width="223" height="265" transform="translate(1174 1167)" fill="#fff" stroke="#707070" stroke-width="1"/>
    </clipPath>
  </defs>
  <g id="Enmascarar_grupo_130540" data-name="Enmascarar grupo 130540" transform="translate(-1174 -1167)" clip-path="url(#clip-path)">
    <g id="Grupo_904317" data-name="Grupo 904317" transform="translate(863.665 595.397)">
      <g id="Grupo_904311" data-name="Grupo 904311" transform="translate(315.041 553.441)">
        <path id="Trazado_736056" data-name="Trazado 736056" d="M0,0H193.588V271.507H0Z" transform="translate(8.696 11.072)" fill="#fff7e0"/>
        <path id="Trazado_687880" data-name="Trazado 687880" d="M675.38,874.361H481.04V602.1H675.38Zm-193.588-.753H674.628V602.853H481.793Z" transform="translate(-472.72 -591.405)" fill="#0e2549"/>
        <rect id="Rectángulo_303749" data-name="Rectángulo 303749" width="210.98" height="22.942" transform="translate(0)" fill="#2e6b99"/>
        <rect id="Rectángulo_303750" data-name="Rectángulo 303750" width="210.98" height="22.942" transform="translate(0 259.976)" fill="#2e6b99"/>
        <path id="Trazado_687881" data-name="Trazado 687881" d="M743.473,943.575c0,7.743-4.623,14.8-14.415,14.8-8.93,0-14.143-6.446-14.143-14.595,0-8.027,5.032-14.594,14.46-14.594C738.078,929.183,743.473,935.3,743.473,943.575Zm-25.928.081c0,6.527,4.034,12.689,11.65,12.689,8.2,0,11.65-6,11.65-12.73,0-6.608-3.9-12.405-11.559-12.405C721.125,931.21,717.544,937.25,717.544,943.655Z" transform="translate(-655.187 -846.592)" fill="#0e2549"/>
        <path id="Trazado_687882" data-name="Trazado 687882" d="M1056.068,945.459h-16.182v11.919h17.724l-.363,2.027h-19.809V931.027h19.446v2.027h-17v10.378h16.182Z" transform="translate(-906.817 -848.03)" fill="#0e2549"/>
        <path id="Trazado_687883" data-name="Trazado 687883" d="M622.528,1107.72h2.16v10.914h16.8V1107.72h2.161v25.049h-2.161v-12.346h-16.8v12.346h-2.16Z" transform="translate(-583.108 -985.885)" fill="#0e2549"/>
        <path id="Trazado_687884" data-name="Trazado 687884" d="M896.293,1107.72h2.161v23.26H913.5l-.4,1.789h-16.8Z" transform="translate(-796.697 -985.885)" fill="#0e2549"/>
        <path id="Trazado_687885" data-name="Trazado 687885" d="M1129.947,1124.109l-3.56,8.66h-2.2l10.283-25.049h2.561l10.723,25.049h-2.361l-3.641-8.66Zm11.083-1.789c-3.121-7.443-4.721-11.022-5.281-12.7h-.04c-.68,1.9-2.481,6.334-5,12.7Z" transform="translate(-974.497 -985.885)" fill="#0e2549"/>
        <path id="Trazado_687886" data-name="Trazado 687886" d="M614.876,1306.747v-20.766h2.654c3.616,4.984,12.109,16.583,13.568,18.838h.033c-.2-3-.166-6.052-.166-9.434v-9.4h1.825v20.766h-2.455c-3.45-4.806-12.076-16.88-13.734-19.164h-.033c.166,2.729.133,5.755.133,9.523v9.641Z" transform="translate(-577.138 -1124.962)" fill="#0e2549"/>
        <path id="Trazado_687887" data-name="Trazado 687887" d="M798.342,1287.464h-7.8v-1.483H808v1.483h-7.829v19.283h-1.825Z" transform="translate(-714.194 -1124.962)" fill="#0e2549"/>
        <path id="Trazado_687888" data-name="Trazado 687888" d="M976.673,1300.147c-1.095,3.293-3.815,5.785-8.725,5.785-6.668,0-10.185-4.747-10.185-10.591,0-5.607,3.45-10.709,10.218-10.709,5.009,0,7.962,2.492,8.725,5.963h-1.791c-1.062-2.7-3.019-4.48-7.033-4.48-5.772,0-8.194,4.717-8.194,9.2,0,4.45,2.388,9.137,8.327,9.137,3.782,0,5.706-1.75,6.867-4.3Z" transform="translate(-844.656 -1123.91)" fill="#0e2549"/>
        <path id="Trazado_687889" data-name="Trazado 687889" d="M1158.1,1295.163c0,5.666-3.384,10.828-10.55,10.828-6.535,0-10.35-4.717-10.35-10.68,0-5.874,3.682-10.68,10.583-10.68C1154.157,1284.632,1158.1,1289.111,1158.1,1295.163Zm-18.976.059c0,4.776,2.953,9.286,8.526,9.286,6,0,8.526-4.391,8.526-9.315,0-4.836-2.853-9.078-8.459-9.078C1141.75,1286.115,1139.129,1290.535,1139.129,1295.223Z" transform="translate(-984.654 -1123.91)" fill="#0e2549"/>
        <path id="Trazado_687890" data-name="Trazado 687890" d="M851.066,758.884,845.9,771.435h-3.19l14.9-36.3h3.711l15.542,36.3H873.45l-5.277-12.551Zm16.064-2.593c-4.523-10.787-6.843-15.974-7.655-18.411h-.058c-.986,2.749-3.6,9.18-7.249,18.411Z" transform="translate(-754.896 -695.194)" fill="#0e2549"/>
        <path id="Trazado_687891" data-name="Trazado 687891" d="M615.495,1439.621h1.427v7.805h11.1v-7.805h1.427v17.914H628.02v-8.829h-11.1v8.829h-1.427Z" transform="translate(-577.621 -1244.831)" fill="#0e2549"/>
        <path id="Trazado_687892" data-name="Trazado 687892" d="M765.037,1439.621h1.427v16.634H776.4l-.264,1.279h-11.1Z" transform="translate(-694.292 -1244.831)" fill="#0e2549"/>
        <path id="Trazado_687893" data-name="Trazado 687893" d="M888.09,1451.342l-2.352,6.193h-1.453l6.791-17.914h1.691l7.081,17.914h-1.559l-2.4-6.193Zm7.319-1.28c-2.061-5.323-3.118-7.882-3.488-9.085h-.026c-.449,1.356-1.638,4.53-3.3,9.085Z" transform="translate(-787.328 -1244.831)" fill="#0e2549"/>
        <path id="Trazado_687894" data-name="Trazado 687894" d="M1044.1,1447.542c0,4.888-2.695,9.341-8.4,9.341-5.206,0-8.244-4.069-8.244-9.213,0-5.067,2.933-9.213,8.429-9.213C1040.956,1438.457,1044.1,1442.321,1044.1,1447.542Zm-15.114.051c0,4.12,2.352,8.01,6.791,8.01,4.783,0,6.791-3.788,6.791-8.036,0-4.171-2.272-7.831-6.738-7.831C1031.074,1439.737,1028.987,1443.55,1028.987,1447.593Z" transform="translate(-899.027 -1243.923)" fill="#0e2549"/>
        <path id="Trazado_687895" data-name="Trazado 687895" d="M1179.359,1440.9h-6.209v-1.279h13.9v1.279h-6.236v16.634h-1.454Z" transform="translate(-1012.698 -1244.831)" fill="#0e2549"/>
      </g>
      <g id="Grupo_904314" data-name="Grupo 904314" transform="translate(429.766 612.494)">
        <path id="Trazado_687904" data-name="Trazado 687904" d="M1204.218,1018.75c-2.058,3.706-9.242,19.134-10.745,20.31s-5.2-26.43-5.761-27.456c-.737-1.337-1.923,1.31-1.769.089.18-1.433-3.073,2.457-3.073,2.248,0-2.387,1.118,35.579,10.886,37.583s11.127-26.359,11.127-26.359S1206.73,1014.228,1204.218,1018.75Z" transform="translate(-1161.841 -969.581)" fill="#fff"/>
        <path id="Trazado_687905" data-name="Trazado 687905" d="M1193.594,1050.811a5.129,5.129,0,0,1-1.033-.108c-3.8-.78-6.769-6.7-8.819-17.594a161.246,161.246,0,0,1-2.271-19.722c-.008-.129-.015-.247-.021-.346l-.025-.01,0-.223c0-.277.1-.42.312-.426h.029c.115-.115.266-.273.408-.419,1.6-1.661,2.248-2.212,2.7-1.995a.444.444,0,0,1,.242.3,1.355,1.355,0,0,1,1.065-.495.951.951,0,0,1,.681.545c.193.35.538,2.384,1.4,7.678,1.056,6.459,3,18.336,3.98,19.591,1.084-1.123,4.624-8.273,7.231-13.539,1.422-2.873,2.651-5.354,3.334-6.584.414-.746.869-1.413,1.384-1.232.381.134.756.579.375,4.2-.181,1.725-.464,3.437-.5,3.635-.053,1.082-1.1,20.739-7.412,25.638A4.914,4.914,0,0,1,1193.594,1050.811Zm-11.511-37.854c.006.1.014.235.024.393a160.561,160.561,0,0,0,2.261,19.643c1.97,10.466,4.847,16.374,8.321,17.087a4.181,4.181,0,0,0,3.578-.878c6.119-4.751,7.158-24.98,7.168-25.184l0-.037c.5-2.984.838-6.431.546-7.1a3.421,3.421,0,0,0-.619.89c-.676,1.217-1.9,3.692-3.32,6.558-3.651,7.375-6.522,13.077-7.507,13.849a.466.466,0,0,1-.466.071c-1.038-.4-2.258-6.821-4.438-20.151-.6-3.664-1.165-7.124-1.335-7.476-.041-.075-.125-.206-.214-.219-.183-.027-.5.29-.671.46-.241.236-.449.44-.715.309a.487.487,0,0,1-.219-.513,17.289,17.289,0,0,0-1.853,1.745C1182.378,1012.665,1182.208,1012.842,1182.083,1012.957Zm21,4.661h0Zm-18.588-7.185Z" transform="translate(-1160.71 -968.448)" fill="#0e2549"/>
        <path id="Trazado_687906" data-name="Trazado 687906" d="M1237.1,1772.208l.012,6.673h9.245l.771-6.331Z" transform="translate(-1204.151 -1563.3)" fill="#fff"/>
        <path id="Trazado_687907" data-name="Trazado 687907" d="M1245.505,1778.029h-9.845l-.013-7.321,10.705.365Zm-9.208-.637h8.644l.7-5.706-9.35-.318Z" transform="translate(-1203.017 -1562.13)" fill="#0e2549"/>
        <path id="Trazado_687908" data-name="Trazado 687908" d="M1344.8,1420.342v13.016l-11.365-.7,1.643-11.794Z" transform="translate(-1279.31 -1288.777)" fill="#8daec4"/>
        <path id="Trazado_687909" data-name="Trazado 687909" d="M1185.79,1800.73s-13.361,4.241-13.822,7.736h23.957v-7.736Z" transform="translate(-1153.335 -1585.553)" fill="#6491b5"/>
        <path id="Trazado_687910" data-name="Trazado 687910" d="M1406.635,1772.353l.252,6.751h9.245l.438-6.9Z" transform="translate(-1336.42 -1563.3)" fill="#fff"/>
        <path id="Trazado_687911" data-name="Trazado 687911" d="M1415.257,1778.273h-9.851l-.276-7.383,10.606-.155Zm-9.237-.637h8.638l.4-6.254-9.265.136Z" transform="translate(-1335.246 -1562.151)" fill="#0e2549"/>
        <path id="Trazado_687912" data-name="Trazado 687912" d="M1356.417,1801.746s-13.361,4.241-13.821,7.735h23.957v-7.735Z" transform="translate(-1286.457 -1586.345)" fill="#3e79a9"/>
        <path id="Trazado_687913" data-name="Trazado 687913" d="M1338.629,1829.875v2.009h25.454v-2.3Z" transform="translate(-1283.362 -1608.067)" fill="#0e2549"/>
        <path id="Trazado_687914" data-name="Trazado 687914" d="M1194.016,1828.728v2.142h-25.455v-2.3Z" transform="translate(-1150.677 -1607.275)" fill="#0e2549"/>
        <path id="Trazado_687915" data-name="Trazado 687915" d="M1263,1359.87h14.714l1.255-117.931-42.412,7.324-10.094,110.607h14.163l14.827-73.487-1.7-16.114Z" transform="translate(-1195.852 -1149.589)" fill="#0e2549"/>
        <path id="Trazado_687916" data-name="Trazado 687916" d="M1330.458,946.8s1.041,10.93.167,12.139-5.922,3.436-5.922,3.436l8.462,24.881,18.071-1.747,1.172-18.5s-8.248-6.719-8.746-8.1c-.688-1.909-.691-12.111-.691-12.111Z" transform="translate(-1272.497 -919.327)" fill="#fff"/>
        <path id="Trazado_687917" data-name="Trazado 687917" d="M1331.538,986.469l-.081-.239-8.556-25.157.267-.118c1.382-.61,5.117-2.4,5.792-3.331.586-.81.173-7.743-.225-11.922a.319.319,0,0,1,.635-.06c.176,1.845,1.006,11.113.107,12.356-.811,1.12-4.652,2.91-5.785,3.422l8.287,24.367,17.549-1.7,1.144-18.064c-1.29-1.055-8.224-6.767-8.717-8.134-.7-1.94-.709-11.8-.709-12.219a.319.319,0,0,1,.637,0c0,.1.01,10.168.672,12,.343.951,5.359,5.282,8.647,7.96l.127.1-1.2,18.933Z" transform="translate(-1271.091 -918.195)" fill="#0e2549"/>
        <path id="Trazado_687918" data-name="Trazado 687918" d="M1285.75,1001.856c-5.462,1.993-4.142,31.162-4.142,31.162-.891,3.43-3.3,36.743-3.3,36.743l39.526,1.01,3.579-31.25s2.826-38.592-12.173-40.852c-1.439-.217-5.837,1.839-10.538,1.385-2.039-.2-3.078,2.236-4.091-1.334C1294.609,998.72,1286.938,1001.422,1285.75,1001.856Z" transform="translate(-1236.298 -959.78)" fill="#0b5999"/>
        <path id="Trazado_687919" data-name="Trazado 687919" d="M1405.462,1306.433a.316.316,0,0,1-.181-.057l-8.907-6.17a.319.319,0,0,1,.363-.524l8.907,6.17a.319.319,0,0,1-.182.581Z" transform="translate(-1328.307 -1194.595)" fill="#a1c5e2"/>
        <path id="Trazado_687920" data-name="Trazado 687920" d="M1214.36,1038.951l.461-37.084c-2.5,0-13.2,6.734-13.2,6.734-.17-.347-6.188,12.24-8.659,18.334-.285.7-4.8-19.174-4.722-18.334,0,0-7.636,2.327-7.581,3.66s.487,33.51,9.187,37.617c1.613.761,10.79-5.1,11.269-13.83l-1.182,21.515-3.931,47.73,14.247.022Z" transform="translate(-1160.112 -962.287)" fill="#baebf5"/>
        <path id="Trazado_687921" data-name="Trazado 687921" d="M1385.48,995.428l-8.184,40.126c-.037,3.162-.348,65.612.717,65.377,3.895-.86,20.481,1.254,20.481,1.254l.26-28.39,10.362,1.062c2.259-15.128-2.288-62.024-4.276-69.519C1404.466,1003.927,1390.579,995.428,1385.48,995.428Z" transform="translate(-1313.475 -957.263)" fill="#baebf5"/>
        <path id="Trazado_687922" data-name="Trazado 687922" d="M1347.787,850.553c-2.275-.049-7.8-.239-8.314,3.776a104.787,104.787,0,0,0-.507,13.726,2.513,2.513,0,0,0,2.192,2.444l13.826,1.774a2.513,2.513,0,0,0,2.76-1.9c1.03-4.183,3.131-13.049,2.8-14.469C1359.423,851.077,1351.389,850.63,1347.787,850.553Z" transform="translate(-1283.602 -844.22)" fill="#0e2549"/>
        <path id="Trazado_687923" data-name="Trazado 687923" d="M1354.6,884.827c.846-.68,1.539-3.71,2.073-7.2a.293.293,0,0,1,.173-.225,4.11,4.11,0,0,0,2.624-3.155c.16-1.509-.968-1.333-1.884-.958a.233.233,0,0,1-.314-.251c.474-4.23.717-7.961.717-7.961l-16.43-2.108s-.451,3.769-.835,8.01c-.017.19-.619,10.348-.341,11.31a2.833,2.833,0,0,0,1.02,1.4s.944,1,6.915,1.764Z" transform="translate(-1284.676 -853.921)" fill="#fff"/>
        <path id="Trazado_687924" data-name="Trazado 687924" d="M1347.2,884.5l-.041,0c-5.641-.724-6.891-1.659-7.085-1.84a3.131,3.131,0,0,1-1.116-1.547c-.3-1.041.321-11.331.33-11.427.38-4.2.831-7.981.836-8.019l.038-.319,17.046,2.187-.019.3c0,.037-.244,3.707-.7,7.842a1.851,1.851,0,0,1,1.77-.015,1.4,1.4,0,0,1,.413,1.356,4.434,4.434,0,0,1-2.8,3.407c-.662,4.32-1.377,6.736-2.187,7.387a.319.319,0,1,1-.4-.5c.378-.3,1.134-1.616,1.958-7a.609.609,0,0,1,.361-.469,3.823,3.823,0,0,0,2.434-2.9c.03-.278.025-.638-.162-.779-.206-.155-.674-.1-1.284.15a.539.539,0,0,1-.534-.07.557.557,0,0,1-.217-.512c.391-3.494.627-6.68.695-7.647l-15.812-2.029c-.116,1-.481,4.2-.8,7.682-.034.4-.6,10.324-.353,11.193a2.525,2.525,0,0,0,.913,1.234l.033.03s1.071.941,6.724,1.666a.319.319,0,0,1-.04.635Z" transform="translate(-1283.558 -852.654)" fill="#0e2549"/>
        <path id="Trazado_687925" data-name="Trazado 687925" d="M1384.6,909.631h-.042a.531.531,0,0,1-.489-.571l.027-.341a.531.531,0,0,1,1.06.083l-.027.341A.531.531,0,0,1,1384.6,909.631Z" transform="translate(-1318.816 -889.23)" fill="#0e2549"/>
        <path id="Trazado_687926" data-name="Trazado 687926" d="M1352.938,904.673a.558.558,0,0,1-.063,0,.531.531,0,0,1-.465-.59l.048-.4a.531.531,0,0,1,1.055.125l-.047.4A.531.531,0,0,1,1352.938,904.673Z" transform="translate(-1294.111 -885.316)" fill="#0e2549"/>
        <path id="Trazado_687927" data-name="Trazado 687927" d="M1386.048,901.129a.317.317,0,0,1-.2-.067,5.347,5.347,0,0,0-3.813-1.2.319.319,0,0,1-.1-.629,5.927,5.927,0,0,1,4.307,1.33.318.318,0,0,1-.2.57Z" transform="translate(-1316.942 -882.184)" fill="#0e2549"/>
        <path id="Trazado_687928" data-name="Trazado 687928" d="M1351.964,901.7a.32.32,0,0,1-.106-.018c-.239-.084-1.433-.542-1.473-1.269-.03-.542.042-.674.928-2.3.19-.349.42-.77.7-1.283a4.587,4.587,0,0,0,.408-1.678c0-.022-.059-.134-.307-.283a4.385,4.385,0,0,0-3.356-.307.319.319,0,0,1-.254-.584,5.021,5.021,0,0,1,3.947.351,1.062,1.062,0,0,1,.606.778,5.292,5.292,0,0,1-.467,1.994l-.011.022c-.28.519-.512.945-.7,1.3-.846,1.552-.87,1.607-.851,1.958.01.173.52.515,1.049.7a.319.319,0,0,1-.106.619Z" transform="translate(-1290.914 -877.907)" fill="#0e2549"/>
        <path id="Trazado_687929" data-name="Trazado 687929" d="M1403.345,1290.03a.317.317,0,0,1-.193-.065l-10.568-8.027a.319.319,0,0,1,.386-.508l10.568,8.028a.319.319,0,0,1-.193.572Z" transform="translate(-1325.36 -1180.349)" fill="#0e2549"/>
        <path id="Trazado_687930" data-name="Trazado 687930" d="M1271.615,1289.449a.319.319,0,0,1-.144-.6l11.37-5.771a.319.319,0,1,1,.289.568l-11.37,5.772A.315.315,0,0,1,1271.615,1289.449Z" transform="translate(-1230.83 -1181.656)" fill="#0e2549"/>
        <path id="Trazado_687931" data-name="Trazado 687931" d="M1310.386,999.856l-8.625,7.42,5.831,3.237-4.692,8.823,5.98,18.063a.063.063,0,0,0,.123-.018Z" transform="translate(-1254.598 -960.718)" fill="#fff"/>
        <path id="Trazado_687932" data-name="Trazado 687932" d="M1306.971,1035.215a.381.381,0,0,1-.362-.262l-6.023-18.192,4.609-8.668-5.958-3.307,9.525-8.194-1.41,38.254a.38.38,0,0,1-.326.364A.412.412,0,0,1,1306.971,1035.215Zm-.255-.393v0Zm-5.439-18,5.492,16.586,1.3-35.379-7.726,6.646,5.705,3.167Z" transform="translate(-1252.629 -958.172)" fill="#0e2549"/>
        <path id="Trazado_687933" data-name="Trazado 687933" d="M1386.565,995.021l8.941,9.982-8.128,1.938,3.3,9.523-11.662,17.641a.127.127,0,0,1-.23-.1Z" transform="translate(-1314.692 -956.946)" fill="#fff"/>
        <path id="Trazado_687934" data-name="Trazado 687934" d="M1377.785,1032.042a.456.456,0,0,1-.177-.036.44.44,0,0,1-.261-.507l7.9-39.605,9.724,10.856-8.306,1.98,3.24,9.339-11.749,17.772A.44.44,0,0,1,1377.785,1032.042Zm.187-.419v0Zm7.649-38.355-7.46,37.406,11.036-16.694-3.367-9.706,7.95-1.9Z" transform="translate(-1313.561 -954.506)" fill="#0e2549"/>
        <path id="Trazado_687935" data-name="Trazado 687935" d="M1395.6,1239.436l-.036,0c-15.257-1.709-18.625-1.423-19.293-1.293a.49.49,0,0,1-.559-.321c-1.892-5.52-.463-64.079-.4-66.569a.319.319,0,0,1,.637.016c-.015.6-1.469,60.112.328,66.227.94-.137,4.78-.326,19.358,1.307a.319.319,0,0,1-.035.635Zm-19.285-1.824h0Z" transform="translate(-1311.53 -1094.196)" fill="#0e2549"/>
        <path id="Trazado_687936" data-name="Trazado 687936" d="M1261.48,1198.984H1248.9l.026-.343,5.741-76.8a.319.319,0,1,1,.635.047l-5.715,76.458h11.9a.319.319,0,1,1,0,.637Z" transform="translate(-1213.353 -1055.66)" fill="#0e2549"/>
        <path id="Trazado_687937" data-name="Trazado 687937" d="M1468.83,1300.546s4.542-5.388,5.4-7.361c.525-1.205.511-7.305.511-7.305l1.432-22.576-5.842-1.046s-.055,21.385-.29,22.95-4.749,5.382-4.711,6.5,4.52-2.081,4.52-2.081a22.588,22.588,0,0,1-.22,4.291c-.579,1.89-1.885,6.476-1.711,7.529.132.8,2.512-3.445,3.931-7a12.914,12.914,0,0,0,.585-3.448Z" transform="translate(-1382.215 -1165.442)" fill="#fff"/>
        <path id="Trazado_687938" data-name="Trazado 687938" d="M1466.39,1300.037a.917.917,0,0,1-.1-.007.552.552,0,0,1-.479-.485c-.216-1.307,1.4-6.678,1.726-7.742a16.027,16.027,0,0,0,.213-3.271c-2.187,1.491-3.584,2.1-4.159,1.819a.677.677,0,0,1-.375-.606c-.024-.694.8-1.653,2.269-3.29,1.046-1.168,2.347-2.622,2.448-3.291.182-1.212.266-15.5.285-22.882v-.555l6.8,1.217-1.457,22.975c0,.7-.006,6.228-.55,7.477-.848,1.945-5,6.909-5.441,7.436C1466.89,1299.9,1466.6,1300.036,1466.39,1300.037Zm2.248-13.273.026.871a21.672,21.672,0,0,1-.24,4.441,60.609,60.609,0,0,0-1.6,6.184,43.2,43.2,0,0,0,2.939-5.963,6.953,6.953,0,0,0,.453-2.336,8.654,8.654,0,0,1,.106-1.023.466.466,0,0,1,.916.169,8,8,0,0,0-.093.914,7.833,7.833,0,0,1-.518,2.621c-.238.6-.511,1.231-.8,1.874a22.543,22.543,0,0,0,2.325-3.491c.354-.813.478-4.8.472-7.118v-.03l1.406-22.161-4.887-.875c-.01,3.444-.075,21.007-.294,22.463-.142.944-1.372,2.318-2.675,3.774a19.532,19.532,0,0,0-1.929,2.366,19.89,19.89,0,0,0,3.681-2.174Z" transform="translate(-1380.561 -1163.468)" fill="#0e2549"/>
        <path id="Trazado_687939" data-name="Trazado 687939" d="M1482.348,1253.524l-11.258-1.114.656-26.335,9.666-2.018Z" transform="translate(-1386.708 -1135.637)" fill="#a1e8f5"/>
        <path id="Trazado_687940" data-name="Trazado 687940" d="M1472.905,1185.521h-.017c-4.669-.242-10.391-1.026-10.448-1.034l-.263-.036-2.118-47.526a.319.319,0,0,1,.637-.028l2.094,46.994c1.175.156,6.059.782,10.131.994a.319.319,0,0,1-.016.637Z" transform="translate(-1378.101 -1067.398)" fill="#0e2549"/>
        <path id="Trazado_687941" data-name="Trazado 687941" d="M1384.7,991.516l-4.437-3.458-9.176,3.73,2.943,3.511Z" transform="translate(-1308.689 -951.513)" fill="#3e79a9"/>
        <path id="Trazado_687942" data-name="Trazado 687942" d="M1324.988,993.946l3.095-3.279,7.039,3.156-2.654,3.238Z" transform="translate(-1272.72 -953.549)" fill="#6491b5"/>
        <rect id="Rectángulo_303754" data-name="Rectángulo 303754" width="16.084" height="4.567" transform="translate(29.904 206.452)" fill="#0e2549"/>
        <rect id="Rectángulo_303755" data-name="Rectángulo 303755" width="16.084" height="4.567" transform="translate(66.752 205.714)" fill="#0e2549"/>
        <path id="Trazado_687943" data-name="Trazado 687943" d="M1291.466,1590.223a.34.34,0,0,1-.333-.407l7.145-35.413c-1.542.363-5.721,1.23-7.115.334a1.094,1.094,0,0,1-.513-.731.974.974,0,0,1,.2-.77c.78-1.035,3.834-1.578,5.373-1.79-1.959-1.522-1.766-2.009-1.7-2.18.175-.441.8-.357,1-.33a7.665,7.665,0,0,1,3.525,1.584l1.742-8.584a.34.34,0,1,1,.666.135l-1.979,9.748-.445-.425a7.407,7.407,0,0,0-3.6-1.785,1.936,1.936,0,0,0-.195-.017,10.755,10.755,0,0,0,2.064,1.812l.728.522-.891.092c-1.9.2-5.133.81-5.748,1.626a.292.292,0,0,0-.075.242.407.407,0,0,0,.211.279c1.167.75,5.523-.142,7.1-.549l.525-.135-7.358,36.468A.34.34,0,0,1,1291.466,1590.223Z" transform="translate(-1245.918 -1383.432)" fill="#a1c5e2"/>
        <path id="Trazado_687944" data-name="Trazado 687944" d="M1433.123,1582.215h0a.34.34,0,0,1-.338-.341l.17-36.126c-1.443.654-5.375,2.311-6.917,1.7a1.1,1.1,0,0,1-.644-.619.976.976,0,0,1,.049-.8c.565-1.166,3.457-2.288,4.926-2.794-2.216-1.115-2.12-1.63-2.087-1.811.086-.466.712-.5.917-.517a7.674,7.674,0,0,1,3.764.873l.052-8.759a.34.34,0,0,1,.34-.338h0a.34.34,0,0,1,.338.342l-.059,9.947-.519-.331a7.418,7.418,0,0,0-3.876-1.056,1.934,1.934,0,0,0-.194.02,10.755,10.755,0,0,0,2.374,1.38l.815.372-.856.262c-1.822.558-4.88,1.786-5.325,2.706a.291.291,0,0,0-.027.252.405.405,0,0,0,.261.234c1.289.51,5.391-1.206,6.862-1.91l.489-.234,0,.542-.173,36.661A.34.34,0,0,1,1433.123,1582.215Z" transform="translate(-1351.006 -1376.431)" fill="#a1c5e2"/>
        <path id="Trazado_687945" data-name="Trazado 687945" d="M1110.884,864.519,1087.2,821.8l25.177,39.74Z" transform="translate(-1087.198 -821.801)" fill="#a1c5e2"/>
        <path id="Trazado_687946" data-name="Trazado 687946" d="M1195.85,990.914c1.62-4.787-3.427-4.662-3.427-4.662s.99,4.942,1.541,5.812S1195.619,991.6,1195.85,990.914Z" transform="translate(-1169.294 -950.104)" fill="#fff"/>
        <path id="Trazado_687947" data-name="Trazado 687947" d="M1193.046,991.536a.846.846,0,0,1-.724-.433c-.567-.894-1.482-5.408-1.585-5.919l-.074-.372.379-.009c.1,0,2.42-.043,3.522,1.454a3.841,3.841,0,0,1,.214,3.629c-.184.542-.885,1.555-1.629,1.644A.856.856,0,0,1,1193.046,991.536Zm-1.6-6.08a30.886,30.886,0,0,0,1.417,5.306c.1.149.169.14.214.135.356-.043.941-.743,1.1-1.216h0a3.26,3.26,0,0,0-.124-3.046A3.662,3.662,0,0,0,1191.443,985.456Z" transform="translate(-1167.921 -948.973)" fill="#0e2549"/>
        <path id="Trazado_687948" data-name="Trazado 687948" d="M1169.734,987.774s5.182-.983,5.805,0-4.122,2.26-4.107,2.373c.024.182,5.453-1.823,6.114-.945s-4.759,2.639-4.714,2.73c.067.134,3.406-1.364,4.458-.7s-3.549,1.834-3.413,1.991c.089.1,2.892-1.357,3.377-.477.3.547-2.92,2.439-2.92,2.439a2.5,2.5,0,0,1-3.423-1.073C1170.557,993.526,1167.818,989.3,1169.734,987.774Z" transform="translate(-1151.066 -950.95)" fill="#fff"/>
        <path id="Trazado_687949" data-name="Trazado 687949" d="M1171.947,994.662a2.776,2.776,0,0,1-2.44-1.523l-.059-.1c-2.559-4.145-1.98-5.906-1.043-6.653l.062-.05.077-.015c1.266-.24,5.447-.94,6.134.139a.649.649,0,0,1,.068.579,1.475,1.475,0,0,1-.6.669c1.368-.28,2.2-.271,2.528.159a.581.581,0,0,1,.1.519c-.109.384-.632.779-1.49,1.216a1.867,1.867,0,0,1,1.054.217.558.558,0,0,1,.3.546c-.029.257-.237.481-.651.718a.8.8,0,0,1,.422.366c.112.2.452.819-3.037,2.868A3.217,3.217,0,0,1,1171.947,994.662Zm-3.2-7.726c-.965.86-.525,2.9,1.246,5.772l.062.1a2.17,2.17,0,0,0,3,.961,10.853,10.853,0,0,0,2.761-2.052c-.217-.2-1.024-.038-2.4.491-.564.217-.734.282-.9.084l-.11-.127.041-.173c.058-.219.2-.269,1.122-.6a10.928,10.928,0,0,0,2.394-1.055c-.667-.351-2.6.288-3.438.563-.754.249-.956.315-1.1.031l-.063-.126.051-.134c.061-.158.077-.164.913-.49,2.984-1.163,3.739-1.7,3.829-1.947-.267-.267-1.807,0-4.579.794-1.142.327-1.263.362-1.436.248l-.122-.08-.023-.151c-.037-.284.085-.327.878-.6,2.984-1.042,3.29-1.485,3.283-1.627C1173.84,986.334,1171.125,986.492,1168.744,986.936Z" transform="translate(-1149.935 -949.814)" fill="#0e2549"/>
        <path id="Trazado_687950" data-name="Trazado 687950" d="M1357.281,856.973s-12.129,3.319-17.532-1.008,3.28-4.378,8.493-3.772S1360.762,853.96,1357.281,856.973Z" transform="translate(-1282.904 -845.298)" fill="#0e2549"/>
        <path id="Trazado_687951" data-name="Trazado 687951" d="M1358.681,933.734a.861.861,0,0,0,.976,1.137c2.377-.407,4.374-2.364,3.813-2.168-.22.077-1.708.61-2.708.844C1359.4,933.865,1358.9,933.427,1358.681,933.734Z" transform="translate(-1298.958 -908.315)" fill="#0e2549"/>
        <path id="Trazado_687952" data-name="Trazado 687952" d="M1351.121,1362.542a.34.34,0,0,1-.336-.295l-1.94-14.615-.024-9.772a.34.34,0,0,1,.339-.34h0a.34.34,0,0,1,.34.339l.024,9.75,1.934,14.549a.34.34,0,0,1-.292.382A.357.357,0,0,1,1351.121,1362.542Z" transform="translate(-1291.314 -1224.16)" fill="#a1c5e2"/>
        <path id="Trazado_687953" data-name="Trazado 687953" d="M1402.72,1147.436v6.38l9.81.02v-6.4Z" transform="translate(-1333.365 -1075.858)" fill="#fff"/>
        <path id="Trazado_687954" data-name="Trazado 687954" d="M1408.881,1140.477a1.826,1.826,0,0,0-1.8-1.552h-.995a1.826,1.826,0,0,0-1.8,1.552h-3.01v7.016l10.447.021v-7.037Zm-2.8-.915h.995a1.19,1.19,0,0,1,1.156.915h-3.307A1.19,1.19,0,0,1,1406.083,1139.562Zm5,7.314-9.173-.019v-5.743h9.173Z" transform="translate(-1332.235 -1069.219)" fill="#0e2549"/>
        <path id="Trazado_687955" data-name="Trazado 687955" d="M1411.585,1156.456h0Z" transform="translate(-1340.282 -1082.896)" fill="#e2474b"/>
        <path id="Trazado_687956" data-name="Trazado 687956" d="M1416.615,1155.644h-6.161a.318.318,0,0,1,0-.637h6.161a.318.318,0,0,1,0,.637Z" transform="translate(-1339.151 -1081.765)" fill="#0e2549"/>
        <path id="Trazado_687957" data-name="Trazado 687957" d="M1415.773,1164.188h0Z" transform="translate(-1343.549 -1088.928)" fill="#e2474b"/>
        <path id="Trazado_687958" data-name="Trazado 687958" d="M1418.767,1163.375h-4.126a.319.319,0,0,1,0-.637h4.126a.319.319,0,0,1,0,.637Z" transform="translate(-1342.418 -1087.797)" fill="#0e2549"/>
        <path id="Trazado_687959" data-name="Trazado 687959" d="M1336.015,994.379l11.427-4.051-5.04-3.929-9.22,3.748-7.121-3.194-3.567,3.78,8.125,3.383,2.142-2.612c-.7,7.423-4.858,52.377-4.458,68.085a.319.319,0,0,0,.318.31h.008a.318.318,0,0,0,.31-.327c-.4-15.888,3.87-61.824,4.482-68.291Zm6.285-7.251,3.833,2.988-9.913,3.515-2.52-3.006Zm-11.875,6.218-6.836-2.846,2.623-2.779,6.452,2.893Z" transform="translate(-1270.772 -950.219)" fill="#0e2549"/>
        <path id="Trazado_687960" data-name="Trazado 687960" d="M1358.091,856.791c-4.174,3.307-21.649-2.815-21.649-2.815l.851-5.629s8.971,6.32,20.378,4.845C1359,853.02,1359.142,855.958,1358.091,856.791Z" transform="translate(-1281.656 -842.512)" fill="#2e6b99"/>
        <path id="Trazado_687961" data-name="Trazado 687961" d="M1334.241,828.257a6.277,6.277,0,1,1-6.277-6.277A6.277,6.277,0,0,1,1334.241,828.257Z" transform="translate(-1270.145 -821.941)" fill="#a1c5e2"/>
      </g>
      <g id="Grupo_904315" data-name="Grupo 904315" transform="translate(301.448 775.799)">
        <path id="Trazado_687962" data-name="Trazado 687962" d="M367.252,1591.787l.15,2.292c0,.05.169,2.567.49,6.387a38.353,38.353,0,0,0-15.967-.415c.3-3.586.452-5.923.455-5.972l.15-2.292H278.937l.227,2.357c.01.1.975,10.046,2.766,20.605,3.724,21.955,7.357,25.183,8.55,26.244,4.378,3.891,17.042,5.441,26.557,5.586.4.006.876.01,1.416.01,6.154,0,20.613-.57,25.726-5.683.986-.986,3.6-3.6,6.249-25.837.44-3.7.808-7.342,1.1-10.528a33.915,33.915,0,0,1,16.761.449c.287,3.077.641,6.552,1.061,10.079,2.645,22.233,5.263,24.851,6.249,25.837,5.114,5.114,19.573,5.683,25.726,5.683.54,0,1.016,0,1.416-.01,9.515-.145,22.18-1.695,26.557-5.586,1.194-1.061,4.826-4.29,8.55-26.244,1.791-10.559,2.757-20.506,2.766-20.605l.227-2.357Zm-21.1,22.775c-2.29,19.256-4.42,22.7-5.018,23.3-2.815,2.815-12.476,4.59-24.035,4.413-11.025-.167-21.02-2.06-23.764-4.5-1.111-.987-4.031-5.275-7.163-23.726-1.249-7.359-2.092-14.422-2.481-17.962h64.228c-.1,1.29-.236,3.063-.417,5.154a23.108,23.108,0,0,0-5.4,2.588,2.151,2.151,0,1,0,2.493,3.507,15.831,15.831,0,0,1,2.468-1.308C346.812,1608.7,346.507,1611.612,346.156,1614.562Zm87.454-.532c-3.133,18.469-6.056,22.76-7.167,23.748-2.744,2.439-12.739,4.332-23.764,4.5-11.56.178-21.219-1.6-24.035-4.413-.6-.6-2.727-4.044-5.016-23.287-.334-2.806-.626-5.579-.876-8.142q1.309.5,2.667,1.11a2.152,2.152,0,0,0,1.768-3.923,51.932,51.932,0,0,0-4.87-1.912c-.2-2.3-.353-4.237-.457-5.622h64.228C435.7,1599.626,434.858,1606.674,433.61,1614.03Z" transform="translate(-278.937 -1591.787)" fill="#0e2549"/>
        <path id="Trazado_687963" data-name="Trazado 687963" d="M361.212,1655.491a.34.34,0,0,1-.207-.609l14.268-10.988a.34.34,0,1,1,.414.538L361.42,1655.42A.339.339,0,0,1,361.212,1655.491Z" transform="translate(-342.862 -1632.385)" fill="#0e2549"/>
        <path id="Trazado_687964" data-name="Trazado 687964" d="M373.09,1679.03a.34.34,0,0,1-.211-.606l35.11-27.769a.34.34,0,1,1,.421.533l-35.11,27.769A.337.337,0,0,1,373.09,1679.03Z" transform="translate(-352.129 -1637.658)" fill="#0e2549"/>
        <path id="Trazado_687965" data-name="Trazado 687965" d="M736.009,1649.905a.34.34,0,0,1-.211-.606l35.11-27.769a.34.34,0,1,1,.421.533l-35.11,27.769A.337.337,0,0,1,736.009,1649.905Z" transform="translate(-635.275 -1614.935)" fill="#0e2549"/>
        <path id="Trazado_687966" data-name="Trazado 687966" d="M860.229,1642.51a.34.34,0,0,1-.21-.607l19.373-15.249a.34.34,0,0,1,.42.534l-19.373,15.249A.339.339,0,0,1,860.229,1642.51Z" transform="translate(-732.19 -1618.933)" fill="#0e2549"/>
        <path id="Trazado_687967" data-name="Trazado 687967" d="M791.541,1728.257a.34.34,0,0,1-.214-.6l22.9-18.571a.34.34,0,1,1,.428.527l-22.9,18.571A.339.339,0,0,1,791.541,1728.257Z" transform="translate(-678.601 -1683.241)" fill="#0e2549"/>
      </g>
      <g id="Grupo_904316" data-name="Grupo 904316" transform="translate(301.448 568.441)">
        <path id="Trazado_687968" data-name="Trazado 687968" d="M397.712,637.07c-.027,1.228-26.014,30.922-58.1,30.922s-58.1-30.182-58.1-30.922c0-1.046,26.014-30.922,58.1-30.922S397.727,636.348,397.712,637.07Z" transform="translate(-281.165 -605.808)" fill="#fff"/>
        <path id="Trazado_687969" data-name="Trazado 687969" d="M338.4,667.125c-16.773,0-31.709-8.292-41.285-15.248a106.869,106.869,0,0,1-12.492-10.629c-1.937-1.933-4.666-4.881-4.666-5.384,0-.608,2.861-3.7,4.665-5.513a103.549,103.549,0,0,1,12.493-10.616c9.552-6.9,24.468-15.133,41.284-15.133,26.408,0,48.409,20.384,54.524,26.632.039.04,3.933,4.026,3.919,4.637l-.34-.007.34.007c-.02.936-7.173,8.984-17.169,16.19C370.142,658.933,355.242,667.125,338.4,667.125Zm-57.735-31.276c.659,1.067,7.057,8.439,17.258,15.773,9.405,6.762,24.063,14.824,40.478,14.824,16.513,0,31.161-7.991,40.542-14.7,10.2-7.289,16.647-14.762,17.2-15.867-.642-1.048-7.047-8.432-17.265-15.777-9.406-6.763-24.064-14.824-40.474-14.824-16.472,0-31.121,8.013-40.51,14.734C287.837,627.214,281.277,634.709,280.667,635.849Zm115.516.11h0Z" transform="translate(-279.959 -604.603)" fill="#0e2549"/>
        <circle id="Elipse_7429" data-name="Elipse 7429" cx="30.583" cy="30.583" r="30.583" transform="translate(27.554 0.676)" fill="#a1c5e2"/>
        <circle id="Elipse_7430" data-name="Elipse 7430" cx="14.008" cy="14.008" r="14.008" transform="translate(43.107 43.802) rotate(-84.273)" fill="#0e2549"/>
        <path id="Trazado_687970" data-name="Trazado 687970" d="M573.763,679.957a3.684,3.684,0,1,1-3.684-3.684A3.684,3.684,0,0,1,573.763,679.957Z" transform="translate(-503.434 -660.519)" fill="#fff"/>
      </g>
      <path id="Trazado_687971" data-name="Trazado 687971" d="M619.329,1839.595H300.872a.291.291,0,0,1,0-.582H619.329a.291.291,0,0,1,0,.582Z" transform="translate(-16.887 -1002.992)" fill="#0e2549"/>
    </g>
  </g>
</svg>
