<svg xmlns="http://www.w3.org/2000/svg" width="372.729" height="363.438" viewBox="0 0 372.729 363.438">
  <g id="Grupo_929410" data-name="Grupo 929410" transform="translate(-187.271 -1094.683)">
    <g id="Grupo_929409" data-name="Grupo 929409">
      <g id="Grupo_903832" data-name="Grupo 903832" transform="translate(187.271 1095)">
        <path id="Trazado_687080" data-name="Trazado 687080" d="M1082.114,804.538c0,7.5-31.32,13.575-69.955,13.575s-69.954-6.077-69.954-13.575,31.32-13.573,69.954-13.573S1082.114,797.041,1082.114,804.538Z" transform="translate(-942.205 -454.993)" fill="#84c1e1"/>
        <g id="Grupo_903831" data-name="Grupo 903831" transform="translate(21.187 0)">
          <g id="Grupo_903803" data-name="Grupo 903803" transform="translate(64.339 75.426)">
            <path id="Trazado_687081" data-name="Trazado 687081" d="M986.381,458.9l5.028,3.826,4.51,5c-1.693,1.506-4.061-1.316-4.061-1.316a43.871,43.871,0,0,0,4.822,8.664c.806,1.662-.855,1.755-.855,1.755-2.094-1.636-5.2-6.878-5.2-6.878a85.3,85.3,0,0,0,4.3,8.169c.417,1.486-1.16,1.261-1.16,1.261-3.374-1.422-5.328-8.03-5.328-8.03a49.117,49.117,0,0,0,3.389,7.5c-.221,1.09-.775.8-.775.8-2.849-.718-4.71-7.082-4.71-7.082l.761,2.364c1.326,3.144-.814,2.578-.814,2.578l-.95-1.536a19.9,19.9,0,0,1-2.787-9.345l-.783-5.877Z" transform="translate(-961.255 -355.637)" fill="#e28262"/>
            <path id="Trazado_687082" data-name="Trazado 687082" d="M1007.079,264.375l-3.057,1.6s2.729,44.719,8.554,52.892,8.752-2.289,10.206-3.569,3.655-51.472,3.655-51.472Z" transform="translate(-1001.334 -252.954)" fill="#e28262"/>
            <path id="Trazado_687083" data-name="Trazado 687083" d="M1018.109,358.65s1.038,38.456,2.619,47.034c0,0-1.8,4.442-4.616,1.858s-13.039-44.307-12.075-47.85S1018.109,358.65,1018.109,358.65Z" transform="translate(-995.601 -302.416)" fill="#e28262"/>
            <path id="Trazado_687084" data-name="Trazado 687084" d="M1026.859,289.213c-8.731,6.477-23.224,3.448-23.224,3.448l-3.871-40.116s-1.239-7.926,8.909-11.186c0,0,11.6-3.511,16.576,8.391Z" transform="translate(-999.716 -240.876)" fill="#95d2e2"/>
          </g>
          <g id="Grupo_903804" data-name="Grupo 903804" transform="translate(59.158 159.056)">
            <rect id="Rectángulo_303628" data-name="Rectángulo 303628" width="58.725" height="37.978" transform="translate(1.845 1.299)" fill="#fa9711"/>
            <rect id="Rectángulo_303629" data-name="Rectángulo 303629" width="56.854" height="35.913" transform="translate(2.802 2.143)" fill="#fff"/>
            <rect id="Rectángulo_303630" data-name="Rectángulo 303630" width="58.726" height="36.102" transform="translate(0 3.175)" fill="#ffad0b"/>
            <rect id="Rectángulo_303631" data-name="Rectángulo 303631" width="18.262" height="3.175" transform="translate(40.464)" fill="#ffad0b"/>
          </g>
          <path id="Trazado_687085" data-name="Trazado 687085" d="M1021.211,782.184s1.848,6.951,4.065,8.822,10.63,4.58,10.63,4.58l4.657.627s3.25,2.29-5.6,4.8-24.48-4.712-24.48-4.712l3.386-14.271Z" transform="translate(-954.766 -450.291)" fill="#070809"/>
          <path id="Trazado_687086" data-name="Trazado 687086" d="M1130.871,796.864c-1.637-2.391-5.315-15.584-5.315-15.584l-7.248,0-4.1,14.766s-.655,2.471.852,3.346c0,0,9.127,2.866,16.746-.649A5.322,5.322,0,0,0,1130.871,796.864Z" transform="translate(-1094.489 -449.893)" fill="#070809"/>
          <path id="Trazado_687087" data-name="Trazado 687087" d="M1069.9,299.984l9.255-56.562s3.189-8.5-3.187-12.754l-24.309-11.423H1034.52l-29.222,17.27,19.153,63.469Z" transform="translate(-991.116 -154.064)" fill="#f39672"/>
          <path id="Trazado_687088" data-name="Trazado 687088" d="M1033.037,389.708s-5.249,11.984-6.516,39.535c0,0,39.5,12.391,51.9,0l.07-39.535Z" transform="translate(-999.703 -243.789)" fill="#001b34"/>
          <path id="Trazado_687089" data-name="Trazado 687089" d="M1100.217,454.575a16.216,16.216,0,1,1-16.208-16.74A16.481,16.481,0,0,1,1100.217,454.575Z" transform="translate(-1040.984 -269.121)" fill="#06355c"/>
          <path id="Trazado_687090" data-name="Trazado 687090" d="M1055.894,457.8c0,9.246-4.066,16.742-13.017,16.742a16.75,16.75,0,0,1,0-33.482C1051.829,441.058,1055.894,448.553,1055.894,457.8Z" transform="translate(-977.18 -270.817)" fill="#06355c"/>
          <path id="Trazado_687091" data-name="Trazado 687091" d="M1080.166,468.269l-3.453,69.609s6.11,19.13,19.66,7.97l11.987-76.742S1104.609,449.14,1080.166,468.269Z" transform="translate(-1053.347 -280.776)" fill="#06355c"/>
          <path id="Trazado_687092" data-name="Trazado 687092" d="M1107.035,618.108s-5.4,11.466-4.99,28.434l2.333,51.388H1116.6l10.1-71.851S1117.4,601.636,1107.035,618.108Z" transform="translate(-1083.669 -361.006)" fill="#06355c"/>
          <path id="Trazado_687093" data-name="Trazado 687093" d="M1026.432,475.8l1,64.064s16.295,14.524,20.547,3.9c0,0,4.6-49.2,3.718-73.841C1051.694,469.92,1032.1,453.482,1026.432,475.8Z" transform="translate(-972.979 -282.939)" fill="#06355c"/>
          <path id="Trazado_687094" data-name="Trazado 687094" d="M1037.716,618.829s-4.959,7.786-2.524,29.563l4.295,50.436h13.107l5.669-76.1S1049.736,606.284,1037.716,618.829Z" transform="translate(-983.266 -361.905)" fill="#06355c"/>
          <g id="Grupo_903806" data-name="Grupo 903806" transform="translate(0 79.913)">
            <path id="Trazado_687095" data-name="Trazado 687095" d="M1175,371.51c-3.168,31.771-1.869,33.874-1.538,46.616,0,0-1.692,4.484-4.571,1.966s-7.474-44.826-6.028-48.2C1165.021,366.883,1175,371.51,1175,371.51Z" transform="translate(-1160.669 -313.098)" fill="#f39672"/>
            <path id="Trazado_687096" data-name="Trazado 687096" d="M1154.307,469.42l4.468,4.467,3.8,5.564c-1.879,1.263-3.849-1.85-3.849-1.85a43.763,43.763,0,0,0,3.612,9.231c.577,1.758-1.083,1.627-1.083,1.627-1.853-1.9-4.227-7.517-4.227-7.517a85.084,85.084,0,0,0,3.161,8.673c.212,1.528-1.32,1.095-1.32,1.095-3.153-1.866-4.2-8.674-4.2-8.674a49,49,0,0,0,2.351,7.888c-.366,1.05-.878.691-.878.691-2.725-1.094-3.713-7.651-3.713-7.651l.434,2.444c.891,3.3-1.151,2.446-1.151,2.446l-.736-1.651a19.919,19.919,0,0,1-1.5-9.635l.015-5.929Z" transform="translate(-1141.977 -365.659)" fill="#f39672"/>
            <g id="Grupo_903805" data-name="Grupo 903805">
              <path id="Trazado_687097" data-name="Trazado 687097" d="M1133.358,269.562l-3.425.4s-13.426,42.742-10.9,52.458,7.475,1.169,9.291.494,23.315-46.952,23.315-46.952Z" transform="translate(-1116.517 -260.462)" fill="#f39672"/>
              <path id="Trazado_687098" data-name="Trazado 687098" d="M1138.137,305.377c-7.986,2.427-21.777-9.585-21.777-9.585l11.432-38.147s1.675-7.846,12.317-7.264c0,0,12.093.866,12.485,13.76Z" transform="translate(-1116.36 -250.35)" fill="#95d2e2"/>
            </g>
          </g>
          <path id="Trazado_687099" data-name="Trazado 687099" d="M1060.5,192.867V211.19h19.377s-4.765-7.262-2.382-18.323Z" transform="translate(-1017.181 -140.18)" fill="#f39672"/>
          <path id="Trazado_687100" data-name="Trazado 687100" d="M1072.55,208.426c1.747,1.124,5.458,3.516,7.575,2.116a1.992,1.992,0,0,0,.92-1.419,26.845,26.845,0,0,1-1.329-16.256h-17v1.662C1064.842,199.892,1067.561,205.21,1072.55,208.426Z" transform="translate(-1019.404 -140.18)" fill="#db765e"/>
          <g id="Grupo_903807" data-name="Grupo 903807" transform="translate(31.175 15.593)">
            <path id="Trazado_687101" data-name="Trazado 687101" d="M1093.187,152.1s-3.33-1.356-7.25-9.428c0,0-8.328-9.463-2.836-20.549,0,0,3.181-9.342,19.687-7.129C1102.788,115,1104.839,139.788,1093.187,152.1Z" transform="translate(-1081.228 -114.607)" fill="#f3906b"/>
            <path id="Trazado_687102" data-name="Trazado 687102" d="M1078.578,156.533l1.032-2.9s2.78-10.756,2.78-10.758a11.043,11.043,0,0,0,.054-4.527,11.106,11.106,0,0,1-.15-4.657c1.732-7.731-2.307-12-2.307-12-4.51-7.149-15.2-7.142-15.2-7.142-13.219.648-14.334,13.441-14.334,13.441-2.147,8.507,4.62,15.594,4.634,15.608.54.565.263,3.368.425,4.164.7,3.394,3.947,5.483,6.824,6.92,3.164,1.58,6.989,3.26,10.528,3.585C1074.205,158.392,1077.988,158.194,1078.578,156.533Z" transform="translate(-1046.25 -114.551)" fill="#f39672"/>
          </g>
          <path id="Trazado_687103" data-name="Trazado 687103" d="M1065.681,163.6l-3.654,1.2s4.821.544,5.078-.852c0,0-.593-2.779-1.255-5.415C1065.849,158.538,1066.223,163.422,1065.681,163.6Z" transform="translate(-1005.136 -122.111)" fill="#e47a5d"/>
          <g id="Grupo_903808" data-name="Grupo 903808" transform="translate(49.491 31.228)">
            <path id="Trazado_687104" data-name="Trazado 687104" d="M1079.561,156.3c-.038.758-.489,1.348-1,1.322s-.9-.659-.861-1.416.486-1.349,1-1.324S1079.6,155.548,1079.561,156.3Z" transform="translate(-1074.507 -151.416)" fill="#341e13"/>
            <path id="Trazado_687105" data-name="Trazado 687105" d="M1057.608,154.981c-.038.757-.487,1.348-1,1.321s-.9-.657-.86-1.416.485-1.35,1-1.324S1057.647,154.223,1057.608,154.981Z" transform="translate(-1042.157 -150.719)" fill="#341e13"/>
            <path id="Trazado_687106" data-name="Trazado 687106" d="M1080.479,150.525c.33.086.435-.359.435-.359a1.567,1.567,0,0,0,.019-.806.781.781,0,0,0-.377-.424,11.316,11.316,0,0,0-3.988.318c-.8.193-2.1.714-2.221,1.435-.034.215-.074.588.167.666A32.317,32.317,0,0,1,1080.479,150.525Z" transform="translate(-1074.321 -148.247)" fill="#341e13"/>
            <path id="Trazado_687107" data-name="Trazado 687107" d="M1055.346,149.254a28.038,28.038,0,0,0-4.646.251c-.311.142-.492-.278-.492-.278a1.579,1.579,0,0,1-.158-.79.779.779,0,0,1,.3-.484,8.434,8.434,0,0,1,3.454-.363,6.813,6.813,0,0,1,1.71.319A3.336,3.336,0,0,1,1055.346,149.254Z" transform="translate(-1037.373 -147.561)" fill="#341e13"/>
          </g>
          <g id="Grupo_903809" data-name="Grupo 903809" transform="translate(55.809 45.78)">
            <path id="Trazado_687108" data-name="Trazado 687108" d="M1065.992,178.285c.294.013.444.158.324.362,0,0-1.412,2.359-3.685,2.517s-4.013-1.978-4.013-1.978c-.17-.207,0-.4.365-.427C1058.984,178.759,1062.906,178.459,1065.992,178.285Z" transform="translate(-1058.552 -178.285)" fill="#fff"/>
          </g>
          <path id="Trazado_687109" data-name="Trazado 687109" d="M1021.3,298.447c.039,1.884-2.821,21.6-1.62,21.85.007,0,32.708,7.537,50.146,0l.071-20.313,9.255-56.562s3.189-8.5-3.187-12.754l-24.309-11.423,1.642,4.926-3.516,10-15.268-14.922-29.222,17.27q2.45,8.117,4.889,16.237c3.012,9.976,5.943,19.981,9.046,29.93C1019.232,282.682,1021.8,293.472,1021.3,298.447Z" transform="translate(-991.116 -154.064)" fill="#95d2e2"/>
          <path id="Trazado_687110" data-name="Trazado 687110" d="M1077,226.752l-.2,9.106-3.354-3.279Z" transform="translate(-1020.434 -158.016)" fill="#3aa0bf"/>
          <path id="Trazado_687111" data-name="Trazado 687111" d="M1060.145,219.479s-.986-3.814-5.819-7.036l.632,13.146S1057.64,218.864,1060.145,219.479Z" transform="translate(-994.529 -150.484)" fill="#77c7df"/>
          <path id="Trazado_687112" data-name="Trazado 687112" d="M1057.706,233.362l-.44-6.11c-1.475-.362-2.794,1.7-3.87,3.4Z" transform="translate(-991.65 -158.257)" fill="#3aa0bf"/>
          <g id="Grupo_903810" data-name="Grupo 903810" transform="translate(58.234 82.122)">
            <path id="Trazado_687113" data-name="Trazado 687113" d="M1067.024,256.312a1.3,1.3,0,1,1-1.3-1.3A1.3,1.3,0,0,1,1067.024,256.312Z" transform="translate(-1064.425 -255.013)" fill="#d2eae6"/>
          </g>
          <g id="Grupo_903811" data-name="Grupo 903811" transform="translate(58.234 105.716)">
            <path id="Trazado_687114" data-name="Trazado 687114" d="M1067.024,306.128a1.3,1.3,0,1,1-1.3-1.3A1.3,1.3,0,0,1,1067.024,306.128Z" transform="translate(-1064.425 -304.828)" fill="#d2eae6"/>
          </g>
          <g id="Grupo_903812" data-name="Grupo 903812" transform="translate(58.234 129.312)">
            <path id="Trazado_687115" data-name="Trazado 687115" d="M1067.024,355.944a1.3,1.3,0,1,1-1.3-1.3A1.3,1.3,0,0,1,1067.024,355.944Z" transform="translate(-1064.425 -354.645)" fill="#d2eae6"/>
          </g>
          <g id="Grupo_903813" data-name="Grupo 903813" transform="translate(58.234 152.906)">
            <path id="Trazado_687116" data-name="Trazado 687116" d="M1067.024,405.759a1.3,1.3,0,1,1-1.3-1.3A1.3,1.3,0,0,1,1067.024,405.759Z" transform="translate(-1064.425 -404.46)" fill="#d2eae6"/>
          </g>
          <line id="Línea_993" data-name="Línea 993" y2="89.546" transform="translate(56.564 78.88)" fill="none" stroke="#71c5df" stroke-miterlimit="10" stroke-width="2.957"/>
          <g id="Grupo_903815" data-name="Grupo 903815" transform="translate(27.256 162.035)">
            <path id="Trazado_687117" data-name="Trazado 687117" d="M1076.8,429.8s-16.7,7.824-50.884-.174c-.562-.132-.326-1.592-.326-1.592l.326-3.29c.148-1.055.738-1,.738-1s32.707,7.537,50.146,0c0,0,.7-.123.733.932v4.1A1.085,1.085,0,0,1,1076.8,429.8Z" transform="translate(-1025.545 -423.733)" fill="#3d1a0c"/>
            <g id="Grupo_903814" data-name="Grupo 903814" transform="translate(25.795 2.811)">
              <path id="Trazado_687118" data-name="Trazado 687118" d="M1071.412,435.4a.934.934,0,0,1-.922.944h-6.653a.933.933,0,0,1-.922-.944v-4.791a.933.933,0,0,1,.922-.944h6.653a.934.934,0,0,1,.922.944Z" transform="translate(-1062.916 -429.668)" fill="none" stroke="#bababa" stroke-miterlimit="10" stroke-width="4.837"/>
              <line id="Línea_994" data-name="Línea 994" x2="3.522" transform="translate(0 3.038)" fill="none" stroke="#bababa" stroke-miterlimit="10" stroke-width="4.837"/>
            </g>
          </g>
          <path id="Trazado_687119" data-name="Trazado 687119" d="M1089.855,217.082s-10.724-4.164-13.247-8.311l-3.169,6.038,11.3,10.841,5.112-8.363" transform="translate(-1033.292 -148.551)" fill="#77c7df"/>
          <path id="Trazado_687120" data-name="Trazado 687120" d="M1083.081,115.441s5.987-5.251,3.215-9.617c0,0-4.768-5.287-13.614-3.973s-8.734-1.144-15.653,2.38-8.139,2.825-9.689,9.546c-1.464,6.352-.586,8.714.512,12.525s2.435,11.63,9.792,16.058c0,0-5-11.214,3.283-8.638l.9-.072s-1.937-5.77,1.731-8.726c-1.823-2.235-.49-6.817-.144-7.475,1.736-3.314,6.994-2.039,10.033-2.976C1075.8,113.748,1081.659,112.614,1083.081,115.441Z" transform="translate(-1017.737 -92.163)" fill="#341e13"/>
          <g id="Grupo_903824" data-name="Grupo 903824" transform="translate(35.948 37.883)">
            <g id="Grupo_903820" data-name="Grupo 903820" transform="translate(0)">
              <g id="Grupo_903819" data-name="Grupo 903819" transform="translate(0)">
                <g id="Grupo_903818" data-name="Grupo 903818">
                  <g id="Grupo_903817" data-name="Grupo 903817">
                    <g id="Grupo_903816" data-name="Grupo 903816">
                      <path id="Trazado_687121" data-name="Trazado 687121" d="M1107.667,169.571a2.946,2.946,0,0,1-1.847.708,4.294,4.294,0,0,1-4.208-4.126,3.936,3.936,0,0,1,3.418-4.537,3.71,3.71,0,0,1,2.69,1.008c1.085.988,1.253,2.934,1.108,4.3A4.023,4.023,0,0,1,1107.667,169.571Z" transform="translate(-1101.592 -161.612)" fill="#f39672"/>
                    </g>
                  </g>
                </g>
              </g>
            </g>
            <g id="Grupo_903823" data-name="Grupo 903823" transform="translate(1.89 1.397)">
              <g id="Grupo_903821" data-name="Grupo 903821" transform="translate(0)">
                <path id="Trazado_687122" data-name="Trazado 687122" d="M1110.076,165.339c-.212-1.25-2.67.129-2.238.81a3.912,3.912,0,0,0,1.089.921,1.861,1.861,0,0,1,.877,1.319c.014.072.042.29-.027.347-.315.252-1.475-.9-1.732-1.144a2.107,2.107,0,0,1-.445-1.989,1.264,1.264,0,0,1,1.332-1.042c.57-.007,1.157-.007,1.172.706,0,.015-.017.135-.028.072Z" transform="translate(-1107.522 -164.561)" fill="#e47a5d"/>
              </g>
              <g id="Grupo_903822" data-name="Grupo 903822" transform="translate(0.514 1.998)">
                <path id="Trazado_687123" data-name="Trazado 687123" d="M1107.415,168.921c.246-.285.513-.083.8.095a1.193,1.193,0,0,1,.508.71,2.953,2.953,0,0,1-.171,2.119,1.589,1.589,0,0,1-1.316.824c-.768.029-1.042-.63-1.115-1.277-.021-.173-.065-.584.1-.7s.324.148.454.261a1.068,1.068,0,0,0,.665.2,1.387,1.387,0,0,0,1.107-.586.738.738,0,0,0,.1-.205c.028.423.013.52-.047.289a1.18,1.18,0,0,0-.166-.288c-.2-.282-.512-.462-.729-.728-.1-.122-.313-.566-.19-.711Z" transform="translate(-1106.098 -168.779)" fill="#e47a5d"/>
              </g>
            </g>
          </g>
          <path id="Trazado_687124" data-name="Trazado 687124" d="M1051.594,175.517l1.176-6.225.9-.072a7,7,0,0,0,5.982,4.75s2.108.284,3.008.387c.118.014,1.39-1.29,1.556-1.4a10.165,10.165,0,0,1,4.826-1.408,12.013,12.013,0,0,1,5.2.236c.22.079,2.342,1.109,2.406.809,0,0-2.053,9.878-3.569,12.717,0,0-.646,2.177-5.713,1.736a28.757,28.757,0,0,1-15.546-6.783C1050.691,179.438,1051.594,175.517,1051.594,175.517Zm22.656-.818c-.217-1.02-.27-1.664-1.148-1.81a17.823,17.823,0,0,0-5.346.289c-1.39.2-3.117.413-3.659,1.946a5.931,5.931,0,0,0,.65,4.508c1.228,2.046,5.1,3.041,7.036,1.67C1073.424,180.133,1074.658,176.621,1074.25,174.7Z" transform="translate(-1009.58 -127.734)" fill="#341e13"/>
          <path id="Trazado_687125" data-name="Trazado 687125" d="M1062.406,186.51c-.389.556.557,1.116.915,1.342.713.447.826.412,1.5-.208.442-.407,1.6-1.421.531-1.728A8.308,8.308,0,0,0,1062.406,186.51Z" transform="translate(-1003.962 -136.514)" fill="#341e13"/>
          <path id="Trazado_687126" data-name="Trazado 687126" d="M978.108,493.778s4.086-5.87,9.612-6.149c0,0,7.055.861,5.3,3.908C993.022,491.537,990.811,498.1,978.108,493.778Z" transform="translate(-891.585 -295.33)" fill="#e28262"/>
          <g id="Grupo_903829" data-name="Grupo 903829" transform="translate(28.268)">
            <path id="Trazado_687127" data-name="Trazado 687127" d="M1081.406,106.411a18.262,18.262,0,0,0,.19-2.581c0-10.907-9.6-19.749-21.437-19.749s-21.434,8.842-21.434,19.749a18.408,18.408,0,0,0,.188,2.581s.045,8.519,29.323,7.745C1068.237,114.157,1090.138,112.667,1081.406,106.411Z" transform="translate(-1038.726 -82.92)" fill="#fff"/>
            <path id="Trazado_687128" data-name="Trazado 687128" d="M1084.6,106.411a18.032,18.032,0,0,0-.424-7.271,4.611,4.611,0,0,1-1.762,3.431,7.24,7.24,0,0,1-4.419,1.291,5.02,5.02,0,0,1-3.808-1.526,8.324,8.324,0,0,1-1.354-4.193,78.846,78.846,0,0,0-2.581-11.293,14.274,14.274,0,0,1-1.083-2.031,23.152,23.152,0,0,0-9.422-.454,14.853,14.853,0,0,1,2.874,6.042,40.4,40.4,0,0,1,.926,5.994,13.689,13.689,0,0,1-.1,5.423,4.659,4.659,0,0,1-3.728,3.3,12.326,12.326,0,0,1-6.534-.7,8.028,8.028,0,0,1-4.636-3.724,7.918,7.918,0,0,1-.333-6.052,20.341,20.341,0,0,1,6.8-9.019c-7.7,3-13.1,10.017-13.1,18.2a18.371,18.371,0,0,0,.188,2.581s.035,6.5,19.575,7.63a2.194,2.194,0,0,1-.808-1.186c-.8-3.324,4.792-3.495,7.389-3.664,2.732-.177,5.463-.593,8.181-.886a53.393,53.393,0,0,0,8.7-1.477C1084.978,106.691,1084.8,106.554,1084.6,106.411Z" transform="translate(-1041.923 -82.92)" fill="#e8e8e8"/>
            <g id="Grupo_903825" data-name="Grupo 903825" transform="translate(5.643 23.491)">
              <path id="Trazado_687129" data-name="Trazado 687129" d="M1043.067,132.217s.56.164,1.563.361c.5.093,1.108.244,1.811.349s1.5.245,2.364.366c.865.142,1.814.2,2.813.307,1,.079,2.055.252,3.151.249l3.38.1c1.152.063,2.321.009,3.491-.026l3.488-.162c1.151-.044,2.273-.237,3.364-.342s2.141-.262,3.137-.393a25.888,25.888,0,0,0,2.784-.5c1.718-.357,3.137-.706,4.132-.925l1.558-.373-1.593.212c-1.008.153-2.454.334-4.174.615a25.489,25.489,0,0,1-2.789.359c-1,.08-2.046.16-3.128.274-1.084.086-2.2.259-3.342.283l-3.462.105c-1.16.054-2.318.126-3.462.082l-3.355-.044c-1.09.006-2.137-.1-3.135-.129-1-.061-1.944-.068-2.81-.165s-1.665-.15-2.372-.2-1.318-.147-1.826-.2C1043.644,132.308,1043.067,132.217,1043.067,132.217Z" transform="translate(-1043.067 -131.227)" fill="#d2d1d1"/>
            </g>
            <path id="Trazado_687130" data-name="Trazado 687130" d="M1081.406,106.411a18.262,18.262,0,0,0,.19-2.581c0-10.907-9.6-19.749-21.437-19.749s-21.434,8.842-21.434,19.749a18.408,18.408,0,0,0,.188,2.581s.045,8.519,29.323,7.745C1068.237,114.157,1090.138,112.667,1081.406,106.411Z" transform="translate(-1038.726 -82.92)" fill="none" stroke="#bababa" stroke-miterlimit="10" stroke-width="2.957"/>
            <g id="Grupo_903828" data-name="Grupo 903828" transform="translate(16.65)">
              <path id="Trazado_687131" data-name="Trazado 687131" d="M1081.262,106.966c2.795-15.526-2.952-23.68-2.952-23.68-.779-1.365-3.708-1.655-3.708-1.655h-3.411c-4.48.128-3.028,2.139-3.028,2.139s6.44,7.208,6.273,23.69Z" transform="translate(-1067.779 -81.63)" fill="#e4e3e3"/>
              <g id="Grupo_903826" data-name="Grupo 903826" transform="translate(0 1.655)">
                <path id="Trazado_687132" data-name="Trazado 687132" d="M1083.124,85.125a30.336,30.336,0,0,1,2.03,3.441c.293.52.549,1.117.851,1.728.258.634.566,1.284.829,1.981.277.691.54,1.412.781,2.154.271.733.469,1.5.683,2.264.24.756.369,1.541.557,2.3.166.762.274,1.523.409,2.255s.176,1.452.271,2.13.107,1.325.146,1.922c.014.6.093,1.147.08,1.633s0,.913,0,1.263c.012.7.018,1.106.018,1.106l.146-1.1c.042-.351.092-.776.15-1.265a14.98,14.98,0,0,0,.083-1.649c.005-.606.049-1.265-.007-1.958s-.042-1.432-.148-2.184-.178-1.537-.345-2.318c-.183-.777-.306-1.583-.543-2.36s-.442-1.562-.727-2.309c-.25-.759-.564-1.48-.87-2.176-.282-.706-.656-1.344-.964-1.967-.352-.6-.655-1.184-.989-1.69a22.629,22.629,0,0,0-1.706-2.378A11,11,0,0,0,1083.124,85.125Z" transform="translate(-1083.124 -85.125)" fill="#d2d1d1"/>
              </g>
              <g id="Grupo_903827" data-name="Grupo 903827" transform="translate(10.532 1.655)">
                <path id="Trazado_687133" data-name="Trazado 687133" d="M1067.136,85.125s.184.336.463.939c.133.3.3.67.462,1.1s.326.926.528,1.454c.162.543.37,1.119.518,1.752.175.623.312,1.292.466,1.981s.245,1.413.393,2.138c.094.735.2,1.479.272,2.228.052.75.148,1.5.166,2.24s.072,1.471.066,2.178-.013,1.392-.01,2.043c-.033.65-.064,1.264-.093,1.831-.042,1.137-.152,2.081-.2,2.746s-.075,1.048-.075,1.048l.238-1.022a27.3,27.3,0,0,0,.515-2.723c.073-.571.152-1.188.235-1.841.05-.657.106-1.351.141-2.07s.014-1.465.006-2.222-.095-1.524-.141-2.291c-.081-.765-.2-1.527-.309-2.277-.153-.743-.28-1.479-.474-2.175a19.63,19.63,0,0,0-.6-1.992c-.2-.63-.457-1.2-.662-1.74a19.714,19.714,0,0,0-1.291-2.465A9.156,9.156,0,0,0,1067.136,85.125Z" transform="translate(-1067.136 -85.125)" fill="#d2d1d1"/>
              </g>
            </g>
          </g>
          <path id="Trazado_687134" data-name="Trazado 687134" d="M1106.321,227.237s14.511,24.191,14.511,41.6a724.283,724.283,0,0,1-1.609,72.672s-9.48.439-24.931-2.954l3.862-32.734s.2-18.736-5.465-32.226l-9.184-32.871Z" transform="translate(-1069.322 -158.271)" fill="#e65928"/>
          <path id="Trazado_687135" data-name="Trazado 687135" d="M1007.029,226.752l16.944,7.805s4.675,2.339,3.782,8.645l-9.59,62.3,1.84,35.766s-11.578.915-14.947.421c1.682-69.535,1.772-69.531,2.432-83.66A297.259,297.259,0,0,0,1007.029,226.752Z" transform="translate(-938.916 -158.016)" fill="#e65928"/>
          <g id="Grupo_903830" data-name="Grupo 903830" transform="translate(20.683 105.716)">
            <path id="Trazado_687136" data-name="Trazado 687136" d="M1049.6,329.456c.091,4.924.164,12.268.066,21.217h15.509c.255-9.871.441-16.381.6-21.217Z" transform="translate(-1018.597 -317.791)" fill="none"/>
            <path id="Trazado_687137" data-name="Trazado 687137" d="M1114.569,309.676a38.025,38.025,0,0,0-.335-4.848h-30.492l2.683,9.605c.284.673.548,1.363.8,2.06h27.516C1114.663,312.14,1114.569,309.676,1114.569,309.676Z" transform="translate(-1083.742 -304.828)" fill="#ffe800"/>
            <path id="Trazado_687138" data-name="Trazado 687138" d="M1083.6,374.251c.45,5.268.411,8.949.411,8.949l-.32,2.715h23.02c.109-4.116.179-8.023.218-11.664Z" transform="translate(-1075.866 -341.369)" fill="#ffe800"/>
            <path id="Trazado_687139" data-name="Trazado 687139" d="M1028,316.493l1.8-11.665h-17.371c-.155,3.364-.288,6.6-.452,11.665Z" transform="translate(-964.796 -304.828)" fill="#ffe800"/>
            <path id="Trazado_687140" data-name="Trazado 687140" d="M1036.311,374.251h-13.359c-.09,3.451-.188,7.316-.3,11.664h12.43l-.143-2.775Z" transform="translate(-976.377 -341.369)" fill="#ffe800"/>
          </g>
        </g>
      </g>
      <path id="Rectángulo_303633" data-name="Rectángulo 303633" d="M5,0H211a0,0,0,0,1,0,0V45a0,0,0,0,1,0,0H5a5,5,0,0,1-5-5V5A5,5,0,0,1,5,0Z" transform="translate(349 1134)" fill="#c7e9ed"/>
      <path id="Rectángulo_303634" data-name="Rectángulo 303634" d="M5,0H211a0,0,0,0,1,0,0V45a0,0,0,0,1,0,0H5a5,5,0,0,1-5-5V5A5,5,0,0,1,5,0Z" transform="translate(349 1206)" fill="#c7e9ed"/>
      <path id="Rectángulo_303635" data-name="Rectángulo 303635" d="M5,0H211a0,0,0,0,1,0,0V45a0,0,0,0,1,0,0H5a5,5,0,0,1-5-5V5A5,5,0,0,1,5,0Z" transform="translate(349 1278)" fill="#c7e9ed"/>
      <path id="Rectángulo_303636" data-name="Rectángulo 303636" d="M5,0H211a0,0,0,0,1,0,0V45a0,0,0,0,1,0,0H5a5,5,0,0,1-5-5V5A5,5,0,0,1,5,0Z" transform="translate(349 1350)" fill="#c7e9ed"/>
      <text id="Fatiga_visual_o_muscular_" data-name="Fatiga visual o muscular " transform="translate(361 1163)" fill="#636363" font-size="16" font-family="Roboto-Bold, Roboto" font-weight="700"><tspan x="0" y="0">Fatiga visual o muscular </tspan></text>
      <text id="Golpes_o_caídas" data-name="Golpes o caídas" transform="translate(361 1235)" fill="#636363" font-size="16" font-family="Roboto-Bold, Roboto" font-weight="700"><tspan x="0" y="0">Golpes o caídas</tspan></text>
      <text id="Contacto_eléctrico" data-name="Contacto eléctrico" transform="translate(361 1307)" fill="#636363" font-size="16" font-family="Roboto-Bold, Roboto" font-weight="700"><tspan x="0" y="0">Contacto eléctrico</tspan></text>
      <text id="Carga_mental" data-name="Carga mental" transform="translate(361 1379)" fill="#636363" font-size="16" font-family="Roboto-Bold, Roboto" font-weight="700"><tspan x="0" y="0">Carga mental</tspan></text>
    </g>
  </g>
</svg>
